<?xml version="1.0" encoding="UTF-8" standalone="no"?>
<!DOCTYPE svg PUBLIC "-//W3C//DTD SVG 1.1//EN"
 "http://www.w3.org/Graphics/SVG/1.1/DTD/svg11.dtd">
<!-- Generated by graphviz version 2.40.1 (20161225.0304)
 -->
<!-- Title: public.ability_type Pages: 1 -->
<svg width="739pt" height="622pt"
 viewBox="0.00 0.00 738.50 622.00" xmlns="http://www.w3.org/2000/svg" xmlns:xlink="http://www.w3.org/1999/xlink">
<g id="graph0" class="graph" transform="scale(1 1) rotate(0) translate(4 618)">
<title>public.ability_type</title>
<polygon fill="#ffffff" stroke="transparent" points="-4,4 -4,-618 734.5,-618 734.5,4 -4,4"/>
<!-- public.ability_type -->
<g id="node1" class="node">
<title>public.ability_type</title>
<polygon fill="#efefef" stroke="transparent" points="402,-195.5 402,-230.5 685,-230.5 685,-195.5 402,-195.5"/>
<polygon fill="none" stroke="#000000" points="402,-195.5 402,-230.5 685,-230.5 685,-195.5 402,-195.5"/>
<text text-anchor="start" x="408.7024" y="-208.3" font-family="Arial Bold" font-size="18.00" fill="#000000">public.ability_type</text>
<text text-anchor="start" x="550.7296" y="-208.3" font-family="Arial" font-size="14.00" fill="#000000">    </text>
<text text-anchor="start" x="584.9344" y="-208.3" font-family="Arial" font-size="14.00" fill="#666666">[BASE TABLE]</text>
<polygon fill="none" stroke="#000000" points="402,-165.5 402,-195.5 685,-195.5 685,-165.5 402,-165.5"/>
<text text-anchor="start" x="409" y="-176.9" font-family="Arial" font-size="14.00" fill="#000000">name </text>
<text text-anchor="start" x="447.899" y="-176.9" font-family="Arial" font-size="14.00" fill="#666666">[varchar(50)]</text>
<polygon fill="none" stroke="#000000" points="402,-135.5 402,-165.5 685,-165.5 685,-135.5 402,-135.5"/>
<text text-anchor="start" x="409" y="-146.9" font-family="Arial" font-size="14.00" fill="#000000">description </text>
<text text-anchor="start" x="480.568" y="-146.9" font-family="Arial" font-size="14.00" fill="#666666">[varchar(500)]</text>
<polygon fill="none" stroke="#000000" points="402,-105.5 402,-135.5 685,-135.5 685,-105.5 402,-105.5"/>
<text text-anchor="start" x="409" y="-116.9" font-family="Arial" font-size="14.00" fill="#000000">id </text>
<text text-anchor="start" x="423.7798" y="-116.9" font-family="Arial" font-size="14.00" fill="#666666">[uuid]</text>
<polygon fill="none" stroke="#000000" points="402,-75.5 402,-105.5 685,-105.5 685,-75.5 402,-75.5"/>
<text text-anchor="start" x="409" y="-86.9" font-family="Arial" font-size="14.00" fill="#000000">created_at </text>
<text text-anchor="start" x="479.028" y="-86.9" font-family="Arial" font-size="14.00" fill="#666666">[timestamp with time zone]</text>
<polygon fill="none" stroke="#000000" points="402,-45.5 402,-75.5 685,-75.5 685,-45.5 402,-45.5"/>
<text text-anchor="start" x="409" y="-56.9" font-family="Arial" font-size="14.00" fill="#000000">ts_vector </text>
<text text-anchor="start" x="469.6802" y="-56.9" font-family="Arial" font-size="14.00" fill="#666666">[tsvector]</text>
<polygon fill="none" stroke="#000000" stroke-width="3" points="400,-44.5 400,-232.5 686,-232.5 686,-44.5 400,-44.5"/>
</g>
<!-- public.ability -->
<g id="node2" class="node">
<title>public.ability</title>
<polygon fill="#efefef" stroke="transparent" points="404,-535.5 404,-570.5 684,-570.5 684,-535.5 404,-535.5"/>
<polygon fill="none" stroke="#000000" points="404,-535.5 404,-570.5 684,-570.5 684,-535.5 404,-535.5"/>
<text text-anchor="start" x="431.2128" y="-548.3" font-family="Arial Bold" font-size="18.00" fill="#000000">public.ability</text>
<text text-anchor="start" x="529.2192" y="-548.3" font-family="Arial" font-size="14.00" fill="#000000">    </text>
<text text-anchor="start" x="563.424" y="-548.3" font-family="Arial" font-size="14.00" fill="#666666">[BASE TABLE]</text>
<polygon fill="none" stroke="#000000" points="404,-505.5 404,-535.5 684,-535.5 684,-505.5 404,-505.5"/>
<text text-anchor="start" x="411" y="-516.9" font-family="Arial" font-size="14.00" fill="#000000">name    </text>
<text text-anchor="start" x="480.2132" y="-516.9" font-family="Arial" font-size="14.00" fill="#666666">[varchar(50)]</text>
<polygon fill="none" stroke="#000000" points="404,-475.5 404,-505.5 684,-505.5 684,-475.5 404,-475.5"/>
<text text-anchor="start" x="411" y="-486.9" font-family="Arial" font-size="14.00" fill="#000000">ability_type_id    </text>
<text text-anchor="start" x="533.8906" y="-486.9" font-family="Arial" font-size="14.00" fill="#666666">[uuid]</text>
<polygon fill="none" stroke="#000000" points="404,-445.5 404,-475.5 684,-475.5 684,-445.5 404,-445.5"/>
<text text-anchor="start" x="411" y="-456.9" font-family="Arial" font-size="14.00" fill="#000000">id    </text>
<text text-anchor="start" x="456.094" y="-456.9" font-family="Arial" font-size="14.00" fill="#666666">[uuid]</text>
<polygon fill="none" stroke="#000000" points="404,-415.5 404,-445.5 684,-445.5 684,-415.5 404,-415.5"/>
<text text-anchor="start" x="410.9867" y="-426.9" font-family="Arial" font-size="14.00" fill="#000000">created_at    </text>
<text text-anchor="start" x="511.3289" y="-426.9" font-family="Arial" font-size="14.00" fill="#666666">[timestamp with time zone]</text>
<polygon fill="none" stroke="#000000" points="404,-385.5 404,-415.5 684,-415.5 684,-385.5 404,-385.5"/>
<text text-anchor="start" x="411" y="-396.9" font-family="Arial" font-size="14.00" fill="#000000">description    </text>
<text text-anchor="start" x="512.8822" y="-396.9" font-family="Arial" font-size="14.00" fill="#666666">[varchar(500)]</text>
<polygon fill="none" stroke="#000000" points="404,-355.5 404,-385.5 684,-385.5 684,-355.5 404,-355.5"/>
<text text-anchor="start" x="411" y="-366.9" font-family="Arial" font-size="14.00" fill="#000000">ts_vector    </text>
<text text-anchor="start" x="501.9944" y="-366.9" font-family="Arial" font-size="14.00" fill="#666666">[tsvector]</text>
</g>
<!-- public.ability&#45;&gt;public.ability_type -->
<g id="edge1" class="edge">
<title>public.ability:ability_type_id&#45;&gt;public.ability_type:id</title>
<path fill="none" stroke="#000000" d="M394.0009,-489.8C327.5674,-479.9926 354.2231,-369.5609 404,-313 487.1826,-218.4807 601.8174,-371.5193 685,-277 730.9521,-224.7852 754.5556,-120.5 685,-120.5"/>
<polygon fill="#000000" stroke="#000000" points="394.0244,-489.8016 403.6857,-494.989 399.0122,-490.1508 404,-490.5 404,-490.5 404,-490.5 399.0122,-490.1508 404.3143,-486.011 394.0244,-489.8016 394.0244,-489.8016"/>
<text text-anchor="start" x="6.9905" y="-500.5" font-family="Arial" font-size="10.00" fill="#000000">FOREIGN KEY (ability_type_id) REFERENCES ability_type(id) ON DELETE CASCADE</text>
</g>
</g>
</svg>
