<?xml version="1.0" encoding="UTF-8" standalone="no"?>
<!DOCTYPE svg PUBLIC "-//W3C//DTD SVG 1.1//EN"
 "http://www.w3.org/Graphics/SVG/1.1/DTD/svg11.dtd">
<!-- Generated by graphviz version 2.40.1 (20161225.0304)
 -->
<!-- Title: public.character_details_view Pages: 1 -->
<svg width="426pt" height="405pt"
 viewBox="0.00 0.00 426.00 405.00" xmlns="http://www.w3.org/2000/svg" xmlns:xlink="http://www.w3.org/1999/xlink">
<g id="graph0" class="graph" transform="scale(1 1) rotate(0) translate(4 401)">
<title>public.character_details_view</title>
<polygon fill="#ffffff" stroke="transparent" points="-4,4 -4,-401 422,-401 422,4 -4,4"/>
<!-- public.character_details_view -->
<g id="node1" class="node">
<title>public.character_details_view</title>
<polygon fill="#efefef" stroke="transparent" points="46,-315.5 46,-350.5 372,-350.5 372,-315.5 46,-315.5"/>
<polygon fill="none" stroke="#000000" points="46,-315.5 46,-350.5 372,-350.5 372,-315.5 46,-315.5"/>
<text text-anchor="start" x="52.5994" y="-328.3" font-family="Arial Bold" font-size="18.00" fill="#000000">public.character_details_view</text>
<text text-anchor="start" x="287.6362" y="-328.3" font-family="Arial" font-size="14.00" fill="#000000">    </text>
<text text-anchor="start" x="321.841" y="-328.3" font-family="Arial" font-size="14.00" fill="#666666">[VIEW]</text>
<polygon fill="none" stroke="#000000" points="46,-285.5 46,-315.5 372,-315.5 372,-285.5 46,-285.5"/>
<text text-anchor="start" x="53" y="-296.9" font-family="Arial" font-size="14.00" fill="#000000">character_id </text>
<text text-anchor="start" x="133.9046" y="-296.9" font-family="Arial" font-size="14.00" fill="#666666">[uuid]</text>
<polygon fill="none" stroke="#000000" points="46,-255.5 46,-285.5 372,-285.5 372,-255.5 46,-255.5"/>
<text text-anchor="start" x="53" y="-266.9" font-family="Arial" font-size="14.00" fill="#000000">character_name </text>
<text text-anchor="start" x="158.0238" y="-266.9" font-family="Arial" font-size="14.00" fill="#666666">[varchar(50)]</text>
<polygon fill="none" stroke="#000000" points="46,-225.5 46,-255.5 372,-255.5 372,-225.5 46,-225.5"/>
<text text-anchor="start" x="53" y="-236.9" font-family="Arial" font-size="14.00" fill="#000000">gender </text>
<text text-anchor="start" x="100.4642" y="-236.9" font-family="Arial" font-size="14.00" fill="#666666">[gender]</text>
<polygon fill="none" stroke="#000000" points="46,-195.5 46,-225.5 372,-225.5 372,-195.5 46,-195.5"/>
<text text-anchor="start" x="53" y="-206.9" font-family="Arial" font-size="14.00" fill="#000000">class_name </text>
<text text-anchor="start" x="131.5708" y="-206.9" font-family="Arial" font-size="14.00" fill="#666666">[varchar(50)]</text>
<polygon fill="none" stroke="#000000" points="46,-165.5 46,-195.5 372,-195.5 372,-165.5 46,-165.5"/>
<text text-anchor="start" x="53" y="-176.9" font-family="Arial" font-size="14.00" fill="#000000">place_name </text>
<text text-anchor="start" x="133.136" y="-176.9" font-family="Arial" font-size="14.00" fill="#666666">[varchar]</text>
<polygon fill="none" stroke="#000000" points="46,-135.5 46,-165.5 372,-165.5 372,-135.5 46,-135.5"/>
<text text-anchor="start" x="53" y="-146.9" font-family="Arial" font-size="14.00" fill="#000000">alive </text>
<text text-anchor="start" x="85.669" y="-146.9" font-family="Arial" font-size="14.00" fill="#666666">[boolean]</text>
<polygon fill="none" stroke="#000000" points="46,-105.5 46,-135.5 372,-135.5 372,-105.5 46,-105.5"/>
<text text-anchor="start" x="53" y="-116.9" font-family="Arial" font-size="14.00" fill="#000000">level </text>
<text text-anchor="start" x="85.669" y="-116.9" font-family="Arial" font-size="14.00" fill="#666666">[integer]</text>
<polygon fill="none" stroke="#000000" points="46,-75.5 46,-105.5 372,-105.5 372,-75.5 46,-75.5"/>
<text text-anchor="start" x="53" y="-86.9" font-family="Arial" font-size="14.00" fill="#000000">xp </text>
<text text-anchor="start" x="71.6732" y="-86.9" font-family="Arial" font-size="14.00" fill="#666666">[integer]</text>
<polygon fill="none" stroke="#000000" points="46,-45.5 46,-75.5 372,-75.5 372,-45.5 46,-45.5"/>
<text text-anchor="start" x="53" y="-56.9" font-family="Arial" font-size="14.00" fill="#000000">money </text>
<text text-anchor="start" x="98.899" y="-56.9" font-family="Arial" font-size="14.00" fill="#666666">[integer]</text>
<polygon fill="none" stroke="#000000" stroke-width="3" points="44.5,-44.5 44.5,-352.5 373.5,-352.5 373.5,-44.5 44.5,-44.5"/>
</g>
</g>
</svg>
