<?xml version="1.0" encoding="UTF-8" standalone="no"?>
<!DOCTYPE svg PUBLIC "-//W3C//DTD SVG 1.1//EN"
 "http://www.w3.org/Graphics/SVG/1.1/DTD/svg11.dtd">
<!-- Generated by graphviz version 2.40.1 (20161225.0304)
 -->
<!-- Title: public.character_attribute Pages: 1 -->
<svg width="1010pt" height="772pt"
 viewBox="0.00 0.00 1010.00 772.00" xmlns="http://www.w3.org/2000/svg" xmlns:xlink="http://www.w3.org/1999/xlink">
<g id="graph0" class="graph" transform="scale(1 1) rotate(0) translate(4 768)">
<title>public.character_attribute</title>
<polygon fill="#ffffff" stroke="transparent" points="-4,4 -4,-768 1006,-768 1006,4 -4,4"/>
<!-- public.character_attribute -->
<g id="node1" class="node">
<title>public.character_attribute</title>
<polygon fill="#efefef" stroke="transparent" points="394,-682.5 394,-717.5 737,-717.5 737,-682.5 394,-682.5"/>
<polygon fill="none" stroke="#000000" points="394,-682.5 394,-717.5 737,-717.5 737,-682.5 394,-682.5"/>
<text text-anchor="start" x="400.6937" y="-695.3" font-family="Arial Bold" font-size="18.00" fill="#000000">public.character_attribute</text>
<text text-anchor="start" x="602.7383" y="-695.3" font-family="Arial" font-size="14.00" fill="#000000">    </text>
<text text-anchor="start" x="636.9431" y="-695.3" font-family="Arial" font-size="14.00" fill="#666666">[BASE TABLE]</text>
<polygon fill="none" stroke="#000000" points="394,-652.5 394,-682.5 737,-682.5 737,-652.5 394,-652.5"/>
<text text-anchor="start" x="401" y="-663.9" font-family="Arial" font-size="14.00" fill="#000000">character_id </text>
<text text-anchor="start" x="481.9046" y="-663.9" font-family="Arial" font-size="14.00" fill="#666666">[uuid]</text>
<polygon fill="none" stroke="#000000" points="394,-622.5 394,-652.5 737,-652.5 737,-622.5 394,-622.5"/>
<text text-anchor="start" x="401" y="-633.9" font-family="Arial" font-size="14.00" fill="#000000">attribute_id </text>
<text text-anchor="start" x="474.1318" y="-633.9" font-family="Arial" font-size="14.00" fill="#666666">[uuid]</text>
<polygon fill="none" stroke="#000000" points="394,-592.5 394,-622.5 737,-622.5 737,-592.5 394,-592.5"/>
<text text-anchor="start" x="401" y="-603.9" font-family="Arial" font-size="14.00" fill="#000000">value </text>
<text text-anchor="start" x="438.345" y="-603.9" font-family="Arial" font-size="14.00" fill="#666666">[integer]</text>
<polygon fill="none" stroke="#000000" points="394,-562.5 394,-592.5 737,-592.5 737,-562.5 394,-562.5"/>
<text text-anchor="start" x="401" y="-573.9" font-family="Arial" font-size="14.00" fill="#000000">id </text>
<text text-anchor="start" x="415.7798" y="-573.9" font-family="Arial" font-size="14.00" fill="#666666">[uuid]</text>
<polygon fill="none" stroke="#000000" points="394,-532.5 394,-562.5 737,-562.5 737,-532.5 394,-532.5"/>
<text text-anchor="start" x="401" y="-543.9" font-family="Arial" font-size="14.00" fill="#000000">created_at </text>
<text text-anchor="start" x="471.028" y="-543.9" font-family="Arial" font-size="14.00" fill="#666666">[timestamp with time zone]</text>
<polygon fill="none" stroke="#000000" stroke-width="3" points="392,-531.5 392,-719.5 738,-719.5 738,-531.5 392,-531.5"/>
</g>
<!-- public.character -->
<g id="node2" class="node">
<title>public.character</title>
<polygon fill="#efefef" stroke="transparent" points="234,-372.5 234,-407.5 514,-407.5 514,-372.5 234,-372.5"/>
<polygon fill="none" stroke="#000000" points="234,-372.5 234,-407.5 514,-407.5 514,-372.5 234,-372.5"/>
<text text-anchor="start" x="246.7057" y="-385.3" font-family="Arial Bold" font-size="18.00" fill="#000000">public.character</text>
<text text-anchor="start" x="373.7263" y="-385.3" font-family="Arial" font-size="14.00" fill="#000000">    </text>
<text text-anchor="start" x="407.9311" y="-385.3" font-family="Arial" font-size="14.00" fill="#666666">[BASE TABLE]</text>
<polygon fill="none" stroke="#000000" points="234,-342.5 234,-372.5 514,-372.5 514,-342.5 234,-342.5"/>
<text text-anchor="start" x="241" y="-353.9" font-family="Arial" font-size="14.00" fill="#000000">base_class_id    </text>
<text text-anchor="start" x="363.8962" y="-353.9" font-family="Arial" font-size="14.00" fill="#666666">[uuid]</text>
<polygon fill="none" stroke="#000000" points="234,-312.5 234,-342.5 514,-342.5 514,-312.5 234,-312.5"/>
<text text-anchor="start" x="241" y="-323.9" font-family="Arial" font-size="14.00" fill="#000000">user_id    </text>
<text text-anchor="start" x="321.1024" y="-323.9" font-family="Arial" font-size="14.00" fill="#666666">[uuid]</text>
<polygon fill="none" stroke="#000000" points="234,-282.5 234,-312.5 514,-312.5 514,-282.5 234,-282.5"/>
<text text-anchor="start" x="241" y="-293.9" font-family="Arial" font-size="14.00" fill="#000000">character_location_id    </text>
<text text-anchor="start" x="408.2356" y="-293.9" font-family="Arial" font-size="14.00" fill="#666666">[uuid]</text>
<polygon fill="none" stroke="#000000" points="234,-252.5 234,-282.5 514,-282.5 514,-252.5 234,-252.5"/>
<text text-anchor="start" x="241" y="-263.9" font-family="Arial" font-size="14.00" fill="#000000">gender    </text>
<text text-anchor="start" x="318.7784" y="-263.9" font-family="Arial" font-size="14.00" fill="#666666">[gender]</text>
<polygon fill="none" stroke="#000000" points="234,-222.5 234,-252.5 514,-252.5 514,-222.5 234,-222.5"/>
<text text-anchor="start" x="241" y="-233.9" font-family="Arial" font-size="14.00" fill="#000000">character_name    </text>
<text text-anchor="start" x="376.338" y="-233.9" font-family="Arial" font-size="14.00" fill="#666666">[varchar(50)]</text>
<polygon fill="none" stroke="#000000" points="234,-192.5 234,-222.5 514,-222.5 514,-192.5 234,-192.5"/>
<text text-anchor="start" x="241" y="-203.9" font-family="Arial" font-size="14.00" fill="#000000">alive    </text>
<text text-anchor="start" x="303.9832" y="-203.9" font-family="Arial" font-size="14.00" fill="#666666">[boolean]</text>
<polygon fill="none" stroke="#000000" points="234,-162.5 234,-192.5 514,-192.5 514,-162.5 234,-162.5"/>
<text text-anchor="start" x="241" y="-173.9" font-family="Arial" font-size="14.00" fill="#000000">level    </text>
<text text-anchor="start" x="303.9832" y="-173.9" font-family="Arial" font-size="14.00" fill="#666666">[integer]</text>
<polygon fill="none" stroke="#000000" points="234,-132.5 234,-162.5 514,-162.5 514,-132.5 234,-132.5"/>
<text text-anchor="start" x="241" y="-143.9" font-family="Arial" font-size="14.00" fill="#000000">xp    </text>
<text text-anchor="start" x="289.9874" y="-143.9" font-family="Arial" font-size="14.00" fill="#666666">[integer]</text>
<polygon fill="none" stroke="#000000" points="234,-102.5 234,-132.5 514,-132.5 514,-102.5 234,-102.5"/>
<text text-anchor="start" x="241" y="-113.9" font-family="Arial" font-size="14.00" fill="#000000">money    </text>
<text text-anchor="start" x="317.2132" y="-113.9" font-family="Arial" font-size="14.00" fill="#666666">[integer]</text>
<polygon fill="none" stroke="#000000" points="234,-72.5 234,-102.5 514,-102.5 514,-72.5 234,-72.5"/>
<text text-anchor="start" x="241" y="-83.9" font-family="Arial" font-size="14.00" fill="#000000">id    </text>
<text text-anchor="start" x="286.094" y="-83.9" font-family="Arial" font-size="14.00" fill="#666666">[uuid]</text>
<polygon fill="none" stroke="#000000" points="234,-42.5 234,-72.5 514,-72.5 514,-42.5 234,-42.5"/>
<text text-anchor="start" x="240.9867" y="-53.9" font-family="Arial" font-size="14.00" fill="#000000">created_at    </text>
<text text-anchor="start" x="341.3289" y="-53.9" font-family="Arial" font-size="14.00" fill="#666666">[timestamp with time zone]</text>
</g>
<!-- public.character_attribute&#45;&gt;public.character -->
<g id="edge1" class="edge">
<title>public.character_attribute:character_id&#45;&gt;public.character:id</title>
<path fill="none" stroke="#000000" d="M383.8614,-666.8121C316.7143,-657.1702 348.2641,-548.4705 394,-487 427.2381,-442.327 480.7619,-495.673 514,-451 562.2187,-386.1926 594.7778,-87.5 514,-87.5"/>
<polygon fill="#000000" stroke="#000000" points="384.0229,-666.823 393.6953,-671.9897 389.0115,-667.1615 394,-667.5 394,-667.5 394,-667.5 389.0115,-667.1615 394.3047,-663.0103 384.0229,-666.823 384.0229,-666.823"/>
<text text-anchor="start" x="6.7785" y="-677.5" font-family="Arial" font-size="10.00" fill="#000000">FOREIGN KEY (character_id) REFERENCES &quot;character&quot;(id) ON DELETE CASCADE</text>
</g>
<!-- public.attribute -->
<g id="node3" class="node">
<title>public.attribute</title>
<polygon fill="#efefef" stroke="transparent" points="618,-282.5 618,-317.5 898,-317.5 898,-282.5 618,-282.5"/>
<polygon fill="none" stroke="#000000" points="618,-282.5 618,-317.5 898,-317.5 898,-282.5 618,-282.5"/>
<text text-anchor="start" x="635.7025" y="-295.3" font-family="Arial Bold" font-size="18.00" fill="#000000">public.attribute</text>
<text text-anchor="start" x="752.7295" y="-295.3" font-family="Arial" font-size="14.00" fill="#000000">    </text>
<text text-anchor="start" x="786.9343" y="-295.3" font-family="Arial" font-size="14.00" fill="#666666">[BASE TABLE]</text>
<polygon fill="none" stroke="#000000" points="618,-252.5 618,-282.5 898,-282.5 898,-252.5 618,-252.5"/>
<text text-anchor="start" x="625" y="-263.9" font-family="Arial" font-size="14.00" fill="#000000">name    </text>
<text text-anchor="start" x="694.2132" y="-263.9" font-family="Arial" font-size="14.00" fill="#666666">[varchar(50)]</text>
<polygon fill="none" stroke="#000000" points="618,-222.5 618,-252.5 898,-252.5 898,-222.5 618,-222.5"/>
<text text-anchor="start" x="625" y="-233.9" font-family="Arial" font-size="14.00" fill="#000000">description    </text>
<text text-anchor="start" x="726.8822" y="-233.9" font-family="Arial" font-size="14.00" fill="#666666">[varchar(500)]</text>
<polygon fill="none" stroke="#000000" points="618,-192.5 618,-222.5 898,-222.5 898,-192.5 618,-192.5"/>
<text text-anchor="start" x="625" y="-203.9" font-family="Arial" font-size="14.00" fill="#000000">id    </text>
<text text-anchor="start" x="670.094" y="-203.9" font-family="Arial" font-size="14.00" fill="#666666">[uuid]</text>
<polygon fill="none" stroke="#000000" points="618,-162.5 618,-192.5 898,-192.5 898,-162.5 618,-162.5"/>
<text text-anchor="start" x="624.9867" y="-173.9" font-family="Arial" font-size="14.00" fill="#000000">created_at    </text>
<text text-anchor="start" x="725.3289" y="-173.9" font-family="Arial" font-size="14.00" fill="#666666">[timestamp with time zone]</text>
<polygon fill="none" stroke="#000000" points="618,-132.5 618,-162.5 898,-162.5 898,-132.5 618,-132.5"/>
<text text-anchor="start" x="625" y="-143.9" font-family="Arial" font-size="14.00" fill="#000000">ts_vector    </text>
<text text-anchor="start" x="715.9944" y="-143.9" font-family="Arial" font-size="14.00" fill="#666666">[tsvector]</text>
</g>
<!-- public.character_attribute&#45;&gt;public.attribute -->
<g id="edge2" class="edge">
<title>public.character_attribute:attribute_id&#45;&gt;public.attribute:id</title>
<path fill="none" stroke="#000000" d="M747.0161,-636.7261C799.328,-627.9158 760.3607,-545.7574 737,-487 708.5422,-415.4222 646.4578,-432.5778 618,-361 592.7953,-297.6045 549.7778,-207.5 618,-207.5"/>
<polygon fill="#000000" stroke="#000000" points="746.9703,-636.7295 736.6533,-633.0134 741.9851,-637.1148 737,-637.5 737,-637.5 737,-637.5 741.9851,-637.1148 737.3467,-641.9866 746.9703,-636.7295 746.9703,-636.7295"/>
<text text-anchor="start" x="744.1605" y="-647.5" font-family="Arial" font-size="10.00" fill="#000000">FOREIGN KEY (attribute_id) REFERENCES attribute(id)</text>
</g>
</g>
</svg>
