<?xml version="1.0" encoding="UTF-8" standalone="no"?>
<!DOCTYPE svg PUBLIC "-//W3C//DTD SVG 1.1//EN"
 "http://www.w3.org/Graphics/SVG/1.1/DTD/svg11.dtd">
<!-- Generated by graphviz version 2.40.1 (20161225.0304)
 -->
<!-- Title: public.character_location Pages: 1 -->
<svg width="830pt" height="742pt"
 viewBox="0.00 0.00 830.00 742.00" xmlns="http://www.w3.org/2000/svg" xmlns:xlink="http://www.w3.org/1999/xlink">
<g id="graph0" class="graph" transform="scale(1 1) rotate(0) translate(4 738)">
<title>public.character_location</title>
<polygon fill="#ffffff" stroke="transparent" points="-4,4 -4,-738 826,-738 826,4 -4,4"/>
<!-- public.character_location -->
<g id="node1" class="node">
<title>public.character_location</title>
<polygon fill="#efefef" stroke="transparent" points="46,-165.5 46,-200.5 386,-200.5 386,-165.5 46,-165.5"/>
<polygon fill="none" stroke="#000000" points="46,-165.5 46,-200.5 386,-200.5 386,-165.5 46,-165.5"/>
<text text-anchor="start" x="52.6949" y="-178.3" font-family="Arial Bold" font-size="18.00" fill="#000000">public.character_location</text>
<text text-anchor="start" x="251.7371" y="-178.3" font-family="Arial" font-size="14.00" fill="#000000">    </text>
<text text-anchor="start" x="285.9419" y="-178.3" font-family="Arial" font-size="14.00" fill="#666666">[BASE TABLE]</text>
<polygon fill="none" stroke="#000000" points="46,-135.5 46,-165.5 386,-165.5 386,-135.5 46,-135.5"/>
<text text-anchor="start" x="53" y="-146.9" font-family="Arial" font-size="14.00" fill="#000000">x </text>
<text text-anchor="start" x="63.8906" y="-146.9" font-family="Arial" font-size="14.00" fill="#666666">[integer]</text>
<polygon fill="none" stroke="#000000" points="46,-105.5 46,-135.5 386,-135.5 386,-105.5 46,-105.5"/>
<text text-anchor="start" x="53" y="-116.9" font-family="Arial" font-size="14.00" fill="#000000">y </text>
<text text-anchor="start" x="63.8906" y="-116.9" font-family="Arial" font-size="14.00" fill="#666666">[integer]</text>
<polygon fill="none" stroke="#000000" points="46,-75.5 46,-105.5 386,-105.5 386,-75.5 46,-75.5"/>
<text text-anchor="start" x="53" y="-86.9" font-family="Arial" font-size="14.00" fill="#000000">id </text>
<text text-anchor="start" x="67.7798" y="-86.9" font-family="Arial" font-size="14.00" fill="#666666">[uuid]</text>
<polygon fill="none" stroke="#000000" points="46,-45.5 46,-75.5 386,-75.5 386,-45.5 46,-45.5"/>
<text text-anchor="start" x="53" y="-56.9" font-family="Arial" font-size="14.00" fill="#000000">created_at </text>
<text text-anchor="start" x="123.028" y="-56.9" font-family="Arial" font-size="14.00" fill="#666666">[timestamp with time zone]</text>
<polygon fill="none" stroke="#000000" stroke-width="3" points="44.5,-44.5 44.5,-202.5 387.5,-202.5 387.5,-44.5 44.5,-44.5"/>
</g>
<!-- public.character -->
<g id="node2" class="node">
<title>public.character</title>
<polygon fill="#efefef" stroke="transparent" points="76,-655.5 76,-690.5 356,-690.5 356,-655.5 76,-655.5"/>
<polygon fill="none" stroke="#000000" points="76,-655.5 76,-690.5 356,-690.5 356,-655.5 76,-655.5"/>
<text text-anchor="start" x="88.7057" y="-668.3" font-family="Arial Bold" font-size="18.00" fill="#000000">public.character</text>
<text text-anchor="start" x="215.7263" y="-668.3" font-family="Arial" font-size="14.00" fill="#000000">    </text>
<text text-anchor="start" x="249.9311" y="-668.3" font-family="Arial" font-size="14.00" fill="#666666">[BASE TABLE]</text>
<polygon fill="none" stroke="#000000" points="76,-625.5 76,-655.5 356,-655.5 356,-625.5 76,-625.5"/>
<text text-anchor="start" x="83" y="-636.9" font-family="Arial" font-size="14.00" fill="#000000">base_class_id    </text>
<text text-anchor="start" x="205.8962" y="-636.9" font-family="Arial" font-size="14.00" fill="#666666">[uuid]</text>
<polygon fill="none" stroke="#000000" points="76,-595.5 76,-625.5 356,-625.5 356,-595.5 76,-595.5"/>
<text text-anchor="start" x="83" y="-606.9" font-family="Arial" font-size="14.00" fill="#000000">user_id    </text>
<text text-anchor="start" x="163.1024" y="-606.9" font-family="Arial" font-size="14.00" fill="#666666">[uuid]</text>
<polygon fill="none" stroke="#000000" points="76,-565.5 76,-595.5 356,-595.5 356,-565.5 76,-565.5"/>
<text text-anchor="start" x="83" y="-576.9" font-family="Arial" font-size="14.00" fill="#000000">character_location_id    </text>
<text text-anchor="start" x="250.2356" y="-576.9" font-family="Arial" font-size="14.00" fill="#666666">[uuid]</text>
<polygon fill="none" stroke="#000000" points="76,-535.5 76,-565.5 356,-565.5 356,-535.5 76,-535.5"/>
<text text-anchor="start" x="83" y="-546.9" font-family="Arial" font-size="14.00" fill="#000000">gender    </text>
<text text-anchor="start" x="160.7784" y="-546.9" font-family="Arial" font-size="14.00" fill="#666666">[gender]</text>
<polygon fill="none" stroke="#000000" points="76,-505.5 76,-535.5 356,-535.5 356,-505.5 76,-505.5"/>
<text text-anchor="start" x="83" y="-516.9" font-family="Arial" font-size="14.00" fill="#000000">character_name    </text>
<text text-anchor="start" x="218.338" y="-516.9" font-family="Arial" font-size="14.00" fill="#666666">[varchar(50)]</text>
<polygon fill="none" stroke="#000000" points="76,-475.5 76,-505.5 356,-505.5 356,-475.5 76,-475.5"/>
<text text-anchor="start" x="83" y="-486.9" font-family="Arial" font-size="14.00" fill="#000000">alive    </text>
<text text-anchor="start" x="145.9832" y="-486.9" font-family="Arial" font-size="14.00" fill="#666666">[boolean]</text>
<polygon fill="none" stroke="#000000" points="76,-445.5 76,-475.5 356,-475.5 356,-445.5 76,-445.5"/>
<text text-anchor="start" x="83" y="-456.9" font-family="Arial" font-size="14.00" fill="#000000">level    </text>
<text text-anchor="start" x="145.9832" y="-456.9" font-family="Arial" font-size="14.00" fill="#666666">[integer]</text>
<polygon fill="none" stroke="#000000" points="76,-415.5 76,-445.5 356,-445.5 356,-415.5 76,-415.5"/>
<text text-anchor="start" x="83" y="-426.9" font-family="Arial" font-size="14.00" fill="#000000">xp    </text>
<text text-anchor="start" x="131.9874" y="-426.9" font-family="Arial" font-size="14.00" fill="#666666">[integer]</text>
<polygon fill="none" stroke="#000000" points="76,-385.5 76,-415.5 356,-415.5 356,-385.5 76,-385.5"/>
<text text-anchor="start" x="83" y="-396.9" font-family="Arial" font-size="14.00" fill="#000000">money    </text>
<text text-anchor="start" x="159.2132" y="-396.9" font-family="Arial" font-size="14.00" fill="#666666">[integer]</text>
<polygon fill="none" stroke="#000000" points="76,-355.5 76,-385.5 356,-385.5 356,-355.5 76,-355.5"/>
<text text-anchor="start" x="83" y="-366.9" font-family="Arial" font-size="14.00" fill="#000000">id    </text>
<text text-anchor="start" x="128.094" y="-366.9" font-family="Arial" font-size="14.00" fill="#666666">[uuid]</text>
<polygon fill="none" stroke="#000000" points="76,-325.5 76,-355.5 356,-355.5 356,-325.5 76,-325.5"/>
<text text-anchor="start" x="82.9867" y="-336.9" font-family="Arial" font-size="14.00" fill="#000000">created_at    </text>
<text text-anchor="start" x="183.3289" y="-336.9" font-family="Arial" font-size="14.00" fill="#666666">[timestamp with time zone]</text>
</g>
<!-- public.character&#45;&gt;public.character_location -->
<g id="edge1" class="edge">
<title>public.character:character_location_id&#45;&gt;public.character_location:id</title>
<path fill="none" stroke="#000000" d="M365.0215,-575.9621C413.6736,-526.5642 437.4568,-90.5 386,-90.5"/>
<polygon fill="#000000" stroke="#000000" points="364.9335,-576.0063 353.9778,-576.4799 360.4667,-578.2531 356,-580.5 356,-580.5 356,-580.5 360.4667,-578.2531 358.0222,-584.5201 364.9335,-576.0063 364.9335,-576.0063"/>
<text text-anchor="start" x="362.591" y="-590.5" font-family="Arial" font-size="10.00" fill="#000000">FOREIGN KEY (character_location_id) REFERENCES character_location(id) ON DELETE SET NULL</text>
</g>
</g>
</svg>
