<?xml version="1.0" encoding="UTF-8" standalone="no"?>
<!DOCTYPE svg PUBLIC "-//W3C//DTD SVG 1.1//EN"
 "http://www.w3.org/Graphics/SVG/1.1/DTD/svg11.dtd">
<!-- Generated by graphviz version 2.40.1 (20161225.0304)
 -->
<!-- Title: public.base_user Pages: 1 -->
<svg width="810pt" height="772pt"
 viewBox="0.00 0.00 810.00 772.00" xmlns="http://www.w3.org/2000/svg" xmlns:xlink="http://www.w3.org/1999/xlink">
<g id="graph0" class="graph" transform="scale(1 1) rotate(0) translate(4 768)">
<title>public.base_user</title>
<polygon fill="#ffffff" stroke="transparent" points="-4,4 -4,-768 806,-768 806,4 -4,4"/>
<!-- public.base_user -->
<g id="node1" class="node">
<title>public.base_user</title>
<polygon fill="#efefef" stroke="transparent" points="428,-195.5 428,-230.5 705,-230.5 705,-195.5 428,-195.5"/>
<polygon fill="none" stroke="#000000" points="428,-195.5 428,-230.5 705,-230.5 705,-195.5 428,-195.5"/>
<text text-anchor="start" x="434.6967" y="-208.3" font-family="Arial Bold" font-size="18.00" fill="#000000">public.base_user</text>
<text text-anchor="start" x="570.7353" y="-208.3" font-family="Arial" font-size="14.00" fill="#000000">    </text>
<text text-anchor="start" x="604.9401" y="-208.3" font-family="Arial" font-size="14.00" fill="#666666">[BASE TABLE]</text>
<polygon fill="none" stroke="#000000" points="428,-165.5 428,-195.5 705,-195.5 705,-165.5 428,-165.5"/>
<text text-anchor="start" x="435" y="-176.9" font-family="Arial" font-size="14.00" fill="#000000">email </text>
<text text-anchor="start" x="472.3296" y="-176.9" font-family="Arial" font-size="14.00" fill="#666666">[varchar(100)]</text>
<polygon fill="none" stroke="#000000" points="428,-135.5 428,-165.5 705,-165.5 705,-135.5 428,-135.5"/>
<text text-anchor="start" x="435" y="-146.9" font-family="Arial" font-size="14.00" fill="#000000">password </text>
<text text-anchor="start" x="498.7882" y="-146.9" font-family="Arial" font-size="14.00" fill="#666666">[varchar(255)]</text>
<polygon fill="none" stroke="#000000" points="428,-105.5 428,-135.5 705,-135.5 705,-105.5 428,-105.5"/>
<text text-anchor="start" x="435" y="-116.9" font-family="Arial" font-size="14.00" fill="#000000">status </text>
<text text-anchor="start" x="476.237" y="-116.9" font-family="Arial" font-size="14.00" fill="#666666">[user_status]</text>
<polygon fill="none" stroke="#000000" points="428,-75.5 428,-105.5 705,-105.5 705,-75.5 428,-75.5"/>
<text text-anchor="start" x="435" y="-86.9" font-family="Arial" font-size="14.00" fill="#000000">id </text>
<text text-anchor="start" x="449.7798" y="-86.9" font-family="Arial" font-size="14.00" fill="#666666">[uuid]</text>
<polygon fill="none" stroke="#000000" points="428,-45.5 428,-75.5 705,-75.5 705,-45.5 428,-45.5"/>
<text text-anchor="start" x="435" y="-56.9" font-family="Arial" font-size="14.00" fill="#000000">created_at </text>
<text text-anchor="start" x="505.028" y="-56.9" font-family="Arial" font-size="14.00" fill="#666666">[timestamp with time zone]</text>
<polygon fill="none" stroke="#000000" stroke-width="3" points="426,-44.5 426,-232.5 706,-232.5 706,-44.5 426,-44.5"/>
</g>
<!-- public.character -->
<g id="node2" class="node">
<title>public.character</title>
<polygon fill="#efefef" stroke="transparent" points="43,-685.5 43,-720.5 323,-720.5 323,-685.5 43,-685.5"/>
<polygon fill="none" stroke="#000000" points="43,-685.5 43,-720.5 323,-720.5 323,-685.5 43,-685.5"/>
<text text-anchor="start" x="55.7057" y="-698.3" font-family="Arial Bold" font-size="18.00" fill="#000000">public.character</text>
<text text-anchor="start" x="182.7263" y="-698.3" font-family="Arial" font-size="14.00" fill="#000000">    </text>
<text text-anchor="start" x="216.9311" y="-698.3" font-family="Arial" font-size="14.00" fill="#666666">[BASE TABLE]</text>
<polygon fill="none" stroke="#000000" points="43,-655.5 43,-685.5 323,-685.5 323,-655.5 43,-655.5"/>
<text text-anchor="start" x="50" y="-666.9" font-family="Arial" font-size="14.00" fill="#000000">base_class_id    </text>
<text text-anchor="start" x="172.8962" y="-666.9" font-family="Arial" font-size="14.00" fill="#666666">[uuid]</text>
<polygon fill="none" stroke="#000000" points="43,-625.5 43,-655.5 323,-655.5 323,-625.5 43,-625.5"/>
<text text-anchor="start" x="50" y="-636.9" font-family="Arial" font-size="14.00" fill="#000000">user_id    </text>
<text text-anchor="start" x="130.1024" y="-636.9" font-family="Arial" font-size="14.00" fill="#666666">[uuid]</text>
<polygon fill="none" stroke="#000000" points="43,-595.5 43,-625.5 323,-625.5 323,-595.5 43,-595.5"/>
<text text-anchor="start" x="50" y="-606.9" font-family="Arial" font-size="14.00" fill="#000000">character_location_id    </text>
<text text-anchor="start" x="217.2356" y="-606.9" font-family="Arial" font-size="14.00" fill="#666666">[uuid]</text>
<polygon fill="none" stroke="#000000" points="43,-565.5 43,-595.5 323,-595.5 323,-565.5 43,-565.5"/>
<text text-anchor="start" x="50" y="-576.9" font-family="Arial" font-size="14.00" fill="#000000">gender    </text>
<text text-anchor="start" x="127.7784" y="-576.9" font-family="Arial" font-size="14.00" fill="#666666">[gender]</text>
<polygon fill="none" stroke="#000000" points="43,-535.5 43,-565.5 323,-565.5 323,-535.5 43,-535.5"/>
<text text-anchor="start" x="50" y="-546.9" font-family="Arial" font-size="14.00" fill="#000000">character_name    </text>
<text text-anchor="start" x="185.338" y="-546.9" font-family="Arial" font-size="14.00" fill="#666666">[varchar(50)]</text>
<polygon fill="none" stroke="#000000" points="43,-505.5 43,-535.5 323,-535.5 323,-505.5 43,-505.5"/>
<text text-anchor="start" x="50" y="-516.9" font-family="Arial" font-size="14.00" fill="#000000">alive    </text>
<text text-anchor="start" x="112.9832" y="-516.9" font-family="Arial" font-size="14.00" fill="#666666">[boolean]</text>
<polygon fill="none" stroke="#000000" points="43,-475.5 43,-505.5 323,-505.5 323,-475.5 43,-475.5"/>
<text text-anchor="start" x="50" y="-486.9" font-family="Arial" font-size="14.00" fill="#000000">level    </text>
<text text-anchor="start" x="112.9832" y="-486.9" font-family="Arial" font-size="14.00" fill="#666666">[integer]</text>
<polygon fill="none" stroke="#000000" points="43,-445.5 43,-475.5 323,-475.5 323,-445.5 43,-445.5"/>
<text text-anchor="start" x="50" y="-456.9" font-family="Arial" font-size="14.00" fill="#000000">xp    </text>
<text text-anchor="start" x="98.9874" y="-456.9" font-family="Arial" font-size="14.00" fill="#666666">[integer]</text>
<polygon fill="none" stroke="#000000" points="43,-415.5 43,-445.5 323,-445.5 323,-415.5 43,-415.5"/>
<text text-anchor="start" x="50" y="-426.9" font-family="Arial" font-size="14.00" fill="#000000">money    </text>
<text text-anchor="start" x="126.2132" y="-426.9" font-family="Arial" font-size="14.00" fill="#666666">[integer]</text>
<polygon fill="none" stroke="#000000" points="43,-385.5 43,-415.5 323,-415.5 323,-385.5 43,-385.5"/>
<text text-anchor="start" x="50" y="-396.9" font-family="Arial" font-size="14.00" fill="#000000">id    </text>
<text text-anchor="start" x="95.094" y="-396.9" font-family="Arial" font-size="14.00" fill="#666666">[uuid]</text>
<polygon fill="none" stroke="#000000" points="43,-355.5 43,-385.5 323,-385.5 323,-355.5 43,-355.5"/>
<text text-anchor="start" x="49.9867" y="-366.9" font-family="Arial" font-size="14.00" fill="#000000">created_at    </text>
<text text-anchor="start" x="150.3289" y="-366.9" font-family="Arial" font-size="14.00" fill="#666666">[timestamp with time zone]</text>
</g>
<!-- public.character&#45;&gt;public.base_user -->
<g id="edge1" class="edge">
<title>public.character:user_id&#45;&gt;public.base_user:id</title>
<path fill="none" stroke="#000000" d="M333.0283,-638.7256C393.2924,-616.0127 361.3737,-381.754 375,-313 394.7627,-213.2838 326.3443,-90.5 428,-90.5"/>
<polygon fill="#000000" stroke="#000000" points="332.847,-638.7576 322.2159,-636.0688 327.9235,-639.6288 323,-640.5 323,-640.5 323,-640.5 327.9235,-639.6288 323.7841,-644.9312 332.847,-638.7576 332.847,-638.7576"/>
<text text-anchor="start" x="329.9355" y="-650.5" font-family="Arial" font-size="10.00" fill="#000000">FOREIGN KEY (user_id) REFERENCES base_user(id) ON DELETE CASCADE</text>
</g>
<!-- public.relation -->
<g id="node3" class="node">
<title>public.relation</title>
<polygon fill="#efefef" stroke="transparent" points="427,-580.5 427,-615.5 707,-615.5 707,-580.5 427,-580.5"/>
<polygon fill="none" stroke="#000000" points="427,-580.5 427,-615.5 707,-615.5 707,-580.5 427,-580.5"/>
<text text-anchor="start" x="447.7076" y="-593.3" font-family="Arial Bold" font-size="18.00" fill="#000000">public.relation</text>
<text text-anchor="start" x="558.7244" y="-593.3" font-family="Arial" font-size="14.00" fill="#000000">    </text>
<text text-anchor="start" x="592.9292" y="-593.3" font-family="Arial" font-size="14.00" fill="#666666">[BASE TABLE]</text>
<polygon fill="none" stroke="#000000" points="427,-550.5 427,-580.5 707,-580.5 707,-550.5 427,-550.5"/>
<text text-anchor="start" x="434" y="-561.9" font-family="Arial" font-size="14.00" fill="#000000">user1_id    </text>
<text text-anchor="start" x="521.885" y="-561.9" font-family="Arial" font-size="14.00" fill="#666666">[uuid]</text>
<polygon fill="none" stroke="#000000" points="427,-520.5 427,-550.5 707,-550.5 707,-520.5 427,-520.5"/>
<text text-anchor="start" x="434" y="-531.9" font-family="Arial" font-size="14.00" fill="#000000">user2_id    </text>
<text text-anchor="start" x="521.885" y="-531.9" font-family="Arial" font-size="14.00" fill="#666666">[uuid]</text>
<polygon fill="none" stroke="#000000" points="427,-490.5 427,-520.5 707,-520.5 707,-490.5 427,-490.5"/>
<text text-anchor="start" x="434" y="-501.9" font-family="Arial" font-size="14.00" fill="#000000">id    </text>
<text text-anchor="start" x="479.094" y="-501.9" font-family="Arial" font-size="14.00" fill="#666666">[uuid]</text>
<polygon fill="none" stroke="#000000" points="427,-460.5 427,-490.5 707,-490.5 707,-460.5 427,-460.5"/>
<text text-anchor="start" x="433.9867" y="-471.9" font-family="Arial" font-size="14.00" fill="#000000">created_at    </text>
<text text-anchor="start" x="534.3289" y="-471.9" font-family="Arial" font-size="14.00" fill="#666666">[timestamp with time zone]</text>
</g>
<!-- public.relation&#45;&gt;public.base_user -->
<g id="edge2" class="edge">
<title>public.relation:user1_id&#45;&gt;public.base_user:id</title>
<path fill="none" stroke="#000000" d="M416.7754,-564.6412C364.9944,-555.2341 394.6386,-470.6994 427,-418 499.4959,-299.9431 632.5041,-395.0569 705,-277 748.3748,-206.3657 787.8889,-90.5 705,-90.5"/>
<polygon fill="#000000" stroke="#000000" points="417.0351,-564.6629 426.6233,-569.9842 422.0175,-565.0815 427,-565.5 427,-565.5 427,-565.5 422.0175,-565.0815 427.3767,-561.0158 417.0351,-564.6629 417.0351,-564.6629"/>
<text text-anchor="start" x="434.156" y="-575.5" font-family="Arial" font-size="10.00" fill="#000000">FOREIGN KEY (user1_id) REFERENCES base_user(id) ON DELETE CASCADE</text>
</g>
<!-- public.relation&#45;&gt;public.base_user -->
<g id="edge3" class="edge">
<title>public.relation:user2_id&#45;&gt;public.base_user:id</title>
<path fill="none" stroke="#000000" d="M416.6162,-534.3352C378.4865,-524.8213 401.7009,-459.1986 427,-418 499.4959,-299.9431 632.5041,-395.0569 705,-277 748.3748,-206.3657 787.8889,-90.5 705,-90.5"/>
<polygon fill="#000000" stroke="#000000" points="417.0623,-534.3851 426.4983,-539.972 422.0312,-534.9426 427,-535.5 427,-535.5 427,-535.5 422.0312,-534.9426 427.5017,-531.028 417.0623,-534.3851 417.0623,-534.3851"/>
<text text-anchor="start" x="434.156" y="-545.5" font-family="Arial" font-size="10.00" fill="#000000">FOREIGN KEY (user2_id) REFERENCES base_user(id) ON DELETE CASCADE</text>
</g>
</g>
</svg>
