<?xml version="1.0" encoding="UTF-8" standalone="no"?>
<!DOCTYPE svg PUBLIC "-//W3C//DTD SVG 1.1//EN"
 "http://www.w3.org/Graphics/SVG/1.1/DTD/svg11.dtd">
<!-- Generated by graphviz version 2.40.1 (20161225.0304)
 -->
<!-- Title: public.attribute Pages: 1 -->
<svg width="660pt" height="592pt"
 viewBox="0.00 0.00 659.50 592.00" xmlns="http://www.w3.org/2000/svg" xmlns:xlink="http://www.w3.org/1999/xlink">
<g id="graph0" class="graph" transform="scale(1 1) rotate(0) translate(4 588)">
<title>public.attribute</title>
<polygon fill="#ffffff" stroke="transparent" points="-4,4 -4,-588 655.5,-588 655.5,4 -4,4"/>
<!-- public.attribute -->
<g id="node1" class="node">
<title>public.attribute</title>
<polygon fill="#efefef" stroke="transparent" points="86.5,-195.5 86.5,-230.5 344.5,-230.5 344.5,-195.5 86.5,-195.5"/>
<polygon fill="none" stroke="#000000" points="86.5,-195.5 86.5,-230.5 344.5,-230.5 344.5,-195.5 86.5,-195.5"/>
<text text-anchor="start" x="93.2025" y="-208.3" font-family="Arial Bold" font-size="18.00" fill="#000000">public.attribute</text>
<text text-anchor="start" x="210.2295" y="-208.3" font-family="Arial" font-size="14.00" fill="#000000">    </text>
<text text-anchor="start" x="244.4343" y="-208.3" font-family="Arial" font-size="14.00" fill="#666666">[BASE TABLE]</text>
<polygon fill="none" stroke="#000000" points="86.5,-165.5 86.5,-195.5 344.5,-195.5 344.5,-165.5 86.5,-165.5"/>
<text text-anchor="start" x="93.5" y="-176.9" font-family="Arial" font-size="14.00" fill="#000000">name </text>
<text text-anchor="start" x="132.399" y="-176.9" font-family="Arial" font-size="14.00" fill="#666666">[varchar(50)]</text>
<polygon fill="none" stroke="#000000" points="86.5,-135.5 86.5,-165.5 344.5,-165.5 344.5,-135.5 86.5,-135.5"/>
<text text-anchor="start" x="93.5" y="-146.9" font-family="Arial" font-size="14.00" fill="#000000">description </text>
<text text-anchor="start" x="165.068" y="-146.9" font-family="Arial" font-size="14.00" fill="#666666">[varchar(500)]</text>
<polygon fill="none" stroke="#000000" points="86.5,-105.5 86.5,-135.5 344.5,-135.5 344.5,-105.5 86.5,-105.5"/>
<text text-anchor="start" x="93.5" y="-116.9" font-family="Arial" font-size="14.00" fill="#000000">id </text>
<text text-anchor="start" x="108.2798" y="-116.9" font-family="Arial" font-size="14.00" fill="#666666">[uuid]</text>
<polygon fill="none" stroke="#000000" points="86.5,-75.5 86.5,-105.5 344.5,-105.5 344.5,-75.5 86.5,-75.5"/>
<text text-anchor="start" x="93.5" y="-86.9" font-family="Arial" font-size="14.00" fill="#000000">created_at </text>
<text text-anchor="start" x="163.528" y="-86.9" font-family="Arial" font-size="14.00" fill="#666666">[timestamp with time zone]</text>
<polygon fill="none" stroke="#000000" points="86.5,-45.5 86.5,-75.5 344.5,-75.5 344.5,-45.5 86.5,-45.5"/>
<text text-anchor="start" x="93.5" y="-56.9" font-family="Arial" font-size="14.00" fill="#000000">ts_vector </text>
<text text-anchor="start" x="154.1802" y="-56.9" font-family="Arial" font-size="14.00" fill="#666666">[tsvector]</text>
<polygon fill="none" stroke="#000000" stroke-width="3" points="85,-44.5 85,-232.5 346,-232.5 346,-44.5 85,-44.5"/>
</g>
<!-- public.character_attribute -->
<g id="node2" class="node">
<title>public.character_attribute</title>
<polygon fill="#efefef" stroke="transparent" points="43.5,-505.5 43.5,-540.5 386.5,-540.5 386.5,-505.5 43.5,-505.5"/>
<polygon fill="none" stroke="#000000" points="43.5,-505.5 43.5,-540.5 386.5,-540.5 386.5,-505.5 43.5,-505.5"/>
<text text-anchor="start" x="50.1937" y="-518.3" font-family="Arial Bold" font-size="18.00" fill="#000000">public.character_attribute</text>
<text text-anchor="start" x="252.2383" y="-518.3" font-family="Arial" font-size="14.00" fill="#000000">    </text>
<text text-anchor="start" x="286.4431" y="-518.3" font-family="Arial" font-size="14.00" fill="#666666">[BASE TABLE]</text>
<polygon fill="none" stroke="#000000" points="43.5,-475.5 43.5,-505.5 386.5,-505.5 386.5,-475.5 43.5,-475.5"/>
<text text-anchor="start" x="50.5" y="-486.9" font-family="Arial" font-size="14.00" fill="#000000">character_id    </text>
<text text-anchor="start" x="161.7188" y="-486.9" font-family="Arial" font-size="14.00" fill="#666666">[uuid]</text>
<polygon fill="none" stroke="#000000" points="43.5,-445.5 43.5,-475.5 386.5,-475.5 386.5,-445.5 43.5,-445.5"/>
<text text-anchor="start" x="50.5" y="-456.9" font-family="Arial" font-size="14.00" fill="#000000">attribute_id    </text>
<text text-anchor="start" x="153.946" y="-456.9" font-family="Arial" font-size="14.00" fill="#666666">[uuid]</text>
<polygon fill="none" stroke="#000000" points="43.5,-415.5 43.5,-445.5 386.5,-445.5 386.5,-415.5 43.5,-415.5"/>
<text text-anchor="start" x="50.5" y="-426.9" font-family="Arial" font-size="14.00" fill="#000000">value    </text>
<text text-anchor="start" x="118.1592" y="-426.9" font-family="Arial" font-size="14.00" fill="#666666">[integer]</text>
<polygon fill="none" stroke="#000000" points="43.5,-385.5 43.5,-415.5 386.5,-415.5 386.5,-385.5 43.5,-385.5"/>
<text text-anchor="start" x="50.5" y="-396.9" font-family="Arial" font-size="14.00" fill="#000000">id    </text>
<text text-anchor="start" x="95.594" y="-396.9" font-family="Arial" font-size="14.00" fill="#666666">[uuid]</text>
<polygon fill="none" stroke="#000000" points="43.5,-355.5 43.5,-385.5 386.5,-385.5 386.5,-355.5 43.5,-355.5"/>
<text text-anchor="start" x="50.5" y="-366.9" font-family="Arial" font-size="14.00" fill="#000000">created_at    </text>
<text text-anchor="start" x="150.8422" y="-366.9" font-family="Arial" font-size="14.00" fill="#666666">[timestamp with time zone]</text>
</g>
<!-- public.character_attribute&#45;&gt;public.attribute -->
<g id="edge1" class="edge">
<title>public.character_attribute:attribute_id&#45;&gt;public.attribute:id</title>
<path fill="none" stroke="#000000" d="M396.48,-459.6408C449.5797,-449.8786 427.6265,-359.3568 386.5,-313 297.3789,-212.545 175.6211,-377.455 86.5,-277 40.3397,-224.9693 16.9444,-120.5 86.5,-120.5"/>
<polygon fill="#000000" stroke="#000000" points="396.4631,-459.6421 386.114,-456.0166 391.4816,-460.0711 386.5,-460.5 386.5,-460.5 386.5,-460.5 391.4816,-460.0711 386.886,-464.9834 396.4631,-459.6421 396.4631,-459.6421"/>
<text text-anchor="start" x="393.6605" y="-470.5" font-family="Arial" font-size="10.00" fill="#000000">FOREIGN KEY (attribute_id) REFERENCES attribute(id)</text>
</g>
</g>
</svg>
