<?xml version="1.0" encoding="UTF-8" standalone="no"?>
<!DOCTYPE svg PUBLIC "-//W3C//DTD SVG 1.1//EN"
 "http://www.w3.org/Graphics/SVG/1.1/DTD/svg11.dtd">
<!-- Generated by graphviz version 2.40.1 (20161225.0304)
 -->
<!-- Title: public.ability Pages: 1 -->
<svg width="725pt" height="899pt"
 viewBox="0.00 0.00 725.00 899.00" xmlns="http://www.w3.org/2000/svg" xmlns:xlink="http://www.w3.org/1999/xlink">
<g id="graph0" class="graph" transform="scale(1 1) rotate(0) translate(4 895)">
<title>public.ability</title>
<polygon fill="#ffffff" stroke="transparent" points="-4,4 -4,-895 721,-895 721,4 -4,4"/>
<!-- public.ability -->
<g id="node1" class="node">
<title>public.ability</title>
<polygon fill="#efefef" stroke="transparent" points="404,-532.5 404,-567.5 653,-567.5 653,-532.5 404,-532.5"/>
<polygon fill="none" stroke="#000000" points="404,-532.5 404,-567.5 653,-567.5 653,-532.5 404,-532.5"/>
<text text-anchor="start" x="415.7128" y="-545.3" font-family="Arial Bold" font-size="18.00" fill="#000000">public.ability</text>
<text text-anchor="start" x="513.7192" y="-545.3" font-family="Arial" font-size="14.00" fill="#000000">    </text>
<text text-anchor="start" x="547.924" y="-545.3" font-family="Arial" font-size="14.00" fill="#666666">[BASE TABLE]</text>
<polygon fill="none" stroke="#000000" points="404,-502.5 404,-532.5 653,-532.5 653,-502.5 404,-502.5"/>
<text text-anchor="start" x="411" y="-513.9" font-family="Arial" font-size="14.00" fill="#000000">name </text>
<text text-anchor="start" x="449.899" y="-513.9" font-family="Arial" font-size="14.00" fill="#666666">[varchar(50)]</text>
<polygon fill="none" stroke="#000000" points="404,-472.5 404,-502.5 653,-502.5 653,-472.5 404,-472.5"/>
<text text-anchor="start" x="411" y="-483.9" font-family="Arial" font-size="14.00" fill="#000000">ability_type_id </text>
<text text-anchor="start" x="503.5764" y="-483.9" font-family="Arial" font-size="14.00" fill="#666666">[uuid]</text>
<polygon fill="none" stroke="#000000" points="404,-442.5 404,-472.5 653,-472.5 653,-442.5 404,-442.5"/>
<text text-anchor="start" x="411" y="-453.9" font-family="Arial" font-size="14.00" fill="#000000">id </text>
<text text-anchor="start" x="425.7798" y="-453.9" font-family="Arial" font-size="14.00" fill="#666666">[uuid]</text>
<polygon fill="none" stroke="#000000" points="404,-412.5 404,-442.5 653,-442.5 653,-412.5 404,-412.5"/>
<text text-anchor="start" x="410.6438" y="-423.9" font-family="Arial" font-size="14.00" fill="#000000">created_at </text>
<text text-anchor="start" x="480.6718" y="-423.9" font-family="Arial" font-size="14.00" fill="#666666">[timestamp with time zone]</text>
<polygon fill="none" stroke="#000000" points="404,-382.5 404,-412.5 653,-412.5 653,-382.5 404,-382.5"/>
<text text-anchor="start" x="411" y="-393.9" font-family="Arial" font-size="14.00" fill="#000000">description </text>
<text text-anchor="start" x="482.568" y="-393.9" font-family="Arial" font-size="14.00" fill="#666666">[varchar(500)]</text>
<polygon fill="none" stroke="#000000" points="404,-352.5 404,-382.5 653,-382.5 653,-352.5 404,-352.5"/>
<text text-anchor="start" x="411" y="-363.9" font-family="Arial" font-size="14.00" fill="#000000">ts_vector </text>
<text text-anchor="start" x="471.6802" y="-363.9" font-family="Arial" font-size="14.00" fill="#666666">[tsvector]</text>
<polygon fill="none" stroke="#000000" stroke-width="3" points="402,-351.5 402,-569.5 654,-569.5 654,-351.5 402,-351.5"/>
</g>
<!-- public.ability_type -->
<g id="node2" class="node">
<title>public.ability_type</title>
<polygon fill="#efefef" stroke="transparent" points="387,-192.5 387,-227.5 670,-227.5 670,-192.5 387,-192.5"/>
<polygon fill="none" stroke="#000000" points="387,-192.5 387,-227.5 670,-227.5 670,-192.5 387,-192.5"/>
<text text-anchor="start" x="393.7024" y="-205.3" font-family="Arial Bold" font-size="18.00" fill="#000000">public.ability_type</text>
<text text-anchor="start" x="535.7296" y="-205.3" font-family="Arial" font-size="14.00" fill="#000000">    </text>
<text text-anchor="start" x="569.9344" y="-205.3" font-family="Arial" font-size="14.00" fill="#666666">[BASE TABLE]</text>
<polygon fill="none" stroke="#000000" points="387,-162.5 387,-192.5 670,-192.5 670,-162.5 387,-162.5"/>
<text text-anchor="start" x="394" y="-173.9" font-family="Arial" font-size="14.00" fill="#000000">name    </text>
<text text-anchor="start" x="463.2132" y="-173.9" font-family="Arial" font-size="14.00" fill="#666666">[varchar(50)]</text>
<polygon fill="none" stroke="#000000" points="387,-132.5 387,-162.5 670,-162.5 670,-132.5 387,-132.5"/>
<text text-anchor="start" x="394" y="-143.9" font-family="Arial" font-size="14.00" fill="#000000">description    </text>
<text text-anchor="start" x="495.8822" y="-143.9" font-family="Arial" font-size="14.00" fill="#666666">[varchar(500)]</text>
<polygon fill="none" stroke="#000000" points="387,-102.5 387,-132.5 670,-132.5 670,-102.5 387,-102.5"/>
<text text-anchor="start" x="394" y="-113.9" font-family="Arial" font-size="14.00" fill="#000000">id    </text>
<text text-anchor="start" x="439.094" y="-113.9" font-family="Arial" font-size="14.00" fill="#666666">[uuid]</text>
<polygon fill="none" stroke="#000000" points="387,-72.5 387,-102.5 670,-102.5 670,-72.5 387,-72.5"/>
<text text-anchor="start" x="394" y="-83.9" font-family="Arial" font-size="14.00" fill="#000000">created_at    </text>
<text text-anchor="start" x="494.3422" y="-83.9" font-family="Arial" font-size="14.00" fill="#666666">[timestamp with time zone]</text>
<polygon fill="none" stroke="#000000" points="387,-42.5 387,-72.5 670,-72.5 670,-42.5 387,-42.5"/>
<text text-anchor="start" x="394" y="-53.9" font-family="Arial" font-size="14.00" fill="#000000">ts_vector    </text>
<text text-anchor="start" x="484.9944" y="-53.9" font-family="Arial" font-size="14.00" fill="#666666">[tsvector]</text>
</g>
<!-- public.ability&#45;&gt;public.ability_type -->
<g id="edge1" class="edge">
<title>public.ability:ability_type_id&#45;&gt;public.ability_type:id</title>
<path fill="none" stroke="#000000" d="M393.7543,-485.5093C320.4135,-456.3863 308.2278,-117.5 387,-117.5"/>
<polygon fill="#000000" stroke="#000000" points="394.1836,-485.5926 403.1417,-491.9174 399.0918,-486.5463 404,-487.5 404,-487.5 404,-487.5 399.0918,-486.5463 404.8583,-483.0826 394.1836,-485.5926 394.1836,-485.5926"/>
<text text-anchor="start" x="6.9905" y="-497.5" font-family="Arial" font-size="10.00" fill="#000000">FOREIGN KEY (ability_type_id) REFERENCES ability_type(id) ON DELETE CASCADE</text>
</g>
<!-- public.class_ability -->
<g id="node3" class="node">
<title>public.class_ability</title>
<polygon fill="#efefef" stroke="transparent" points="384,-812.5 384,-847.5 674,-847.5 674,-812.5 384,-812.5"/>
<polygon fill="none" stroke="#000000" points="384,-812.5 384,-847.5 674,-847.5 674,-812.5 384,-812.5"/>
<text text-anchor="start" x="390.7095" y="-825.3" font-family="Arial Bold" font-size="18.00" fill="#000000">public.class_ability</text>
<text text-anchor="start" x="539.7225" y="-825.3" font-family="Arial" font-size="14.00" fill="#000000">    </text>
<text text-anchor="start" x="573.9273" y="-825.3" font-family="Arial" font-size="14.00" fill="#666666">[BASE TABLE]</text>
<polygon fill="none" stroke="#000000" points="384,-782.5 384,-812.5 674,-812.5 674,-782.5 384,-782.5"/>
<text text-anchor="start" x="391" y="-793.9" font-family="Arial" font-size="14.00" fill="#000000">base_class_id    </text>
<text text-anchor="start" x="513.8962" y="-793.9" font-family="Arial" font-size="14.00" fill="#666666">[uuid]</text>
<polygon fill="none" stroke="#000000" points="384,-752.5 384,-782.5 674,-782.5 674,-752.5 384,-752.5"/>
<text text-anchor="start" x="391" y="-763.9" font-family="Arial" font-size="14.00" fill="#000000">ability_id    </text>
<text text-anchor="start" x="479.6522" y="-763.9" font-family="Arial" font-size="14.00" fill="#666666">[uuid]</text>
<polygon fill="none" stroke="#000000" points="384,-722.5 384,-752.5 674,-752.5 674,-722.5 384,-722.5"/>
<text text-anchor="start" x="391" y="-733.9" font-family="Arial" font-size="14.00" fill="#000000">id    </text>
<text text-anchor="start" x="436.094" y="-733.9" font-family="Arial" font-size="14.00" fill="#666666">[uuid]</text>
<polygon fill="none" stroke="#000000" points="384,-692.5 384,-722.5 674,-722.5 674,-692.5 384,-692.5"/>
<text text-anchor="start" x="391" y="-703.9" font-family="Arial" font-size="14.00" fill="#000000">created_at    </text>
<text text-anchor="start" x="491.3422" y="-703.9" font-family="Arial" font-size="14.00" fill="#666666">[timestamp with time zone]</text>
</g>
<!-- public.class_ability&#45;&gt;public.ability -->
<g id="edge2" class="edge">
<title>public.class_ability:ability_id&#45;&gt;public.ability:id</title>
<path fill="none" stroke="#000000" d="M374.0048,-766.3809C334.3672,-756.6954 352.0276,-686.5363 384,-650 463.4342,-559.227 573.5658,-704.773 653,-614 698.8052,-561.6564 722.5556,-457.5 653,-457.5"/>
<polygon fill="#000000" stroke="#000000" points="374.0621,-766.3872 383.4992,-771.9721 379.031,-766.9436 384,-767.5 384,-767.5 384,-767.5 379.031,-766.9436 384.5008,-763.0279 374.0621,-766.3872 374.0621,-766.3872"/>
<text text-anchor="start" x="36.4465" y="-777.5" font-family="Arial" font-size="10.00" fill="#000000">FOREIGN KEY (ability_id) REFERENCES ability(id) ON DELETE CASCADE</text>
</g>
</g>
</svg>
