<?xml version="1.0" encoding="UTF-8" standalone="no"?>
<!DOCTYPE svg PUBLIC "-//W3C//DTD SVG 1.1//EN"
 "http://www.w3.org/Graphics/SVG/1.1/DTD/svg11.dtd">
<!-- Generated by graphviz version 2.40.1 (20161225.0304)
 -->
<!-- Title: public.character Pages: 1 -->
<svg width="1206pt" height="1079pt"
 viewBox="0.00 0.00 1205.50 1079.00" xmlns="http://www.w3.org/2000/svg" xmlns:xlink="http://www.w3.org/1999/xlink">
<g id="graph0" class="graph" transform="scale(1 1) rotate(0) translate(4 1075)">
<title>public.character</title>
<polygon fill="#ffffff" stroke="transparent" points="-4,4 -4,-1075 1201.5,-1075 1201.5,4 -4,4"/>
<!-- public.character -->
<g id="node1" class="node">
<title>public.character</title>
<polygon fill="#efefef" stroke="transparent" points="436.5,-682.5 436.5,-717.5 704.5,-717.5 704.5,-682.5 436.5,-682.5"/>
<polygon fill="none" stroke="#000000" points="436.5,-682.5 436.5,-717.5 704.5,-717.5 704.5,-682.5 436.5,-682.5"/>
<text text-anchor="start" x="443.2057" y="-695.3" font-family="Arial Bold" font-size="18.00" fill="#000000">public.character</text>
<text text-anchor="start" x="570.2263" y="-695.3" font-family="Arial" font-size="14.00" fill="#000000">    </text>
<text text-anchor="start" x="604.4311" y="-695.3" font-family="Arial" font-size="14.00" fill="#666666">[BASE TABLE]</text>
<polygon fill="none" stroke="#000000" points="436.5,-652.5 436.5,-682.5 704.5,-682.5 704.5,-652.5 436.5,-652.5"/>
<text text-anchor="start" x="443.5" y="-663.9" font-family="Arial" font-size="14.00" fill="#000000">base_class_id </text>
<text text-anchor="start" x="536.082" y="-663.9" font-family="Arial" font-size="14.00" fill="#666666">[uuid]</text>
<polygon fill="none" stroke="#000000" points="436.5,-622.5 436.5,-652.5 704.5,-652.5 704.5,-622.5 436.5,-622.5"/>
<text text-anchor="start" x="443.5" y="-633.9" font-family="Arial" font-size="14.00" fill="#000000">user_id </text>
<text text-anchor="start" x="493.2882" y="-633.9" font-family="Arial" font-size="14.00" fill="#666666">[uuid]</text>
<polygon fill="none" stroke="#000000" points="436.5,-592.5 436.5,-622.5 704.5,-622.5 704.5,-592.5 436.5,-592.5"/>
<text text-anchor="start" x="443.5" y="-603.9" font-family="Arial" font-size="14.00" fill="#000000">character_location_id </text>
<text text-anchor="start" x="580.4214" y="-603.9" font-family="Arial" font-size="14.00" fill="#666666">[uuid]</text>
<polygon fill="none" stroke="#000000" points="436.5,-562.5 436.5,-592.5 704.5,-592.5 704.5,-562.5 436.5,-562.5"/>
<text text-anchor="start" x="443.5" y="-573.9" font-family="Arial" font-size="14.00" fill="#000000">gender </text>
<text text-anchor="start" x="490.9642" y="-573.9" font-family="Arial" font-size="14.00" fill="#666666">[gender]</text>
<polygon fill="none" stroke="#000000" points="436.5,-532.5 436.5,-562.5 704.5,-562.5 704.5,-532.5 436.5,-532.5"/>
<text text-anchor="start" x="443.5" y="-543.9" font-family="Arial" font-size="14.00" fill="#000000">character_name </text>
<text text-anchor="start" x="548.5238" y="-543.9" font-family="Arial" font-size="14.00" fill="#666666">[varchar(50)]</text>
<polygon fill="none" stroke="#000000" points="436.5,-502.5 436.5,-532.5 704.5,-532.5 704.5,-502.5 436.5,-502.5"/>
<text text-anchor="start" x="443.5" y="-513.9" font-family="Arial" font-size="14.00" fill="#000000">alive </text>
<text text-anchor="start" x="476.169" y="-513.9" font-family="Arial" font-size="14.00" fill="#666666">[boolean]</text>
<polygon fill="none" stroke="#000000" points="436.5,-472.5 436.5,-502.5 704.5,-502.5 704.5,-472.5 436.5,-472.5"/>
<text text-anchor="start" x="443.5" y="-483.9" font-family="Arial" font-size="14.00" fill="#000000">level </text>
<text text-anchor="start" x="476.169" y="-483.9" font-family="Arial" font-size="14.00" fill="#666666">[integer]</text>
<polygon fill="none" stroke="#000000" points="436.5,-442.5 436.5,-472.5 704.5,-472.5 704.5,-442.5 436.5,-442.5"/>
<text text-anchor="start" x="443.5" y="-453.9" font-family="Arial" font-size="14.00" fill="#000000">xp </text>
<text text-anchor="start" x="462.1732" y="-453.9" font-family="Arial" font-size="14.00" fill="#666666">[integer]</text>
<polygon fill="none" stroke="#000000" points="436.5,-412.5 436.5,-442.5 704.5,-442.5 704.5,-412.5 436.5,-412.5"/>
<text text-anchor="start" x="443.5" y="-423.9" font-family="Arial" font-size="14.00" fill="#000000">money </text>
<text text-anchor="start" x="489.399" y="-423.9" font-family="Arial" font-size="14.00" fill="#666666">[integer]</text>
<polygon fill="none" stroke="#000000" points="436.5,-382.5 436.5,-412.5 704.5,-412.5 704.5,-382.5 436.5,-382.5"/>
<text text-anchor="start" x="443.5" y="-393.9" font-family="Arial" font-size="14.00" fill="#000000">id </text>
<text text-anchor="start" x="458.2798" y="-393.9" font-family="Arial" font-size="14.00" fill="#666666">[uuid]</text>
<polygon fill="none" stroke="#000000" points="436.5,-352.5 436.5,-382.5 704.5,-382.5 704.5,-352.5 436.5,-352.5"/>
<text text-anchor="start" x="443.5" y="-363.9" font-family="Arial" font-size="14.00" fill="#000000">created_at </text>
<text text-anchor="start" x="513.528" y="-363.9" font-family="Arial" font-size="14.00" fill="#666666">[timestamp with time zone]</text>
<polygon fill="none" stroke="#000000" stroke-width="3" points="435,-351.5 435,-719.5 706,-719.5 706,-351.5 435,-351.5"/>
</g>
<!-- public.base_class -->
<g id="node2" class="node">
<title>public.base_class</title>
<polygon fill="#efefef" stroke="transparent" points="43.5,-192.5 43.5,-227.5 326.5,-227.5 326.5,-192.5 43.5,-192.5"/>
<polygon fill="none" stroke="#000000" points="43.5,-192.5 43.5,-227.5 326.5,-227.5 326.5,-192.5 43.5,-192.5"/>
<text text-anchor="start" x="50.1988" y="-205.3" font-family="Arial Bold" font-size="18.00" fill="#000000">public.base_class</text>
<text text-anchor="start" x="192.2332" y="-205.3" font-family="Arial" font-size="14.00" fill="#000000">    </text>
<text text-anchor="start" x="226.438" y="-205.3" font-family="Arial" font-size="14.00" fill="#666666">[BASE TABLE]</text>
<polygon fill="none" stroke="#000000" points="43.5,-162.5 43.5,-192.5 326.5,-192.5 326.5,-162.5 43.5,-162.5"/>
<text text-anchor="start" x="50.5" y="-173.9" font-family="Arial" font-size="14.00" fill="#000000">name    </text>
<text text-anchor="start" x="119.7132" y="-173.9" font-family="Arial" font-size="14.00" fill="#666666">[varchar(50)]</text>
<polygon fill="none" stroke="#000000" points="43.5,-132.5 43.5,-162.5 326.5,-162.5 326.5,-132.5 43.5,-132.5"/>
<text text-anchor="start" x="50.5" y="-143.9" font-family="Arial" font-size="14.00" fill="#000000">id    </text>
<text text-anchor="start" x="95.594" y="-143.9" font-family="Arial" font-size="14.00" fill="#666666">[uuid]</text>
<polygon fill="none" stroke="#000000" points="43.5,-102.5 43.5,-132.5 326.5,-132.5 326.5,-102.5 43.5,-102.5"/>
<text text-anchor="start" x="50.5" y="-113.9" font-family="Arial" font-size="14.00" fill="#000000">created_at    </text>
<text text-anchor="start" x="150.8422" y="-113.9" font-family="Arial" font-size="14.00" fill="#666666">[timestamp with time zone]</text>
<polygon fill="none" stroke="#000000" points="43.5,-72.5 43.5,-102.5 326.5,-102.5 326.5,-72.5 43.5,-72.5"/>
<text text-anchor="start" x="50.5" y="-83.9" font-family="Arial" font-size="14.00" fill="#000000">description    </text>
<text text-anchor="start" x="152.3822" y="-83.9" font-family="Arial" font-size="14.00" fill="#666666">[varchar(500)]</text>
<polygon fill="none" stroke="#000000" points="43.5,-42.5 43.5,-72.5 326.5,-72.5 326.5,-42.5 43.5,-42.5"/>
<text text-anchor="start" x="50.5" y="-53.9" font-family="Arial" font-size="14.00" fill="#000000">ts_vector    </text>
<text text-anchor="start" x="141.4944" y="-53.9" font-family="Arial" font-size="14.00" fill="#666666">[tsvector]</text>
</g>
<!-- public.character&#45;&gt;public.base_class -->
<g id="edge1" class="edge">
<title>public.character:base_class_id&#45;&gt;public.base_class:id</title>
<path fill="none" stroke="#000000" d="M427.3917,-663.0046C378.1301,-612.1802 382.3267,-147.5 326.5,-147.5"/>
<polygon fill="#000000" stroke="#000000" points="427.5327,-663.0741 434.5083,-671.5353 432.0164,-665.287 436.5,-667.5 436.5,-667.5 436.5,-667.5 432.0164,-665.287 438.4917,-663.4647 427.5327,-663.0741 427.5327,-663.0741"/>
<text text-anchor="start" x="40.762" y="-677.5" font-family="Arial" font-size="10.00" fill="#000000">FOREIGN KEY (base_class_id) REFERENCES base_class(id) ON DELETE SET NULL</text>
</g>
<!-- public.base_user -->
<g id="node3" class="node">
<title>public.base_user</title>
<polygon fill="#efefef" stroke="transparent" points="430.5,-192.5 430.5,-227.5 710.5,-227.5 710.5,-192.5 430.5,-192.5"/>
<polygon fill="none" stroke="#000000" points="430.5,-192.5 430.5,-227.5 710.5,-227.5 710.5,-192.5 430.5,-192.5"/>
<text text-anchor="start" x="438.6967" y="-205.3" font-family="Arial Bold" font-size="18.00" fill="#000000">public.base_user</text>
<text text-anchor="start" x="574.7353" y="-205.3" font-family="Arial" font-size="14.00" fill="#000000">    </text>
<text text-anchor="start" x="608.9401" y="-205.3" font-family="Arial" font-size="14.00" fill="#666666">[BASE TABLE]</text>
<polygon fill="none" stroke="#000000" points="430.5,-162.5 430.5,-192.5 710.5,-192.5 710.5,-162.5 430.5,-162.5"/>
<text text-anchor="start" x="437.5" y="-173.9" font-family="Arial" font-size="14.00" fill="#000000">email    </text>
<text text-anchor="start" x="505.1438" y="-173.9" font-family="Arial" font-size="14.00" fill="#666666">[varchar(100)]</text>
<polygon fill="none" stroke="#000000" points="430.5,-132.5 430.5,-162.5 710.5,-162.5 710.5,-132.5 430.5,-132.5"/>
<text text-anchor="start" x="437.5" y="-143.9" font-family="Arial" font-size="14.00" fill="#000000">password    </text>
<text text-anchor="start" x="531.6024" y="-143.9" font-family="Arial" font-size="14.00" fill="#666666">[varchar(255)]</text>
<polygon fill="none" stroke="#000000" points="430.5,-102.5 430.5,-132.5 710.5,-132.5 710.5,-102.5 430.5,-102.5"/>
<text text-anchor="start" x="437.5" y="-113.9" font-family="Arial" font-size="14.00" fill="#000000">status    </text>
<text text-anchor="start" x="509.0512" y="-113.9" font-family="Arial" font-size="14.00" fill="#666666">[user_status]</text>
<polygon fill="none" stroke="#000000" points="430.5,-72.5 430.5,-102.5 710.5,-102.5 710.5,-72.5 430.5,-72.5"/>
<text text-anchor="start" x="437.5" y="-83.9" font-family="Arial" font-size="14.00" fill="#000000">id    </text>
<text text-anchor="start" x="482.594" y="-83.9" font-family="Arial" font-size="14.00" fill="#666666">[uuid]</text>
<polygon fill="none" stroke="#000000" points="430.5,-42.5 430.5,-72.5 710.5,-72.5 710.5,-42.5 430.5,-42.5"/>
<text text-anchor="start" x="437.4867" y="-53.9" font-family="Arial" font-size="14.00" fill="#000000">created_at    </text>
<text text-anchor="start" x="537.8289" y="-53.9" font-family="Arial" font-size="14.00" fill="#666666">[timestamp with time zone]</text>
</g>
<!-- public.character&#45;&gt;public.base_user -->
<g id="edge2" class="edge">
<title>public.character:user_id&#45;&gt;public.base_user:id</title>
<path fill="none" stroke="#000000" d="M713.707,-633.0728C766.0609,-581.0217 768.3919,-87.5 710.5,-87.5"/>
<polygon fill="#000000" stroke="#000000" points="713.5122,-633.1664 702.5499,-633.4445 709.0061,-635.3332 704.5,-637.5 704.5,-637.5 704.5,-637.5 709.0061,-635.3332 706.4501,-641.5555 713.5122,-633.1664 713.5122,-633.1664"/>
<text text-anchor="start" x="711.4355" y="-647.5" font-family="Arial" font-size="10.00" fill="#000000">FOREIGN KEY (user_id) REFERENCES base_user(id) ON DELETE CASCADE</text>
</g>
<!-- public.character_location -->
<g id="node4" class="node">
<title>public.character_location</title>
<polygon fill="#efefef" stroke="transparent" points="814.5,-177.5 814.5,-212.5 1154.5,-212.5 1154.5,-177.5 814.5,-177.5"/>
<polygon fill="none" stroke="#000000" points="814.5,-177.5 814.5,-212.5 1154.5,-212.5 1154.5,-177.5 814.5,-177.5"/>
<text text-anchor="start" x="821.1949" y="-190.3" font-family="Arial Bold" font-size="18.00" fill="#000000">public.character_location</text>
<text text-anchor="start" x="1020.2371" y="-190.3" font-family="Arial" font-size="14.00" fill="#000000">    </text>
<text text-anchor="start" x="1054.4419" y="-190.3" font-family="Arial" font-size="14.00" fill="#666666">[BASE TABLE]</text>
<polygon fill="none" stroke="#000000" points="814.5,-147.5 814.5,-177.5 1154.5,-177.5 1154.5,-147.5 814.5,-147.5"/>
<text text-anchor="start" x="821.5" y="-158.9" font-family="Arial" font-size="14.00" fill="#000000">x    </text>
<text text-anchor="start" x="862.7048" y="-158.9" font-family="Arial" font-size="14.00" fill="#666666">[integer]</text>
<polygon fill="none" stroke="#000000" points="814.5,-117.5 814.5,-147.5 1154.5,-147.5 1154.5,-117.5 814.5,-117.5"/>
<text text-anchor="start" x="821.5" y="-128.9" font-family="Arial" font-size="14.00" fill="#000000">y    </text>
<text text-anchor="start" x="862.7048" y="-128.9" font-family="Arial" font-size="14.00" fill="#666666">[integer]</text>
<polygon fill="none" stroke="#000000" points="814.5,-87.5 814.5,-117.5 1154.5,-117.5 1154.5,-87.5 814.5,-87.5"/>
<text text-anchor="start" x="821.5" y="-98.9" font-family="Arial" font-size="14.00" fill="#000000">id    </text>
<text text-anchor="start" x="866.594" y="-98.9" font-family="Arial" font-size="14.00" fill="#666666">[uuid]</text>
<polygon fill="none" stroke="#000000" points="814.5,-57.5 814.5,-87.5 1154.5,-87.5 1154.5,-57.5 814.5,-57.5"/>
<text text-anchor="start" x="821.5" y="-68.9" font-family="Arial" font-size="14.00" fill="#000000">created_at    </text>
<text text-anchor="start" x="921.8422" y="-68.9" font-family="Arial" font-size="14.00" fill="#666666">[timestamp with time zone]</text>
</g>
<!-- public.character&#45;&gt;public.character_location -->
<g id="edge3" class="edge">
<title>public.character:character_location_id&#45;&gt;public.character_location:id</title>
<path fill="none" stroke="#000000" d="M713.6813,-602.8232C761.5768,-551.9131 760.3259,-102.5 814.5,-102.5"/>
<polygon fill="#000000" stroke="#000000" points="713.4106,-602.961 702.4575,-603.4902 708.9553,-605.2305 704.5,-607.5 704.5,-607.5 704.5,-607.5 708.9553,-605.2305 706.5425,-611.5098 713.4106,-602.961 713.4106,-602.961"/>
<text text-anchor="start" x="711.091" y="-617.5" font-family="Arial" font-size="10.00" fill="#000000">FOREIGN KEY (character_location_id) REFERENCES character_location(id) ON DELETE SET NULL</text>
</g>
<!-- public.character_attribute -->
<g id="node5" class="node">
<title>public.character_attribute</title>
<polygon fill="#efefef" stroke="transparent" points="398.5,-992.5 398.5,-1027.5 741.5,-1027.5 741.5,-992.5 398.5,-992.5"/>
<polygon fill="none" stroke="#000000" points="398.5,-992.5 398.5,-1027.5 741.5,-1027.5 741.5,-992.5 398.5,-992.5"/>
<text text-anchor="start" x="405.1937" y="-1005.3" font-family="Arial Bold" font-size="18.00" fill="#000000">public.character_attribute</text>
<text text-anchor="start" x="607.2383" y="-1005.3" font-family="Arial" font-size="14.00" fill="#000000">    </text>
<text text-anchor="start" x="641.4431" y="-1005.3" font-family="Arial" font-size="14.00" fill="#666666">[BASE TABLE]</text>
<polygon fill="none" stroke="#000000" points="398.5,-962.5 398.5,-992.5 741.5,-992.5 741.5,-962.5 398.5,-962.5"/>
<text text-anchor="start" x="405.5" y="-973.9" font-family="Arial" font-size="14.00" fill="#000000">character_id    </text>
<text text-anchor="start" x="516.7188" y="-973.9" font-family="Arial" font-size="14.00" fill="#666666">[uuid]</text>
<polygon fill="none" stroke="#000000" points="398.5,-932.5 398.5,-962.5 741.5,-962.5 741.5,-932.5 398.5,-932.5"/>
<text text-anchor="start" x="405.5" y="-943.9" font-family="Arial" font-size="14.00" fill="#000000">attribute_id    </text>
<text text-anchor="start" x="508.946" y="-943.9" font-family="Arial" font-size="14.00" fill="#666666">[uuid]</text>
<polygon fill="none" stroke="#000000" points="398.5,-902.5 398.5,-932.5 741.5,-932.5 741.5,-902.5 398.5,-902.5"/>
<text text-anchor="start" x="405.5" y="-913.9" font-family="Arial" font-size="14.00" fill="#000000">value    </text>
<text text-anchor="start" x="473.1592" y="-913.9" font-family="Arial" font-size="14.00" fill="#666666">[integer]</text>
<polygon fill="none" stroke="#000000" points="398.5,-872.5 398.5,-902.5 741.5,-902.5 741.5,-872.5 398.5,-872.5"/>
<text text-anchor="start" x="405.5" y="-883.9" font-family="Arial" font-size="14.00" fill="#000000">id    </text>
<text text-anchor="start" x="450.594" y="-883.9" font-family="Arial" font-size="14.00" fill="#666666">[uuid]</text>
<polygon fill="none" stroke="#000000" points="398.5,-842.5 398.5,-872.5 741.5,-872.5 741.5,-842.5 398.5,-842.5"/>
<text text-anchor="start" x="405.5" y="-853.9" font-family="Arial" font-size="14.00" fill="#000000">created_at    </text>
<text text-anchor="start" x="505.8422" y="-853.9" font-family="Arial" font-size="14.00" fill="#666666">[timestamp with time zone]</text>
</g>
<!-- public.character_attribute&#45;&gt;public.character -->
<g id="edge4" class="edge">
<title>public.character_attribute:character_id&#45;&gt;public.character:id</title>
<path fill="none" stroke="#000000" d="M751.5008,-976.7985C817.9577,-966.9703 791.5572,-856.313 741.5,-800 650.8155,-697.9822 527.1845,-866.0178 436.5,-764 328.2811,-642.2565 273.6111,-397.5 436.5,-397.5"/>
<polygon fill="#000000" stroke="#000000" points="751.4755,-976.8002 741.1851,-973.011 746.4877,-977.1501 741.5,-977.5 741.5,-977.5 741.5,-977.5 746.4877,-977.1501 741.8149,-981.989 751.4755,-976.8002 751.4755,-976.8002"/>
<text text-anchor="start" x="748.2785" y="-987.5" font-family="Arial" font-size="10.00" fill="#000000">FOREIGN KEY (character_id) REFERENCES &quot;character&quot;(id) ON DELETE CASCADE</text>
</g>
</g>
</svg>
