<?xml version="1.0" encoding="UTF-8" standalone="no"?>
<!DOCTYPE svg PUBLIC "-//W3C//DTD SVG 1.1//EN"
 "http://www.w3.org/Graphics/SVG/1.1/DTD/svg11.dtd">
<!-- Generated by graphviz version 2.40.1 (20161225.0304)
 -->
<!-- Title: public.base_class Pages: 1 -->
<svg width="839pt" height="772pt"
 viewBox="0.00 0.00 839.00 772.00" xmlns="http://www.w3.org/2000/svg" xmlns:xlink="http://www.w3.org/1999/xlink">
<g id="graph0" class="graph" transform="scale(1 1) rotate(0) translate(4 768)">
<title>public.base_class</title>
<polygon fill="#ffffff" stroke="transparent" points="-4,4 -4,-768 835,-768 835,4 -4,4"/>
<!-- public.base_class -->
<g id="node1" class="node">
<title>public.base_class</title>
<polygon fill="#efefef" stroke="transparent" points="235,-195.5 235,-230.5 518,-230.5 518,-195.5 235,-195.5"/>
<polygon fill="none" stroke="#000000" points="235,-195.5 235,-230.5 518,-230.5 518,-195.5 235,-195.5"/>
<text text-anchor="start" x="241.6988" y="-208.3" font-family="Arial Bold" font-size="18.00" fill="#000000">public.base_class</text>
<text text-anchor="start" x="383.7332" y="-208.3" font-family="Arial" font-size="14.00" fill="#000000">    </text>
<text text-anchor="start" x="417.938" y="-208.3" font-family="Arial" font-size="14.00" fill="#666666">[BASE TABLE]</text>
<polygon fill="none" stroke="#000000" points="235,-165.5 235,-195.5 518,-195.5 518,-165.5 235,-165.5"/>
<text text-anchor="start" x="242" y="-176.9" font-family="Arial" font-size="14.00" fill="#000000">name </text>
<text text-anchor="start" x="280.899" y="-176.9" font-family="Arial" font-size="14.00" fill="#666666">[varchar(50)]</text>
<polygon fill="none" stroke="#000000" points="235,-135.5 235,-165.5 518,-165.5 518,-135.5 235,-135.5"/>
<text text-anchor="start" x="242" y="-146.9" font-family="Arial" font-size="14.00" fill="#000000">id </text>
<text text-anchor="start" x="256.7798" y="-146.9" font-family="Arial" font-size="14.00" fill="#666666">[uuid]</text>
<polygon fill="none" stroke="#000000" points="235,-105.5 235,-135.5 518,-135.5 518,-105.5 235,-105.5"/>
<text text-anchor="start" x="242" y="-116.9" font-family="Arial" font-size="14.00" fill="#000000">created_at </text>
<text text-anchor="start" x="312.028" y="-116.9" font-family="Arial" font-size="14.00" fill="#666666">[timestamp with time zone]</text>
<polygon fill="none" stroke="#000000" points="235,-75.5 235,-105.5 518,-105.5 518,-75.5 235,-75.5"/>
<text text-anchor="start" x="242" y="-86.9" font-family="Arial" font-size="14.00" fill="#000000">description </text>
<text text-anchor="start" x="313.568" y="-86.9" font-family="Arial" font-size="14.00" fill="#666666">[varchar(500)]</text>
<polygon fill="none" stroke="#000000" points="235,-45.5 235,-75.5 518,-75.5 518,-45.5 235,-45.5"/>
<text text-anchor="start" x="242" y="-56.9" font-family="Arial" font-size="14.00" fill="#000000">ts_vector </text>
<text text-anchor="start" x="302.6802" y="-56.9" font-family="Arial" font-size="14.00" fill="#666666">[tsvector]</text>
<polygon fill="none" stroke="#000000" stroke-width="3" points="233,-44.5 233,-232.5 519,-232.5 519,-44.5 233,-44.5"/>
</g>
<!-- public.character -->
<g id="node2" class="node">
<title>public.character</title>
<polygon fill="#efefef" stroke="transparent" points="43,-685.5 43,-720.5 323,-720.5 323,-685.5 43,-685.5"/>
<polygon fill="none" stroke="#000000" points="43,-685.5 43,-720.5 323,-720.5 323,-685.5 43,-685.5"/>
<text text-anchor="start" x="55.7057" y="-698.3" font-family="Arial Bold" font-size="18.00" fill="#000000">public.character</text>
<text text-anchor="start" x="182.7263" y="-698.3" font-family="Arial" font-size="14.00" fill="#000000">    </text>
<text text-anchor="start" x="216.9311" y="-698.3" font-family="Arial" font-size="14.00" fill="#666666">[BASE TABLE]</text>
<polygon fill="none" stroke="#000000" points="43,-655.5 43,-685.5 323,-685.5 323,-655.5 43,-655.5"/>
<text text-anchor="start" x="50" y="-666.9" font-family="Arial" font-size="14.00" fill="#000000">base_class_id    </text>
<text text-anchor="start" x="172.8962" y="-666.9" font-family="Arial" font-size="14.00" fill="#666666">[uuid]</text>
<polygon fill="none" stroke="#000000" points="43,-625.5 43,-655.5 323,-655.5 323,-625.5 43,-625.5"/>
<text text-anchor="start" x="50" y="-636.9" font-family="Arial" font-size="14.00" fill="#000000">user_id    </text>
<text text-anchor="start" x="130.1024" y="-636.9" font-family="Arial" font-size="14.00" fill="#666666">[uuid]</text>
<polygon fill="none" stroke="#000000" points="43,-595.5 43,-625.5 323,-625.5 323,-595.5 43,-595.5"/>
<text text-anchor="start" x="50" y="-606.9" font-family="Arial" font-size="14.00" fill="#000000">character_location_id    </text>
<text text-anchor="start" x="217.2356" y="-606.9" font-family="Arial" font-size="14.00" fill="#666666">[uuid]</text>
<polygon fill="none" stroke="#000000" points="43,-565.5 43,-595.5 323,-595.5 323,-565.5 43,-565.5"/>
<text text-anchor="start" x="50" y="-576.9" font-family="Arial" font-size="14.00" fill="#000000">gender    </text>
<text text-anchor="start" x="127.7784" y="-576.9" font-family="Arial" font-size="14.00" fill="#666666">[gender]</text>
<polygon fill="none" stroke="#000000" points="43,-535.5 43,-565.5 323,-565.5 323,-535.5 43,-535.5"/>
<text text-anchor="start" x="50" y="-546.9" font-family="Arial" font-size="14.00" fill="#000000">character_name    </text>
<text text-anchor="start" x="185.338" y="-546.9" font-family="Arial" font-size="14.00" fill="#666666">[varchar(50)]</text>
<polygon fill="none" stroke="#000000" points="43,-505.5 43,-535.5 323,-535.5 323,-505.5 43,-505.5"/>
<text text-anchor="start" x="50" y="-516.9" font-family="Arial" font-size="14.00" fill="#000000">alive    </text>
<text text-anchor="start" x="112.9832" y="-516.9" font-family="Arial" font-size="14.00" fill="#666666">[boolean]</text>
<polygon fill="none" stroke="#000000" points="43,-475.5 43,-505.5 323,-505.5 323,-475.5 43,-475.5"/>
<text text-anchor="start" x="50" y="-486.9" font-family="Arial" font-size="14.00" fill="#000000">level    </text>
<text text-anchor="start" x="112.9832" y="-486.9" font-family="Arial" font-size="14.00" fill="#666666">[integer]</text>
<polygon fill="none" stroke="#000000" points="43,-445.5 43,-475.5 323,-475.5 323,-445.5 43,-445.5"/>
<text text-anchor="start" x="50" y="-456.9" font-family="Arial" font-size="14.00" fill="#000000">xp    </text>
<text text-anchor="start" x="98.9874" y="-456.9" font-family="Arial" font-size="14.00" fill="#666666">[integer]</text>
<polygon fill="none" stroke="#000000" points="43,-415.5 43,-445.5 323,-445.5 323,-415.5 43,-415.5"/>
<text text-anchor="start" x="50" y="-426.9" font-family="Arial" font-size="14.00" fill="#000000">money    </text>
<text text-anchor="start" x="126.2132" y="-426.9" font-family="Arial" font-size="14.00" fill="#666666">[integer]</text>
<polygon fill="none" stroke="#000000" points="43,-385.5 43,-415.5 323,-415.5 323,-385.5 43,-385.5"/>
<text text-anchor="start" x="50" y="-396.9" font-family="Arial" font-size="14.00" fill="#000000">id    </text>
<text text-anchor="start" x="95.094" y="-396.9" font-family="Arial" font-size="14.00" fill="#666666">[uuid]</text>
<polygon fill="none" stroke="#000000" points="43,-355.5 43,-385.5 323,-385.5 323,-355.5 43,-355.5"/>
<text text-anchor="start" x="49.9867" y="-366.9" font-family="Arial" font-size="14.00" fill="#000000">created_at    </text>
<text text-anchor="start" x="150.3289" y="-366.9" font-family="Arial" font-size="14.00" fill="#666666">[timestamp with time zone]</text>
</g>
<!-- public.character&#45;&gt;public.base_class -->
<g id="edge1" class="edge">
<title>public.character:base_class_id&#45;&gt;public.base_class:id</title>
<path fill="none" stroke="#000000" d="M333.0221,-668.7819C399.2669,-644.7621 365.2923,-375.9958 323,-313 299.4462,-277.9158 258.5538,-312.0842 235,-277 203.6623,-230.3215 178.7778,-150.5 235,-150.5"/>
<polygon fill="#000000" stroke="#000000" points="332.8562,-668.8103 322.2396,-666.0647 327.9281,-669.6551 323,-670.5 323,-670.5 323,-670.5 327.9281,-669.6551 323.7604,-674.9353 332.8562,-668.8103 332.8562,-668.8103"/>
<text text-anchor="start" x="330.262" y="-680.5" font-family="Arial" font-size="10.00" fill="#000000">FOREIGN KEY (base_class_id) REFERENCES base_class(id) ON DELETE SET NULL</text>
</g>
<!-- public.class_ability -->
<g id="node3" class="node">
<title>public.class_ability</title>
<polygon fill="#efefef" stroke="transparent" points="427,-580.5 427,-615.5 717,-615.5 717,-580.5 427,-580.5"/>
<polygon fill="none" stroke="#000000" points="427,-580.5 427,-615.5 717,-615.5 717,-580.5 427,-580.5"/>
<text text-anchor="start" x="433.7095" y="-593.3" font-family="Arial Bold" font-size="18.00" fill="#000000">public.class_ability</text>
<text text-anchor="start" x="582.7225" y="-593.3" font-family="Arial" font-size="14.00" fill="#000000">    </text>
<text text-anchor="start" x="616.9273" y="-593.3" font-family="Arial" font-size="14.00" fill="#666666">[BASE TABLE]</text>
<polygon fill="none" stroke="#000000" points="427,-550.5 427,-580.5 717,-580.5 717,-550.5 427,-550.5"/>
<text text-anchor="start" x="434" y="-561.9" font-family="Arial" font-size="14.00" fill="#000000">base_class_id    </text>
<text text-anchor="start" x="556.8962" y="-561.9" font-family="Arial" font-size="14.00" fill="#666666">[uuid]</text>
<polygon fill="none" stroke="#000000" points="427,-520.5 427,-550.5 717,-550.5 717,-520.5 427,-520.5"/>
<text text-anchor="start" x="434" y="-531.9" font-family="Arial" font-size="14.00" fill="#000000">ability_id    </text>
<text text-anchor="start" x="522.6522" y="-531.9" font-family="Arial" font-size="14.00" fill="#666666">[uuid]</text>
<polygon fill="none" stroke="#000000" points="427,-490.5 427,-520.5 717,-520.5 717,-490.5 427,-490.5"/>
<text text-anchor="start" x="434" y="-501.9" font-family="Arial" font-size="14.00" fill="#000000">id    </text>
<text text-anchor="start" x="479.094" y="-501.9" font-family="Arial" font-size="14.00" fill="#666666">[uuid]</text>
<polygon fill="none" stroke="#000000" points="427,-460.5 427,-490.5 717,-490.5 717,-460.5 427,-460.5"/>
<text text-anchor="start" x="434" y="-471.9" font-family="Arial" font-size="14.00" fill="#000000">created_at    </text>
<text text-anchor="start" x="534.3422" y="-471.9" font-family="Arial" font-size="14.00" fill="#666666">[timestamp with time zone]</text>
</g>
<!-- public.class_ability&#45;&gt;public.base_class -->
<g id="edge2" class="edge">
<title>public.class_ability:base_class_id&#45;&gt;public.base_class:id</title>
<path fill="none" stroke="#000000" d="M416.9186,-564.7049C366.6802,-555.9841 409.5197,-477.3206 427,-418 448.0819,-346.4569 496.9181,-348.5431 518,-277 533.8917,-223.0705 574.2222,-150.5 518,-150.5"/>
<polygon fill="#000000" stroke="#000000" points="417.031,-564.7137 426.6462,-569.9861 422.0155,-565.1068 427,-565.5 427,-565.5 427,-565.5 422.0155,-565.1068 427.3538,-561.0139 417.031,-564.7137 417.031,-564.7137"/>
<text text-anchor="start" x="433.9865" y="-575.5" font-family="Arial" font-size="10.00" fill="#000000">FOREIGN KEY (base_class_id) REFERENCES base_class(id) ON DELETE CASCADE</text>
</g>
</g>
</svg>
