<?xml version="1.0" encoding="UTF-8" standalone="no"?>
<!DOCTYPE svg PUBLIC "-//W3C//DTD SVG 1.1//EN"
 "http://www.w3.org/Graphics/SVG/1.1/DTD/svg11.dtd">
<!-- Generated by graphviz version 2.40.1 (20161225.0304)
 -->
<!-- Title: public.class_ability Pages: 1 -->
<svg width="1057pt" height="592pt"
 viewBox="0.00 0.00 1057.00 592.00" xmlns="http://www.w3.org/2000/svg" xmlns:xlink="http://www.w3.org/1999/xlink">
<g id="graph0" class="graph" transform="scale(1 1) rotate(0) translate(4 588)">
<title>public.class_ability</title>
<polygon fill="#ffffff" stroke="transparent" points="-4,4 -4,-588 1053,-588 1053,4 -4,4"/>
<!-- public.class_ability -->
<g id="node1" class="node">
<title>public.class_ability</title>
<polygon fill="#efefef" stroke="transparent" points="404,-502.5 404,-537.5 694,-537.5 694,-502.5 404,-502.5"/>
<polygon fill="none" stroke="#000000" points="404,-502.5 404,-537.5 694,-537.5 694,-502.5 404,-502.5"/>
<text text-anchor="start" x="410.7095" y="-515.3" font-family="Arial Bold" font-size="18.00" fill="#000000">public.class_ability</text>
<text text-anchor="start" x="559.7225" y="-515.3" font-family="Arial" font-size="14.00" fill="#000000">    </text>
<text text-anchor="start" x="593.9273" y="-515.3" font-family="Arial" font-size="14.00" fill="#666666">[BASE TABLE]</text>
<polygon fill="none" stroke="#000000" points="404,-472.5 404,-502.5 694,-502.5 694,-472.5 404,-472.5"/>
<text text-anchor="start" x="411" y="-483.9" font-family="Arial" font-size="14.00" fill="#000000">base_class_id </text>
<text text-anchor="start" x="503.582" y="-483.9" font-family="Arial" font-size="14.00" fill="#666666">[uuid]</text>
<polygon fill="none" stroke="#000000" points="404,-442.5 404,-472.5 694,-472.5 694,-442.5 404,-442.5"/>
<text text-anchor="start" x="411" y="-453.9" font-family="Arial" font-size="14.00" fill="#000000">ability_id </text>
<text text-anchor="start" x="469.338" y="-453.9" font-family="Arial" font-size="14.00" fill="#666666">[uuid]</text>
<polygon fill="none" stroke="#000000" points="404,-412.5 404,-442.5 694,-442.5 694,-412.5 404,-412.5"/>
<text text-anchor="start" x="411" y="-423.9" font-family="Arial" font-size="14.00" fill="#000000">id </text>
<text text-anchor="start" x="425.7798" y="-423.9" font-family="Arial" font-size="14.00" fill="#666666">[uuid]</text>
<polygon fill="none" stroke="#000000" points="404,-382.5 404,-412.5 694,-412.5 694,-382.5 404,-382.5"/>
<text text-anchor="start" x="411" y="-393.9" font-family="Arial" font-size="14.00" fill="#000000">created_at </text>
<text text-anchor="start" x="481.028" y="-393.9" font-family="Arial" font-size="14.00" fill="#666666">[timestamp with time zone]</text>
<polygon fill="none" stroke="#000000" stroke-width="3" points="402.5,-381.5 402.5,-539.5 695.5,-539.5 695.5,-381.5 402.5,-381.5"/>
</g>
<!-- public.base_class -->
<g id="node2" class="node">
<title>public.base_class</title>
<polygon fill="#efefef" stroke="transparent" points="215,-207.5 215,-242.5 498,-242.5 498,-207.5 215,-207.5"/>
<polygon fill="none" stroke="#000000" points="215,-207.5 215,-242.5 498,-242.5 498,-207.5 215,-207.5"/>
<text text-anchor="start" x="221.6988" y="-220.3" font-family="Arial Bold" font-size="18.00" fill="#000000">public.base_class</text>
<text text-anchor="start" x="363.7332" y="-220.3" font-family="Arial" font-size="14.00" fill="#000000">    </text>
<text text-anchor="start" x="397.938" y="-220.3" font-family="Arial" font-size="14.00" fill="#666666">[BASE TABLE]</text>
<polygon fill="none" stroke="#000000" points="215,-177.5 215,-207.5 498,-207.5 498,-177.5 215,-177.5"/>
<text text-anchor="start" x="222" y="-188.9" font-family="Arial" font-size="14.00" fill="#000000">name    </text>
<text text-anchor="start" x="291.2132" y="-188.9" font-family="Arial" font-size="14.00" fill="#666666">[varchar(50)]</text>
<polygon fill="none" stroke="#000000" points="215,-147.5 215,-177.5 498,-177.5 498,-147.5 215,-147.5"/>
<text text-anchor="start" x="222" y="-158.9" font-family="Arial" font-size="14.00" fill="#000000">id    </text>
<text text-anchor="start" x="267.094" y="-158.9" font-family="Arial" font-size="14.00" fill="#666666">[uuid]</text>
<polygon fill="none" stroke="#000000" points="215,-117.5 215,-147.5 498,-147.5 498,-117.5 215,-117.5"/>
<text text-anchor="start" x="222" y="-128.9" font-family="Arial" font-size="14.00" fill="#000000">created_at    </text>
<text text-anchor="start" x="322.3422" y="-128.9" font-family="Arial" font-size="14.00" fill="#666666">[timestamp with time zone]</text>
<polygon fill="none" stroke="#000000" points="215,-87.5 215,-117.5 498,-117.5 498,-87.5 215,-87.5"/>
<text text-anchor="start" x="222" y="-98.9" font-family="Arial" font-size="14.00" fill="#000000">description    </text>
<text text-anchor="start" x="323.8822" y="-98.9" font-family="Arial" font-size="14.00" fill="#666666">[varchar(500)]</text>
<polygon fill="none" stroke="#000000" points="215,-57.5 215,-87.5 498,-87.5 498,-57.5 215,-57.5"/>
<text text-anchor="start" x="222" y="-68.9" font-family="Arial" font-size="14.00" fill="#000000">ts_vector    </text>
<text text-anchor="start" x="312.9944" y="-68.9" font-family="Arial" font-size="14.00" fill="#666666">[tsvector]</text>
</g>
<!-- public.class_ability&#45;&gt;public.base_class -->
<g id="edge1" class="edge">
<title>public.class_ability:base_class_id&#45;&gt;public.base_class:id</title>
<path fill="none" stroke="#000000" d="M393.9034,-486.6864C340.6901,-477.4322 371.662,-391.336 404,-337 428.3084,-296.1557 473.6916,-326.8443 498,-286 526.0716,-238.8325 552.8889,-162.5 498,-162.5"/>
<polygon fill="#000000" stroke="#000000" points="394.0323,-486.6967 403.6385,-491.9855 399.0162,-487.0984 404,-487.5 404,-487.5 404,-487.5 399.0162,-487.0984 404.3615,-483.0145 394.0323,-486.6967 394.0323,-486.6967"/>
<text text-anchor="start" x="6.9865" y="-497.5" font-family="Arial" font-size="10.00" fill="#000000">FOREIGN KEY (base_class_id) REFERENCES base_class(id) ON DELETE CASCADE</text>
</g>
<!-- public.ability -->
<g id="node3" class="node">
<title>public.ability</title>
<polygon fill="#efefef" stroke="transparent" points="602,-222.5 602,-257.5 882,-257.5 882,-222.5 602,-222.5"/>
<polygon fill="none" stroke="#000000" points="602,-222.5 602,-257.5 882,-257.5 882,-222.5 602,-222.5"/>
<text text-anchor="start" x="629.2128" y="-235.3" font-family="Arial Bold" font-size="18.00" fill="#000000">public.ability</text>
<text text-anchor="start" x="727.2192" y="-235.3" font-family="Arial" font-size="14.00" fill="#000000">    </text>
<text text-anchor="start" x="761.424" y="-235.3" font-family="Arial" font-size="14.00" fill="#666666">[BASE TABLE]</text>
<polygon fill="none" stroke="#000000" points="602,-192.5 602,-222.5 882,-222.5 882,-192.5 602,-192.5"/>
<text text-anchor="start" x="609" y="-203.9" font-family="Arial" font-size="14.00" fill="#000000">name    </text>
<text text-anchor="start" x="678.2132" y="-203.9" font-family="Arial" font-size="14.00" fill="#666666">[varchar(50)]</text>
<polygon fill="none" stroke="#000000" points="602,-162.5 602,-192.5 882,-192.5 882,-162.5 602,-162.5"/>
<text text-anchor="start" x="609" y="-173.9" font-family="Arial" font-size="14.00" fill="#000000">ability_type_id    </text>
<text text-anchor="start" x="731.8906" y="-173.9" font-family="Arial" font-size="14.00" fill="#666666">[uuid]</text>
<polygon fill="none" stroke="#000000" points="602,-132.5 602,-162.5 882,-162.5 882,-132.5 602,-132.5"/>
<text text-anchor="start" x="609" y="-143.9" font-family="Arial" font-size="14.00" fill="#000000">id    </text>
<text text-anchor="start" x="654.094" y="-143.9" font-family="Arial" font-size="14.00" fill="#666666">[uuid]</text>
<polygon fill="none" stroke="#000000" points="602,-102.5 602,-132.5 882,-132.5 882,-102.5 602,-102.5"/>
<text text-anchor="start" x="608.9867" y="-113.9" font-family="Arial" font-size="14.00" fill="#000000">created_at    </text>
<text text-anchor="start" x="709.3289" y="-113.9" font-family="Arial" font-size="14.00" fill="#666666">[timestamp with time zone]</text>
<polygon fill="none" stroke="#000000" points="602,-72.5 602,-102.5 882,-102.5 882,-72.5 602,-72.5"/>
<text text-anchor="start" x="609" y="-83.9" font-family="Arial" font-size="14.00" fill="#000000">description    </text>
<text text-anchor="start" x="710.8822" y="-83.9" font-family="Arial" font-size="14.00" fill="#666666">[varchar(500)]</text>
<polygon fill="none" stroke="#000000" points="602,-42.5 602,-72.5 882,-72.5 882,-42.5 602,-42.5"/>
<text text-anchor="start" x="609" y="-53.9" font-family="Arial" font-size="14.00" fill="#000000">ts_vector    </text>
<text text-anchor="start" x="699.9944" y="-53.9" font-family="Arial" font-size="14.00" fill="#666666">[tsvector]</text>
</g>
<!-- public.class_ability&#45;&gt;public.ability -->
<g id="edge2" class="edge">
<title>public.class_ability:ability_id&#45;&gt;public.ability:id</title>
<path fill="none" stroke="#000000" d="M704.1804,-456.4065C744.2362,-446.9335 722.0685,-378.1242 694,-337 669.2475,-300.7341 626.7525,-337.2659 602,-301 563.5406,-244.6516 533.7778,-147.5 602,-147.5"/>
<polygon fill="#000000" stroke="#000000" points="703.9428,-456.4319 693.5194,-453.0257 698.9714,-456.966 694,-457.5 694,-457.5 694,-457.5 698.9714,-456.966 694.4806,-461.9743 703.9428,-456.4319 703.9428,-456.4319"/>
<text text-anchor="start" x="701.4465" y="-467.5" font-family="Arial" font-size="10.00" fill="#000000">FOREIGN KEY (ability_id) REFERENCES ability(id) ON DELETE CASCADE</text>
</g>
</g>
</svg>
