<?xml version="1.0" encoding="UTF-8" standalone="no"?>
<!DOCTYPE svg PUBLIC "-//W3C//DTD SVG 1.1//EN"
 "http://www.w3.org/Graphics/SVG/1.1/DTD/svg11.dtd">
<!-- Generated by graphviz version 2.40.1 (20161225.0304)
 -->
<!-- Title: public.relation Pages: 1 -->
<svg width="692pt" height="562pt"
 viewBox="0.00 0.00 692.00 562.00" xmlns="http://www.w3.org/2000/svg" xmlns:xlink="http://www.w3.org/1999/xlink">
<g id="graph0" class="graph" transform="scale(1 1) rotate(0) translate(4 558)">
<title>public.relation</title>
<polygon fill="#ffffff" stroke="transparent" points="-4,4 -4,-558 688,-558 688,4 -4,4"/>
<!-- public.relation -->
<g id="node1" class="node">
<title>public.relation</title>
<polygon fill="#efefef" stroke="transparent" points="57,-472.5 57,-507.5 309,-507.5 309,-472.5 57,-472.5"/>
<polygon fill="none" stroke="#000000" points="57,-472.5 57,-507.5 309,-507.5 309,-472.5 57,-472.5"/>
<text text-anchor="start" x="63.7076" y="-485.3" font-family="Arial Bold" font-size="18.00" fill="#000000">public.relation</text>
<text text-anchor="start" x="174.7244" y="-485.3" font-family="Arial" font-size="14.00" fill="#000000">    </text>
<text text-anchor="start" x="208.9292" y="-485.3" font-family="Arial" font-size="14.00" fill="#666666">[BASE TABLE]</text>
<polygon fill="none" stroke="#000000" points="57,-442.5 57,-472.5 309,-472.5 309,-442.5 57,-442.5"/>
<text text-anchor="start" x="64" y="-453.9" font-family="Arial" font-size="14.00" fill="#000000">user1_id </text>
<text text-anchor="start" x="121.5708" y="-453.9" font-family="Arial" font-size="14.00" fill="#666666">[uuid]</text>
<polygon fill="none" stroke="#000000" points="57,-412.5 57,-442.5 309,-442.5 309,-412.5 57,-412.5"/>
<text text-anchor="start" x="64" y="-423.9" font-family="Arial" font-size="14.00" fill="#000000">user2_id </text>
<text text-anchor="start" x="121.5708" y="-423.9" font-family="Arial" font-size="14.00" fill="#666666">[uuid]</text>
<polygon fill="none" stroke="#000000" points="57,-382.5 57,-412.5 309,-412.5 309,-382.5 57,-382.5"/>
<text text-anchor="start" x="64" y="-393.9" font-family="Arial" font-size="14.00" fill="#000000">id </text>
<text text-anchor="start" x="78.7798" y="-393.9" font-family="Arial" font-size="14.00" fill="#666666">[uuid]</text>
<polygon fill="none" stroke="#000000" points="57,-352.5 57,-382.5 309,-382.5 309,-352.5 57,-352.5"/>
<text text-anchor="start" x="64" y="-363.9" font-family="Arial" font-size="14.00" fill="#000000">created_at </text>
<text text-anchor="start" x="134.028" y="-363.9" font-family="Arial" font-size="14.00" fill="#666666">[timestamp with time zone]</text>
<polygon fill="none" stroke="#000000" stroke-width="3" points="55.5,-351.5 55.5,-509.5 310.5,-509.5 310.5,-351.5 55.5,-351.5"/>
</g>
<!-- public.base_user -->
<g id="node2" class="node">
<title>public.base_user</title>
<polygon fill="#efefef" stroke="transparent" points="43,-192.5 43,-227.5 323,-227.5 323,-192.5 43,-192.5"/>
<polygon fill="none" stroke="#000000" points="43,-192.5 43,-227.5 323,-227.5 323,-192.5 43,-192.5"/>
<text text-anchor="start" x="51.1967" y="-205.3" font-family="Arial Bold" font-size="18.00" fill="#000000">public.base_user</text>
<text text-anchor="start" x="187.2353" y="-205.3" font-family="Arial" font-size="14.00" fill="#000000">    </text>
<text text-anchor="start" x="221.4401" y="-205.3" font-family="Arial" font-size="14.00" fill="#666666">[BASE TABLE]</text>
<polygon fill="none" stroke="#000000" points="43,-162.5 43,-192.5 323,-192.5 323,-162.5 43,-162.5"/>
<text text-anchor="start" x="50" y="-173.9" font-family="Arial" font-size="14.00" fill="#000000">email    </text>
<text text-anchor="start" x="117.6438" y="-173.9" font-family="Arial" font-size="14.00" fill="#666666">[varchar(100)]</text>
<polygon fill="none" stroke="#000000" points="43,-132.5 43,-162.5 323,-162.5 323,-132.5 43,-132.5"/>
<text text-anchor="start" x="50" y="-143.9" font-family="Arial" font-size="14.00" fill="#000000">password    </text>
<text text-anchor="start" x="144.1024" y="-143.9" font-family="Arial" font-size="14.00" fill="#666666">[varchar(255)]</text>
<polygon fill="none" stroke="#000000" points="43,-102.5 43,-132.5 323,-132.5 323,-102.5 43,-102.5"/>
<text text-anchor="start" x="50" y="-113.9" font-family="Arial" font-size="14.00" fill="#000000">status    </text>
<text text-anchor="start" x="121.5512" y="-113.9" font-family="Arial" font-size="14.00" fill="#666666">[user_status]</text>
<polygon fill="none" stroke="#000000" points="43,-72.5 43,-102.5 323,-102.5 323,-72.5 43,-72.5"/>
<text text-anchor="start" x="50" y="-83.9" font-family="Arial" font-size="14.00" fill="#000000">id    </text>
<text text-anchor="start" x="95.094" y="-83.9" font-family="Arial" font-size="14.00" fill="#666666">[uuid]</text>
<polygon fill="none" stroke="#000000" points="43,-42.5 43,-72.5 323,-72.5 323,-42.5 43,-42.5"/>
<text text-anchor="start" x="49.9867" y="-53.9" font-family="Arial" font-size="14.00" fill="#000000">created_at    </text>
<text text-anchor="start" x="150.3289" y="-53.9" font-family="Arial" font-size="14.00" fill="#666666">[timestamp with time zone]</text>
</g>
<!-- public.relation&#45;&gt;public.base_user -->
<g id="edge1" class="edge">
<title>public.relation:user1_id&#45;&gt;public.base_user:id</title>
<path fill="none" stroke="#000000" d="M319.2261,-455.5093C392.3064,-426.3863 401.7455,-87.5 323,-87.5"/>
<polygon fill="#000000" stroke="#000000" points="318.8157,-455.5891 308.1401,-453.0829 313.9079,-456.5446 309,-457.5 309,-457.5 309,-457.5 313.9079,-456.5446 309.8599,-461.9171 318.8157,-455.5891 318.8157,-455.5891"/>
<text text-anchor="start" x="316.156" y="-467.5" font-family="Arial" font-size="10.00" fill="#000000">FOREIGN KEY (user1_id) REFERENCES base_user(id) ON DELETE CASCADE</text>
</g>
<!-- public.relation&#45;&gt;public.base_user -->
<g id="edge2" class="edge">
<title>public.relation:user2_id&#45;&gt;public.base_user:id</title>
<path fill="none" stroke="#000000" d="M318.8153,-425.5033C385.6965,-397.6392 395.2226,-87.5 323,-87.5"/>
<polygon fill="#000000" stroke="#000000" points="318.7993,-425.5065 308.1029,-423.0903 313.8997,-426.5032 309,-427.5 309,-427.5 309,-427.5 313.8997,-426.5032 309.8971,-431.9097 318.7993,-425.5065 318.7993,-425.5065"/>
<text text-anchor="start" x="316.156" y="-437.5" font-family="Arial" font-size="10.00" fill="#000000">FOREIGN KEY (user2_id) REFERENCES base_user(id) ON DELETE CASCADE</text>
</g>
</g>
</svg>
