<?xml version="1.0" encoding="UTF-8" standalone="no"?>
<!DOCTYPE svg PUBLIC "-//W3C//DTD SVG 1.1//EN"
 "http://www.w3.org/Graphics/SVG/1.1/DTD/svg11.dtd">
<!-- Generated by graphviz version 2.40.1 (20161225.0304)
 -->
<!-- Title: rpg_api Pages: 1 -->
<svg width="3180pt" height="1530pt"
 viewBox="0.00 0.00 3180.00 1530.00" xmlns="http://www.w3.org/2000/svg" xmlns:xlink="http://www.w3.org/1999/xlink">
<g id="graph0" class="graph" transform="scale(1 1) rotate(0) translate(4 1526)">
<title>rpg_api</title>
<polygon fill="#ffffff" stroke="transparent" points="-4,4 -4,-1526 3176,-1526 3176,4 -4,4"/>
<!-- public.alembic_version -->
<g id="node1" class="node">
<title>public.alembic_version</title>
<polygon fill="#efefef" stroke="transparent" points="1161,-1323.5 1161,-1358.5 1484,-1358.5 1484,-1323.5 1161,-1323.5"/>
<polygon fill="none" stroke="#000000" points="1161,-1323.5 1161,-1358.5 1484,-1358.5 1484,-1323.5 1161,-1323.5"/>
<text text-anchor="start" x="1167.7062" y="-1336.3" font-family="Arial Bold" font-size="18.00" fill="#000000">public.alembic_version</text>
<text text-anchor="start" x="1349.7258" y="-1336.3" font-family="Arial" font-size="14.00" fill="#000000">    </text>
<text text-anchor="start" x="1383.9306" y="-1336.3" font-family="Arial" font-size="14.00" fill="#666666">[BASE TABLE]</text>
<polygon fill="none" stroke="#000000" points="1161,-1293.5 1161,-1323.5 1484,-1323.5 1484,-1293.5 1161,-1293.5"/>
<text text-anchor="start" x="1168" y="-1304.9" font-family="Arial" font-size="14.00" fill="#000000">version_num    </text>
<text text-anchor="start" x="1282.3282" y="-1304.9" font-family="Arial" font-size="14.00" fill="#666666">[varchar(32)]</text>
</g>
<!-- public.ability_type -->
<g id="node2" class="node">
<title>public.ability_type</title>
<polygon fill="#efefef" stroke="transparent" points="402,-192.5 402,-227.5 685,-227.5 685,-192.5 402,-192.5"/>
<polygon fill="none" stroke="#000000" points="402,-192.5 402,-227.5 685,-227.5 685,-192.5 402,-192.5"/>
<text text-anchor="start" x="408.7024" y="-205.3" font-family="Arial Bold" font-size="18.00" fill="#000000">public.ability_type</text>
<text text-anchor="start" x="550.7296" y="-205.3" font-family="Arial" font-size="14.00" fill="#000000">    </text>
<text text-anchor="start" x="584.9344" y="-205.3" font-family="Arial" font-size="14.00" fill="#666666">[BASE TABLE]</text>
<polygon fill="none" stroke="#000000" points="402,-162.5 402,-192.5 685,-192.5 685,-162.5 402,-162.5"/>
<text text-anchor="start" x="409" y="-173.9" font-family="Arial" font-size="14.00" fill="#000000">name    </text>
<text text-anchor="start" x="478.2132" y="-173.9" font-family="Arial" font-size="14.00" fill="#666666">[varchar(50)]</text>
<polygon fill="none" stroke="#000000" points="402,-132.5 402,-162.5 685,-162.5 685,-132.5 402,-132.5"/>
<text text-anchor="start" x="409" y="-143.9" font-family="Arial" font-size="14.00" fill="#000000">description    </text>
<text text-anchor="start" x="510.8822" y="-143.9" font-family="Arial" font-size="14.00" fill="#666666">[varchar(500)]</text>
<polygon fill="none" stroke="#000000" points="402,-102.5 402,-132.5 685,-132.5 685,-102.5 402,-102.5"/>
<text text-anchor="start" x="409" y="-113.9" font-family="Arial" font-size="14.00" fill="#000000">id    </text>
<text text-anchor="start" x="454.094" y="-113.9" font-family="Arial" font-size="14.00" fill="#666666">[uuid]</text>
<polygon fill="none" stroke="#000000" points="402,-72.5 402,-102.5 685,-102.5 685,-72.5 402,-72.5"/>
<text text-anchor="start" x="409" y="-83.9" font-family="Arial" font-size="14.00" fill="#000000">created_at    </text>
<text text-anchor="start" x="509.3422" y="-83.9" font-family="Arial" font-size="14.00" fill="#666666">[timestamp with time zone]</text>
<polygon fill="none" stroke="#000000" points="402,-42.5 402,-72.5 685,-72.5 685,-42.5 402,-42.5"/>
<text text-anchor="start" x="409" y="-53.9" font-family="Arial" font-size="14.00" fill="#000000">ts_vector    </text>
<text text-anchor="start" x="499.9944" y="-53.9" font-family="Arial" font-size="14.00" fill="#666666">[tsvector]</text>
</g>
<!-- public.attribute -->
<g id="node3" class="node">
<title>public.attribute</title>
<polygon fill="#efefef" stroke="transparent" points="2004,-926.5 2004,-961.5 2284,-961.5 2284,-926.5 2004,-926.5"/>
<polygon fill="none" stroke="#000000" points="2004,-926.5 2004,-961.5 2284,-961.5 2284,-926.5 2004,-926.5"/>
<text text-anchor="start" x="2021.7025" y="-939.3" font-family="Arial Bold" font-size="18.00" fill="#000000">public.attribute</text>
<text text-anchor="start" x="2138.7295" y="-939.3" font-family="Arial" font-size="14.00" fill="#000000">    </text>
<text text-anchor="start" x="2172.9343" y="-939.3" font-family="Arial" font-size="14.00" fill="#666666">[BASE TABLE]</text>
<polygon fill="none" stroke="#000000" points="2004,-896.5 2004,-926.5 2284,-926.5 2284,-896.5 2004,-896.5"/>
<text text-anchor="start" x="2011" y="-907.9" font-family="Arial" font-size="14.00" fill="#000000">name    </text>
<text text-anchor="start" x="2080.2132" y="-907.9" font-family="Arial" font-size="14.00" fill="#666666">[varchar(50)]</text>
<polygon fill="none" stroke="#000000" points="2004,-866.5 2004,-896.5 2284,-896.5 2284,-866.5 2004,-866.5"/>
<text text-anchor="start" x="2011" y="-877.9" font-family="Arial" font-size="14.00" fill="#000000">description    </text>
<text text-anchor="start" x="2112.8822" y="-877.9" font-family="Arial" font-size="14.00" fill="#666666">[varchar(500)]</text>
<polygon fill="none" stroke="#000000" points="2004,-836.5 2004,-866.5 2284,-866.5 2284,-836.5 2004,-836.5"/>
<text text-anchor="start" x="2011" y="-847.9" font-family="Arial" font-size="14.00" fill="#000000">id    </text>
<text text-anchor="start" x="2056.094" y="-847.9" font-family="Arial" font-size="14.00" fill="#666666">[uuid]</text>
<polygon fill="none" stroke="#000000" points="2004,-806.5 2004,-836.5 2284,-836.5 2284,-806.5 2004,-806.5"/>
<text text-anchor="start" x="2010.9867" y="-817.9" font-family="Arial" font-size="14.00" fill="#000000">created_at    </text>
<text text-anchor="start" x="2111.3289" y="-817.9" font-family="Arial" font-size="14.00" fill="#666666">[timestamp with time zone]</text>
<polygon fill="none" stroke="#000000" points="2004,-776.5 2004,-806.5 2284,-806.5 2284,-776.5 2004,-776.5"/>
<text text-anchor="start" x="2011" y="-787.9" font-family="Arial" font-size="14.00" fill="#000000">ts_vector    </text>
<text text-anchor="start" x="2101.9944" y="-787.9" font-family="Arial" font-size="14.00" fill="#666666">[tsvector]</text>
</g>
<!-- public.base_class -->
<g id="node4" class="node">
<title>public.base_class</title>
<polygon fill="#efefef" stroke="transparent" points="789,-514.5 789,-549.5 1072,-549.5 1072,-514.5 789,-514.5"/>
<polygon fill="none" stroke="#000000" points="789,-514.5 789,-549.5 1072,-549.5 1072,-514.5 789,-514.5"/>
<text text-anchor="start" x="795.6988" y="-527.3" font-family="Arial Bold" font-size="18.00" fill="#000000">public.base_class</text>
<text text-anchor="start" x="937.7332" y="-527.3" font-family="Arial" font-size="14.00" fill="#000000">    </text>
<text text-anchor="start" x="971.938" y="-527.3" font-family="Arial" font-size="14.00" fill="#666666">[BASE TABLE]</text>
<polygon fill="none" stroke="#000000" points="789,-484.5 789,-514.5 1072,-514.5 1072,-484.5 789,-484.5"/>
<text text-anchor="start" x="796" y="-495.9" font-family="Arial" font-size="14.00" fill="#000000">name    </text>
<text text-anchor="start" x="865.2132" y="-495.9" font-family="Arial" font-size="14.00" fill="#666666">[varchar(50)]</text>
<polygon fill="none" stroke="#000000" points="789,-454.5 789,-484.5 1072,-484.5 1072,-454.5 789,-454.5"/>
<text text-anchor="start" x="796" y="-465.9" font-family="Arial" font-size="14.00" fill="#000000">id    </text>
<text text-anchor="start" x="841.094" y="-465.9" font-family="Arial" font-size="14.00" fill="#666666">[uuid]</text>
<polygon fill="none" stroke="#000000" points="789,-424.5 789,-454.5 1072,-454.5 1072,-424.5 789,-424.5"/>
<text text-anchor="start" x="796" y="-435.9" font-family="Arial" font-size="14.00" fill="#000000">created_at    </text>
<text text-anchor="start" x="896.3422" y="-435.9" font-family="Arial" font-size="14.00" fill="#666666">[timestamp with time zone]</text>
<polygon fill="none" stroke="#000000" points="789,-394.5 789,-424.5 1072,-424.5 1072,-394.5 789,-394.5"/>
<text text-anchor="start" x="796" y="-405.9" font-family="Arial" font-size="14.00" fill="#000000">description    </text>
<text text-anchor="start" x="897.8822" y="-405.9" font-family="Arial" font-size="14.00" fill="#666666">[varchar(500)]</text>
<polygon fill="none" stroke="#000000" points="789,-364.5 789,-394.5 1072,-394.5 1072,-364.5 789,-364.5"/>
<text text-anchor="start" x="796" y="-375.9" font-family="Arial" font-size="14.00" fill="#000000">ts_vector    </text>
<text text-anchor="start" x="886.9944" y="-375.9" font-family="Arial" font-size="14.00" fill="#666666">[tsvector]</text>
</g>
<!-- public.base_user -->
<g id="node5" class="node">
<title>public.base_user</title>
<polygon fill="#efefef" stroke="transparent" points="1620,-514.5 1620,-549.5 1900,-549.5 1900,-514.5 1620,-514.5"/>
<polygon fill="none" stroke="#000000" points="1620,-514.5 1620,-549.5 1900,-549.5 1900,-514.5 1620,-514.5"/>
<text text-anchor="start" x="1628.1967" y="-527.3" font-family="Arial Bold" font-size="18.00" fill="#000000">public.base_user</text>
<text text-anchor="start" x="1764.2353" y="-527.3" font-family="Arial" font-size="14.00" fill="#000000">    </text>
<text text-anchor="start" x="1798.4401" y="-527.3" font-family="Arial" font-size="14.00" fill="#666666">[BASE TABLE]</text>
<polygon fill="none" stroke="#000000" points="1620,-484.5 1620,-514.5 1900,-514.5 1900,-484.5 1620,-484.5"/>
<text text-anchor="start" x="1627" y="-495.9" font-family="Arial" font-size="14.00" fill="#000000">email    </text>
<text text-anchor="start" x="1694.6438" y="-495.9" font-family="Arial" font-size="14.00" fill="#666666">[varchar(100)]</text>
<polygon fill="none" stroke="#000000" points="1620,-454.5 1620,-484.5 1900,-484.5 1900,-454.5 1620,-454.5"/>
<text text-anchor="start" x="1627" y="-465.9" font-family="Arial" font-size="14.00" fill="#000000">password    </text>
<text text-anchor="start" x="1721.1024" y="-465.9" font-family="Arial" font-size="14.00" fill="#666666">[varchar(255)]</text>
<polygon fill="none" stroke="#000000" points="1620,-424.5 1620,-454.5 1900,-454.5 1900,-424.5 1620,-424.5"/>
<text text-anchor="start" x="1627" y="-435.9" font-family="Arial" font-size="14.00" fill="#000000">status    </text>
<text text-anchor="start" x="1698.5512" y="-435.9" font-family="Arial" font-size="14.00" fill="#666666">[user_status]</text>
<polygon fill="none" stroke="#000000" points="1620,-394.5 1620,-424.5 1900,-424.5 1900,-394.5 1620,-394.5"/>
<text text-anchor="start" x="1627" y="-405.9" font-family="Arial" font-size="14.00" fill="#000000">id    </text>
<text text-anchor="start" x="1672.094" y="-405.9" font-family="Arial" font-size="14.00" fill="#666666">[uuid]</text>
<polygon fill="none" stroke="#000000" points="1620,-364.5 1620,-394.5 1900,-394.5 1900,-364.5 1620,-364.5"/>
<text text-anchor="start" x="1626.9867" y="-375.9" font-family="Arial" font-size="14.00" fill="#000000">created_at    </text>
<text text-anchor="start" x="1727.3289" y="-375.9" font-family="Arial" font-size="14.00" fill="#666666">[timestamp with time zone]</text>
</g>
<!-- public.character_location -->
<g id="node6" class="node">
<title>public.character_location</title>
<polygon fill="#efefef" stroke="transparent" points="1176,-499.5 1176,-534.5 1516,-534.5 1516,-499.5 1176,-499.5"/>
<polygon fill="none" stroke="#000000" points="1176,-499.5 1176,-534.5 1516,-534.5 1516,-499.5 1176,-499.5"/>
<text text-anchor="start" x="1182.6949" y="-512.3" font-family="Arial Bold" font-size="18.00" fill="#000000">public.character_location</text>
<text text-anchor="start" x="1381.7371" y="-512.3" font-family="Arial" font-size="14.00" fill="#000000">    </text>
<text text-anchor="start" x="1415.9419" y="-512.3" font-family="Arial" font-size="14.00" fill="#666666">[BASE TABLE]</text>
<polygon fill="none" stroke="#000000" points="1176,-469.5 1176,-499.5 1516,-499.5 1516,-469.5 1176,-469.5"/>
<text text-anchor="start" x="1183" y="-480.9" font-family="Arial" font-size="14.00" fill="#000000">x    </text>
<text text-anchor="start" x="1224.2048" y="-480.9" font-family="Arial" font-size="14.00" fill="#666666">[integer]</text>
<polygon fill="none" stroke="#000000" points="1176,-439.5 1176,-469.5 1516,-469.5 1516,-439.5 1176,-439.5"/>
<text text-anchor="start" x="1183" y="-450.9" font-family="Arial" font-size="14.00" fill="#000000">y    </text>
<text text-anchor="start" x="1224.2048" y="-450.9" font-family="Arial" font-size="14.00" fill="#666666">[integer]</text>
<polygon fill="none" stroke="#000000" points="1176,-409.5 1176,-439.5 1516,-439.5 1516,-409.5 1176,-409.5"/>
<text text-anchor="start" x="1183" y="-420.9" font-family="Arial" font-size="14.00" fill="#000000">id    </text>
<text text-anchor="start" x="1228.094" y="-420.9" font-family="Arial" font-size="14.00" fill="#666666">[uuid]</text>
<polygon fill="none" stroke="#000000" points="1176,-379.5 1176,-409.5 1516,-409.5 1516,-379.5 1176,-379.5"/>
<text text-anchor="start" x="1183" y="-390.9" font-family="Arial" font-size="14.00" fill="#000000">created_at    </text>
<text text-anchor="start" x="1283.3422" y="-390.9" font-family="Arial" font-size="14.00" fill="#666666">[timestamp with time zone]</text>
</g>
<!-- public.place -->
<g id="node7" class="node">
<title>public.place</title>
<polygon fill="#efefef" stroke="transparent" points="2035,-1428.5 2035,-1463.5 2315,-1463.5 2315,-1428.5 2035,-1428.5"/>
<polygon fill="none" stroke="#000000" points="2035,-1428.5 2035,-1463.5 2315,-1463.5 2315,-1428.5 2035,-1428.5"/>
<text text-anchor="start" x="2063.705" y="-1441.3" font-family="Arial Bold" font-size="18.00" fill="#000000">public.place</text>
<text text-anchor="start" x="2158.727" y="-1441.3" font-family="Arial" font-size="14.00" fill="#000000">    </text>
<text text-anchor="start" x="2192.9318" y="-1441.3" font-family="Arial" font-size="14.00" fill="#666666">[BASE TABLE]</text>
<polygon fill="none" stroke="#000000" points="2035,-1398.5 2035,-1428.5 2315,-1428.5 2315,-1398.5 2035,-1398.5"/>
<text text-anchor="start" x="2042" y="-1409.9" font-family="Arial" font-size="14.00" fill="#000000">name    </text>
<text text-anchor="start" x="2111.2132" y="-1409.9" font-family="Arial" font-size="14.00" fill="#666666">[varchar(50)]</text>
<polygon fill="none" stroke="#000000" points="2035,-1368.5 2035,-1398.5 2315,-1398.5 2315,-1368.5 2035,-1368.5"/>
<text text-anchor="start" x="2042" y="-1379.9" font-family="Arial" font-size="14.00" fill="#000000">radius    </text>
<text text-anchor="start" x="2114.3198" y="-1379.9" font-family="Arial" font-size="14.00" fill="#666666">[double precision]</text>
<polygon fill="none" stroke="#000000" points="2035,-1338.5 2035,-1368.5 2315,-1368.5 2315,-1338.5 2035,-1338.5"/>
<text text-anchor="start" x="2042" y="-1349.9" font-family="Arial" font-size="14.00" fill="#000000">x    </text>
<text text-anchor="start" x="2083.2048" y="-1349.9" font-family="Arial" font-size="14.00" fill="#666666">[integer]</text>
<polygon fill="none" stroke="#000000" points="2035,-1308.5 2035,-1338.5 2315,-1338.5 2315,-1308.5 2035,-1308.5"/>
<text text-anchor="start" x="2042" y="-1319.9" font-family="Arial" font-size="14.00" fill="#000000">y    </text>
<text text-anchor="start" x="2083.2048" y="-1319.9" font-family="Arial" font-size="14.00" fill="#666666">[integer]</text>
<polygon fill="none" stroke="#000000" points="2035,-1278.5 2035,-1308.5 2315,-1308.5 2315,-1278.5 2035,-1278.5"/>
<text text-anchor="start" x="2042" y="-1289.9" font-family="Arial" font-size="14.00" fill="#000000">id    </text>
<text text-anchor="start" x="2087.094" y="-1289.9" font-family="Arial" font-size="14.00" fill="#666666">[uuid]</text>
<polygon fill="none" stroke="#000000" points="2035,-1248.5 2035,-1278.5 2315,-1278.5 2315,-1248.5 2035,-1248.5"/>
<text text-anchor="start" x="2041.9867" y="-1259.9" font-family="Arial" font-size="14.00" fill="#000000">created_at    </text>
<text text-anchor="start" x="2142.3289" y="-1259.9" font-family="Arial" font-size="14.00" fill="#666666">[timestamp with time zone]</text>
<polygon fill="none" stroke="#000000" points="2035,-1218.5 2035,-1248.5 2315,-1248.5 2315,-1218.5 2035,-1218.5"/>
<text text-anchor="start" x="2042" y="-1229.9" font-family="Arial" font-size="14.00" fill="#000000">description    </text>
<text text-anchor="start" x="2143.8822" y="-1229.9" font-family="Arial" font-size="14.00" fill="#666666">[varchar(500)]</text>
<polygon fill="none" stroke="#000000" points="2035,-1188.5 2035,-1218.5 2315,-1218.5 2315,-1188.5 2035,-1188.5"/>
<text text-anchor="start" x="2042" y="-1199.9" font-family="Arial" font-size="14.00" fill="#000000">ts_vector    </text>
<text text-anchor="start" x="2132.9944" y="-1199.9" font-family="Arial" font-size="14.00" fill="#666666">[tsvector]</text>
</g>
<!-- public.ability -->
<g id="node8" class="node">
<title>public.ability</title>
<polygon fill="#efefef" stroke="transparent" points="404,-529.5 404,-564.5 684,-564.5 684,-529.5 404,-529.5"/>
<polygon fill="none" stroke="#000000" points="404,-529.5 404,-564.5 684,-564.5 684,-529.5 404,-529.5"/>
<text text-anchor="start" x="431.2128" y="-542.3" font-family="Arial Bold" font-size="18.00" fill="#000000">public.ability</text>
<text text-anchor="start" x="529.2192" y="-542.3" font-family="Arial" font-size="14.00" fill="#000000">    </text>
<text text-anchor="start" x="563.424" y="-542.3" font-family="Arial" font-size="14.00" fill="#666666">[BASE TABLE]</text>
<polygon fill="none" stroke="#000000" points="404,-499.5 404,-529.5 684,-529.5 684,-499.5 404,-499.5"/>
<text text-anchor="start" x="411" y="-510.9" font-family="Arial" font-size="14.00" fill="#000000">name    </text>
<text text-anchor="start" x="480.2132" y="-510.9" font-family="Arial" font-size="14.00" fill="#666666">[varchar(50)]</text>
<polygon fill="none" stroke="#000000" points="404,-469.5 404,-499.5 684,-499.5 684,-469.5 404,-469.5"/>
<text text-anchor="start" x="411" y="-480.9" font-family="Arial" font-size="14.00" fill="#000000">ability_type_id    </text>
<text text-anchor="start" x="533.8906" y="-480.9" font-family="Arial" font-size="14.00" fill="#666666">[uuid]</text>
<polygon fill="none" stroke="#000000" points="404,-439.5 404,-469.5 684,-469.5 684,-439.5 404,-439.5"/>
<text text-anchor="start" x="411" y="-450.9" font-family="Arial" font-size="14.00" fill="#000000">id    </text>
<text text-anchor="start" x="456.094" y="-450.9" font-family="Arial" font-size="14.00" fill="#666666">[uuid]</text>
<polygon fill="none" stroke="#000000" points="404,-409.5 404,-439.5 684,-439.5 684,-409.5 404,-409.5"/>
<text text-anchor="start" x="410.9867" y="-420.9" font-family="Arial" font-size="14.00" fill="#000000">created_at    </text>
<text text-anchor="start" x="511.3289" y="-420.9" font-family="Arial" font-size="14.00" fill="#666666">[timestamp with time zone]</text>
<polygon fill="none" stroke="#000000" points="404,-379.5 404,-409.5 684,-409.5 684,-379.5 404,-379.5"/>
<text text-anchor="start" x="411" y="-390.9" font-family="Arial" font-size="14.00" fill="#000000">description    </text>
<text text-anchor="start" x="512.8822" y="-390.9" font-family="Arial" font-size="14.00" fill="#666666">[varchar(500)]</text>
<polygon fill="none" stroke="#000000" points="404,-349.5 404,-379.5 684,-379.5 684,-349.5 404,-349.5"/>
<text text-anchor="start" x="411" y="-360.9" font-family="Arial" font-size="14.00" fill="#000000">ts_vector    </text>
<text text-anchor="start" x="501.9944" y="-360.9" font-family="Arial" font-size="14.00" fill="#666666">[tsvector]</text>
</g>
<!-- public.ability&#45;&gt;public.ability_type -->
<g id="edge1" class="edge">
<title>public.ability:ability_type_id&#45;&gt;public.ability_type:id</title>
<path fill="none" stroke="#000000" d="M394.0009,-483.8C327.5674,-473.9926 354.2231,-363.5609 404,-307 487.1826,-212.4807 601.8174,-365.5193 685,-271 730.0712,-219.7862 753.2222,-117.5 685,-117.5"/>
<polygon fill="#000000" stroke="#000000" points="394.0244,-483.8016 403.6857,-488.989 399.0122,-484.1508 404,-484.5 404,-484.5 404,-484.5 399.0122,-484.1508 404.3143,-480.011 394.0244,-483.8016 394.0244,-483.8016"/>
<text text-anchor="start" x="6.9905" y="-494.5" font-family="Arial" font-size="10.00" fill="#000000">FOREIGN KEY (ability_type_id) REFERENCES ability_type(id) ON DELETE CASCADE</text>
</g>
<!-- public.character -->
<g id="node9" class="node">
<title>public.character</title>
<polygon fill="#efefef" stroke="transparent" points="1221,-1016.5 1221,-1051.5 1501,-1051.5 1501,-1016.5 1221,-1016.5"/>
<polygon fill="none" stroke="#000000" points="1221,-1016.5 1221,-1051.5 1501,-1051.5 1501,-1016.5 1221,-1016.5"/>
<text text-anchor="start" x="1233.7057" y="-1029.3" font-family="Arial Bold" font-size="18.00" fill="#000000">public.character</text>
<text text-anchor="start" x="1360.7263" y="-1029.3" font-family="Arial" font-size="14.00" fill="#000000">    </text>
<text text-anchor="start" x="1394.9311" y="-1029.3" font-family="Arial" font-size="14.00" fill="#666666">[BASE TABLE]</text>
<polygon fill="none" stroke="#000000" points="1221,-986.5 1221,-1016.5 1501,-1016.5 1501,-986.5 1221,-986.5"/>
<text text-anchor="start" x="1228" y="-997.9" font-family="Arial" font-size="14.00" fill="#000000">base_class_id    </text>
<text text-anchor="start" x="1350.8962" y="-997.9" font-family="Arial" font-size="14.00" fill="#666666">[uuid]</text>
<polygon fill="none" stroke="#000000" points="1221,-956.5 1221,-986.5 1501,-986.5 1501,-956.5 1221,-956.5"/>
<text text-anchor="start" x="1228" y="-967.9" font-family="Arial" font-size="14.00" fill="#000000">user_id    </text>
<text text-anchor="start" x="1308.1024" y="-967.9" font-family="Arial" font-size="14.00" fill="#666666">[uuid]</text>
<polygon fill="none" stroke="#000000" points="1221,-926.5 1221,-956.5 1501,-956.5 1501,-926.5 1221,-926.5"/>
<text text-anchor="start" x="1228" y="-937.9" font-family="Arial" font-size="14.00" fill="#000000">character_location_id    </text>
<text text-anchor="start" x="1395.2356" y="-937.9" font-family="Arial" font-size="14.00" fill="#666666">[uuid]</text>
<polygon fill="none" stroke="#000000" points="1221,-896.5 1221,-926.5 1501,-926.5 1501,-896.5 1221,-896.5"/>
<text text-anchor="start" x="1228" y="-907.9" font-family="Arial" font-size="14.00" fill="#000000">gender    </text>
<text text-anchor="start" x="1305.7784" y="-907.9" font-family="Arial" font-size="14.00" fill="#666666">[gender]</text>
<polygon fill="none" stroke="#000000" points="1221,-866.5 1221,-896.5 1501,-896.5 1501,-866.5 1221,-866.5"/>
<text text-anchor="start" x="1228" y="-877.9" font-family="Arial" font-size="14.00" fill="#000000">character_name    </text>
<text text-anchor="start" x="1363.338" y="-877.9" font-family="Arial" font-size="14.00" fill="#666666">[varchar(50)]</text>
<polygon fill="none" stroke="#000000" points="1221,-836.5 1221,-866.5 1501,-866.5 1501,-836.5 1221,-836.5"/>
<text text-anchor="start" x="1228" y="-847.9" font-family="Arial" font-size="14.00" fill="#000000">alive    </text>
<text text-anchor="start" x="1290.9832" y="-847.9" font-family="Arial" font-size="14.00" fill="#666666">[boolean]</text>
<polygon fill="none" stroke="#000000" points="1221,-806.5 1221,-836.5 1501,-836.5 1501,-806.5 1221,-806.5"/>
<text text-anchor="start" x="1228" y="-817.9" font-family="Arial" font-size="14.00" fill="#000000">level    </text>
<text text-anchor="start" x="1290.9832" y="-817.9" font-family="Arial" font-size="14.00" fill="#666666">[integer]</text>
<polygon fill="none" stroke="#000000" points="1221,-776.5 1221,-806.5 1501,-806.5 1501,-776.5 1221,-776.5"/>
<text text-anchor="start" x="1228" y="-787.9" font-family="Arial" font-size="14.00" fill="#000000">xp    </text>
<text text-anchor="start" x="1276.9874" y="-787.9" font-family="Arial" font-size="14.00" fill="#666666">[integer]</text>
<polygon fill="none" stroke="#000000" points="1221,-746.5 1221,-776.5 1501,-776.5 1501,-746.5 1221,-746.5"/>
<text text-anchor="start" x="1228" y="-757.9" font-family="Arial" font-size="14.00" fill="#000000">money    </text>
<text text-anchor="start" x="1304.2132" y="-757.9" font-family="Arial" font-size="14.00" fill="#666666">[integer]</text>
<polygon fill="none" stroke="#000000" points="1221,-716.5 1221,-746.5 1501,-746.5 1501,-716.5 1221,-716.5"/>
<text text-anchor="start" x="1228" y="-727.9" font-family="Arial" font-size="14.00" fill="#000000">id    </text>
<text text-anchor="start" x="1273.094" y="-727.9" font-family="Arial" font-size="14.00" fill="#666666">[uuid]</text>
<polygon fill="none" stroke="#000000" points="1221,-686.5 1221,-716.5 1501,-716.5 1501,-686.5 1221,-686.5"/>
<text text-anchor="start" x="1227.9867" y="-697.9" font-family="Arial" font-size="14.00" fill="#000000">created_at    </text>
<text text-anchor="start" x="1328.3289" y="-697.9" font-family="Arial" font-size="14.00" fill="#666666">[timestamp with time zone]</text>
</g>
<!-- public.character&#45;&gt;public.base_class -->
<g id="edge2" class="edge">
<title>public.character:base_class_id&#45;&gt;public.base_class:id</title>
<path fill="none" stroke="#000000" d="M1213.9439,-994.3818C1178.5946,-931.2517 1100.5947,-469.5 1072,-469.5"/>
<polygon fill="#000000" stroke="#000000" points="1213.96,-994.398 1217.8041,-1004.668 1217.48,-997.949 1221,-1001.5 1221,-1001.5 1221,-1001.5 1217.48,-997.949 1224.1959,-998.332 1213.96,-994.398 1213.96,-994.398"/>
<text text-anchor="start" x="825.262" y="-1011.5" font-family="Arial" font-size="10.00" fill="#000000">FOREIGN KEY (base_class_id) REFERENCES base_class(id) ON DELETE SET NULL</text>
</g>
<!-- public.character&#45;&gt;public.base_user -->
<g id="edge3" class="edge">
<title>public.character:user_id&#45;&gt;public.base_user:id</title>
<path fill="none" stroke="#000000" d="M1510.1822,-967.2994C1564.1366,-915.8711 1559.4124,-409.5 1620,-409.5"/>
<polygon fill="#000000" stroke="#000000" points="1510.0936,-967.3399 1499.1279,-967.4079 1505.5468,-969.4199 1501,-971.5 1501,-971.5 1501,-971.5 1505.5468,-969.4199 1502.8721,-975.5921 1510.0936,-967.3399 1510.0936,-967.3399"/>
<text text-anchor="start" x="1507.9355" y="-981.5" font-family="Arial" font-size="10.00" fill="#000000">FOREIGN KEY (user_id) REFERENCES base_user(id) ON DELETE CASCADE</text>
</g>
<!-- public.character&#45;&gt;public.character_location -->
<g id="edge4" class="edge">
<title>public.character:character_location_id&#45;&gt;public.character_location:id</title>
<path fill="none" stroke="#000000" d="M1210.9174,-941.1C1091.4144,-931.317 1140.5185,-744.4772 1221,-644 1304.9928,-539.1392 1432.0072,-682.8608 1516,-578 1558.6503,-524.7532 1584.2222,-424.5 1516,-424.5"/>
<polygon fill="#000000" stroke="#000000" points="1211.0079,-941.1035 1220.8216,-945.9965 1216.0039,-941.3017 1221,-941.5 1221,-941.5 1221,-941.5 1216.0039,-941.3017 1221.1784,-937.0035 1211.0079,-941.1035 1211.0079,-941.1035"/>
<text text-anchor="start" x="994.591" y="-925.5" font-family="Arial" font-size="10.00" fill="#000000">FOREIGN KEY (character_location_id) REFERENCES character_location(id) ON DELETE SET NULL</text>
</g>
<!-- public.relation -->
<g id="node10" class="node">
<title>public.relation</title>
<polygon fill="#efefef" stroke="transparent" points="1620,-911.5 1620,-946.5 1900,-946.5 1900,-911.5 1620,-911.5"/>
<polygon fill="none" stroke="#000000" points="1620,-911.5 1620,-946.5 1900,-946.5 1900,-911.5 1620,-911.5"/>
<text text-anchor="start" x="1640.7076" y="-924.3" font-family="Arial Bold" font-size="18.00" fill="#000000">public.relation</text>
<text text-anchor="start" x="1751.7244" y="-924.3" font-family="Arial" font-size="14.00" fill="#000000">    </text>
<text text-anchor="start" x="1785.9292" y="-924.3" font-family="Arial" font-size="14.00" fill="#666666">[BASE TABLE]</text>
<polygon fill="none" stroke="#000000" points="1620,-881.5 1620,-911.5 1900,-911.5 1900,-881.5 1620,-881.5"/>
<text text-anchor="start" x="1627" y="-892.9" font-family="Arial" font-size="14.00" fill="#000000">user1_id    </text>
<text text-anchor="start" x="1714.885" y="-892.9" font-family="Arial" font-size="14.00" fill="#666666">[uuid]</text>
<polygon fill="none" stroke="#000000" points="1620,-851.5 1620,-881.5 1900,-881.5 1900,-851.5 1620,-851.5"/>
<text text-anchor="start" x="1627" y="-862.9" font-family="Arial" font-size="14.00" fill="#000000">user2_id    </text>
<text text-anchor="start" x="1714.885" y="-862.9" font-family="Arial" font-size="14.00" fill="#666666">[uuid]</text>
<polygon fill="none" stroke="#000000" points="1620,-821.5 1620,-851.5 1900,-851.5 1900,-821.5 1620,-821.5"/>
<text text-anchor="start" x="1627" y="-832.9" font-family="Arial" font-size="14.00" fill="#000000">id    </text>
<text text-anchor="start" x="1672.094" y="-832.9" font-family="Arial" font-size="14.00" fill="#666666">[uuid]</text>
<polygon fill="none" stroke="#000000" points="1620,-791.5 1620,-821.5 1900,-821.5 1900,-791.5 1620,-791.5"/>
<text text-anchor="start" x="1626.9867" y="-802.9" font-family="Arial" font-size="14.00" fill="#000000">created_at    </text>
<text text-anchor="start" x="1727.3289" y="-802.9" font-family="Arial" font-size="14.00" fill="#666666">[timestamp with time zone]</text>
</g>
<!-- public.relation&#45;&gt;public.base_user -->
<g id="edge5" class="edge">
<title>public.relation:user1_id&#45;&gt;public.base_user:id</title>
<path fill="none" stroke="#000000" d="M1908.9544,-891.68C1953.9253,-841.1017 1950.9405,-409.5 1900,-409.5"/>
<polygon fill="#000000" stroke="#000000" points="1908.8054,-891.7602 1897.8671,-892.5376 1904.4027,-894.1301 1900,-896.5 1900,-896.5 1900,-896.5 1904.4027,-894.1301 1902.1329,-900.4624 1908.8054,-891.7602 1908.8054,-891.7602"/>
<text text-anchor="start" x="1532.156" y="-906.5" font-family="Arial" font-size="10.00" fill="#000000">FOREIGN KEY (user1_id) REFERENCES base_user(id) ON DELETE CASCADE</text>
</g>
<!-- public.relation&#45;&gt;public.base_user -->
<g id="edge6" class="edge">
<title>public.relation:user2_id&#45;&gt;public.base_user:id</title>
<path fill="none" stroke="#000000" d="M1908.9258,-861.3677C1950.5794,-811.1602 1947.6042,-409.5 1900,-409.5"/>
<polygon fill="#000000" stroke="#000000" points="1908.6691,-861.5152 1897.7569,-862.5989 1904.3345,-864.0076 1900,-866.5 1900,-866.5 1900,-866.5 1904.3345,-864.0076 1902.2431,-870.4011 1908.6691,-861.5152 1908.6691,-861.5152"/>
<text text-anchor="start" x="1532.156" y="-876.5" font-family="Arial" font-size="10.00" fill="#000000">FOREIGN KEY (user2_id) REFERENCES base_user(id) ON DELETE CASCADE</text>
</g>
<!-- public.class_ability -->
<g id="node11" class="node">
<title>public.class_ability</title>
<polygon fill="#efefef" stroke="transparent" points="592,-911.5 592,-946.5 882,-946.5 882,-911.5 592,-911.5"/>
<polygon fill="none" stroke="#000000" points="592,-911.5 592,-946.5 882,-946.5 882,-911.5 592,-911.5"/>
<text text-anchor="start" x="598.7095" y="-924.3" font-family="Arial Bold" font-size="18.00" fill="#000000">public.class_ability</text>
<text text-anchor="start" x="747.7225" y="-924.3" font-family="Arial" font-size="14.00" fill="#000000">    </text>
<text text-anchor="start" x="781.9273" y="-924.3" font-family="Arial" font-size="14.00" fill="#666666">[BASE TABLE]</text>
<polygon fill="none" stroke="#000000" points="592,-881.5 592,-911.5 882,-911.5 882,-881.5 592,-881.5"/>
<text text-anchor="start" x="599" y="-892.9" font-family="Arial" font-size="14.00" fill="#000000">base_class_id    </text>
<text text-anchor="start" x="721.8962" y="-892.9" font-family="Arial" font-size="14.00" fill="#666666">[uuid]</text>
<polygon fill="none" stroke="#000000" points="592,-851.5 592,-881.5 882,-881.5 882,-851.5 592,-851.5"/>
<text text-anchor="start" x="599" y="-862.9" font-family="Arial" font-size="14.00" fill="#000000">ability_id    </text>
<text text-anchor="start" x="687.6522" y="-862.9" font-family="Arial" font-size="14.00" fill="#666666">[uuid]</text>
<polygon fill="none" stroke="#000000" points="592,-821.5 592,-851.5 882,-851.5 882,-821.5 592,-821.5"/>
<text text-anchor="start" x="599" y="-832.9" font-family="Arial" font-size="14.00" fill="#000000">id    </text>
<text text-anchor="start" x="644.094" y="-832.9" font-family="Arial" font-size="14.00" fill="#666666">[uuid]</text>
<polygon fill="none" stroke="#000000" points="592,-791.5 592,-821.5 882,-821.5 882,-791.5 592,-791.5"/>
<text text-anchor="start" x="599" y="-802.9" font-family="Arial" font-size="14.00" fill="#000000">created_at    </text>
<text text-anchor="start" x="699.3422" y="-802.9" font-family="Arial" font-size="14.00" fill="#666666">[timestamp with time zone]</text>
</g>
<!-- public.class_ability&#45;&gt;public.base_class -->
<g id="edge7" class="edge">
<title>public.class_ability:base_class_id&#45;&gt;public.base_class:id</title>
<path fill="none" stroke="#000000" d="M891.9987,-896.1009C1016.7702,-885.5409 809.7565,-668.3524 789,-593 774.4233,-540.0821 734.1111,-469.5 789,-469.5"/>
<polygon fill="#000000" stroke="#000000" points="891.992,-896.101 881.8205,-892.0036 886.996,-896.3005 882,-896.5 882,-896.5 882,-896.5 886.996,-896.3005 882.1795,-900.9964 891.992,-896.101 891.992,-896.101"/>
<text text-anchor="start" x="888.9865" y="-880.5" font-family="Arial" font-size="10.00" fill="#000000">FOREIGN KEY (base_class_id) REFERENCES base_class(id) ON DELETE CASCADE</text>
</g>
<!-- public.class_ability&#45;&gt;public.ability -->
<g id="edge8" class="edge">
<title>public.class_ability:ability_id&#45;&gt;public.ability:id</title>
<path fill="none" stroke="#000000" d="M581.8066,-865.4201C545.1962,-856.5845 578.2188,-795.3406 592,-749 613.3293,-677.2778 662.6707,-679.7222 684,-608 703.4468,-542.6081 752.2222,-454.5 684,-454.5"/>
<polygon fill="#000000" stroke="#000000" points="582.0556,-865.4464 591.5259,-870.975 587.0278,-865.9732 592,-866.5 592,-866.5 592,-866.5 587.0278,-865.9732 592.4741,-862.025 582.0556,-865.4464 582.0556,-865.4464"/>
<text text-anchor="start" x="244.4465" y="-876.5" font-family="Arial" font-size="10.00" fill="#000000">FOREIGN KEY (ability_id) REFERENCES ability(id) ON DELETE CASCADE</text>
</g>
<!-- public.character_attribute -->
<g id="node12" class="node">
<title>public.character_attribute</title>
<polygon fill="#efefef" stroke="transparent" points="1588,-1383.5 1588,-1418.5 1931,-1418.5 1931,-1383.5 1588,-1383.5"/>
<polygon fill="none" stroke="#000000" points="1588,-1383.5 1588,-1418.5 1931,-1418.5 1931,-1383.5 1588,-1383.5"/>
<text text-anchor="start" x="1594.6937" y="-1396.3" font-family="Arial Bold" font-size="18.00" fill="#000000">public.character_attribute</text>
<text text-anchor="start" x="1796.7383" y="-1396.3" font-family="Arial" font-size="14.00" fill="#000000">    </text>
<text text-anchor="start" x="1830.9431" y="-1396.3" font-family="Arial" font-size="14.00" fill="#666666">[BASE TABLE]</text>
<polygon fill="none" stroke="#000000" points="1588,-1353.5 1588,-1383.5 1931,-1383.5 1931,-1353.5 1588,-1353.5"/>
<text text-anchor="start" x="1595" y="-1364.9" font-family="Arial" font-size="14.00" fill="#000000">character_id    </text>
<text text-anchor="start" x="1706.2188" y="-1364.9" font-family="Arial" font-size="14.00" fill="#666666">[uuid]</text>
<polygon fill="none" stroke="#000000" points="1588,-1323.5 1588,-1353.5 1931,-1353.5 1931,-1323.5 1588,-1323.5"/>
<text text-anchor="start" x="1595" y="-1334.9" font-family="Arial" font-size="14.00" fill="#000000">attribute_id    </text>
<text text-anchor="start" x="1698.446" y="-1334.9" font-family="Arial" font-size="14.00" fill="#666666">[uuid]</text>
<polygon fill="none" stroke="#000000" points="1588,-1293.5 1588,-1323.5 1931,-1323.5 1931,-1293.5 1588,-1293.5"/>
<text text-anchor="start" x="1595" y="-1304.9" font-family="Arial" font-size="14.00" fill="#000000">value    </text>
<text text-anchor="start" x="1662.6592" y="-1304.9" font-family="Arial" font-size="14.00" fill="#666666">[integer]</text>
<polygon fill="none" stroke="#000000" points="1588,-1263.5 1588,-1293.5 1931,-1293.5 1931,-1263.5 1588,-1263.5"/>
<text text-anchor="start" x="1595" y="-1274.9" font-family="Arial" font-size="14.00" fill="#000000">id    </text>
<text text-anchor="start" x="1640.094" y="-1274.9" font-family="Arial" font-size="14.00" fill="#666666">[uuid]</text>
<polygon fill="none" stroke="#000000" points="1588,-1233.5 1588,-1263.5 1931,-1263.5 1931,-1233.5 1588,-1233.5"/>
<text text-anchor="start" x="1595" y="-1244.9" font-family="Arial" font-size="14.00" fill="#000000">created_at    </text>
<text text-anchor="start" x="1695.3422" y="-1244.9" font-family="Arial" font-size="14.00" fill="#666666">[timestamp with time zone]</text>
</g>
<!-- public.character_attribute&#45;&gt;public.attribute -->
<g id="edge9" class="edge">
<title>public.character_attribute:attribute_id&#45;&gt;public.attribute:id</title>
<path fill="none" stroke="#000000" d="M1941.0747,-1336.925C2031.0266,-1306.697 1898.2022,-851.5 2004,-851.5"/>
<polygon fill="#000000" stroke="#000000" points="1940.88,-1336.9553 1930.3049,-1334.054 1935.94,-1337.7277 1931,-1338.5 1931,-1338.5 1931,-1338.5 1935.94,-1337.7277 1931.6951,-1342.946 1940.88,-1336.9553 1940.88,-1336.9553"/>
<text text-anchor="start" x="1805.6605" y="-1322.5" font-family="Arial" font-size="10.00" fill="#000000">FOREIGN KEY (attribute_id) REFERENCES attribute(id)</text>
</g>
<!-- public.character_attribute&#45;&gt;public.character -->
<g id="edge10" class="edge">
<title>public.character_attribute:character_id&#45;&gt;public.character:id</title>
<path fill="none" stroke="#000000" d="M1578.7674,-1364.4322C1521.5232,-1310.1809 1569.0863,-731.5 1501,-731.5"/>
<polygon fill="#000000" stroke="#000000" points="1578.8488,-1364.4681 1586.1856,-1372.618 1583.4244,-1366.484 1588,-1368.5 1588,-1368.5 1588,-1368.5 1583.4244,-1366.484 1589.8144,-1364.382 1578.8488,-1364.4681 1578.8488,-1364.4681"/>
<text text-anchor="start" x="1594.7785" y="-1378.5" font-family="Arial" font-size="10.00" fill="#000000">FOREIGN KEY (character_id) REFERENCES &quot;character&quot;(id) ON DELETE CASCADE</text>
</g>
<!-- public.audit_log -->
<g id="node13" class="node">
<title>public.audit_log</title>
<polygon fill="#efefef" stroke="transparent" points="2419,-1413.5 2419,-1448.5 2699,-1448.5 2699,-1413.5 2419,-1413.5"/>
<polygon fill="none" stroke="#000000" points="2419,-1413.5 2419,-1448.5 2699,-1448.5 2699,-1413.5 2419,-1413.5"/>
<text text-anchor="start" x="2432.6975" y="-1426.3" font-family="Arial Bold" font-size="18.00" fill="#000000">public.audit_log</text>
<text text-anchor="start" x="2557.7345" y="-1426.3" font-family="Arial" font-size="14.00" fill="#000000">    </text>
<text text-anchor="start" x="2591.9393" y="-1426.3" font-family="Arial" font-size="14.00" fill="#666666">[BASE TABLE]</text>
<polygon fill="none" stroke="#000000" points="2419,-1383.5 2419,-1413.5 2699,-1413.5 2699,-1383.5 2419,-1383.5"/>
<text text-anchor="start" x="2426" y="-1394.9" font-family="Arial" font-size="14.00" fill="#000000">db_user    </text>
<text text-anchor="start" x="2510.7784" y="-1394.9" font-family="Arial" font-size="14.00" fill="#666666">[varchar(50)]</text>
<polygon fill="none" stroke="#000000" points="2419,-1353.5 2419,-1383.5 2699,-1383.5 2699,-1353.5 2419,-1353.5"/>
<text text-anchor="start" x="2426" y="-1364.9" font-family="Arial" font-size="14.00" fill="#000000">table_name    </text>
<text text-anchor="start" x="2533.3408" y="-1364.9" font-family="Arial" font-size="14.00" fill="#666666">[varchar(50)]</text>
<polygon fill="none" stroke="#000000" points="2419,-1323.5 2419,-1353.5 2699,-1353.5 2699,-1323.5 2419,-1323.5"/>
<text text-anchor="start" x="2426" y="-1334.9" font-family="Arial" font-size="14.00" fill="#000000">action    </text>
<text text-anchor="start" x="2497.5498" y="-1334.9" font-family="Arial" font-size="14.00" fill="#666666">[varchar(50)]</text>
<polygon fill="none" stroke="#000000" points="2419,-1293.5 2419,-1323.5 2699,-1323.5 2699,-1293.5 2419,-1293.5"/>
<text text-anchor="start" x="2426" y="-1304.9" font-family="Arial" font-size="14.00" fill="#000000">old_values    </text>
<text text-anchor="start" x="2527.1136" y="-1304.9" font-family="Arial" font-size="14.00" fill="#666666">[json]</text>
<polygon fill="none" stroke="#000000" points="2419,-1263.5 2419,-1293.5 2699,-1293.5 2699,-1263.5 2419,-1263.5"/>
<text text-anchor="start" x="2426" y="-1274.9" font-family="Arial" font-size="14.00" fill="#000000">new_values    </text>
<text text-anchor="start" x="2534.1136" y="-1274.9" font-family="Arial" font-size="14.00" fill="#666666">[json]</text>
<polygon fill="none" stroke="#000000" points="2419,-1233.5 2419,-1263.5 2699,-1263.5 2699,-1233.5 2419,-1233.5"/>
<text text-anchor="start" x="2426" y="-1244.9" font-family="Arial" font-size="14.00" fill="#000000">id    </text>
<text text-anchor="start" x="2471.094" y="-1244.9" font-family="Arial" font-size="14.00" fill="#666666">[uuid]</text>
<polygon fill="none" stroke="#000000" points="2419,-1203.5 2419,-1233.5 2699,-1233.5 2699,-1203.5 2419,-1203.5"/>
<text text-anchor="start" x="2425.9867" y="-1214.9" font-family="Arial" font-size="14.00" fill="#000000">created_at    </text>
<text text-anchor="start" x="2526.3289" y="-1214.9" font-family="Arial" font-size="14.00" fill="#666666">[timestamp with time zone]</text>
</g>
<!-- public.character_details_view -->
<g id="node14" class="node">
<title>public.character_details_view</title>
<polygon fill="#efefef" stroke="transparent" points="2803,-1443.5 2803,-1478.5 3129,-1478.5 3129,-1443.5 2803,-1443.5"/>
<polygon fill="none" stroke="#000000" points="2803,-1443.5 2803,-1478.5 3129,-1478.5 3129,-1443.5 2803,-1443.5"/>
<text text-anchor="start" x="2809.5994" y="-1456.3" font-family="Arial Bold" font-size="18.00" fill="#000000">public.character_details_view</text>
<text text-anchor="start" x="3044.6362" y="-1456.3" font-family="Arial" font-size="14.00" fill="#000000">    </text>
<text text-anchor="start" x="3078.841" y="-1456.3" font-family="Arial" font-size="14.00" fill="#666666">[VIEW]</text>
<polygon fill="none" stroke="#000000" points="2803,-1413.5 2803,-1443.5 3129,-1443.5 3129,-1413.5 2803,-1413.5"/>
<text text-anchor="start" x="2810" y="-1424.9" font-family="Arial" font-size="14.00" fill="#000000">character_id    </text>
<text text-anchor="start" x="2921.2188" y="-1424.9" font-family="Arial" font-size="14.00" fill="#666666">[uuid]</text>
<polygon fill="none" stroke="#000000" points="2803,-1383.5 2803,-1413.5 3129,-1413.5 3129,-1383.5 2803,-1383.5"/>
<text text-anchor="start" x="2810" y="-1394.9" font-family="Arial" font-size="14.00" fill="#000000">character_name    </text>
<text text-anchor="start" x="2945.338" y="-1394.9" font-family="Arial" font-size="14.00" fill="#666666">[varchar(50)]</text>
<polygon fill="none" stroke="#000000" points="2803,-1353.5 2803,-1383.5 3129,-1383.5 3129,-1353.5 2803,-1353.5"/>
<text text-anchor="start" x="2810" y="-1364.9" font-family="Arial" font-size="14.00" fill="#000000">gender    </text>
<text text-anchor="start" x="2887.7784" y="-1364.9" font-family="Arial" font-size="14.00" fill="#666666">[gender]</text>
<polygon fill="none" stroke="#000000" points="2803,-1323.5 2803,-1353.5 3129,-1353.5 3129,-1323.5 2803,-1323.5"/>
<text text-anchor="start" x="2810" y="-1334.9" font-family="Arial" font-size="14.00" fill="#000000">class_name    </text>
<text text-anchor="start" x="2918.885" y="-1334.9" font-family="Arial" font-size="14.00" fill="#666666">[varchar(50)]</text>
<polygon fill="none" stroke="#000000" points="2803,-1293.5 2803,-1323.5 3129,-1323.5 3129,-1293.5 2803,-1293.5"/>
<text text-anchor="start" x="2810" y="-1304.9" font-family="Arial" font-size="14.00" fill="#000000">place_name    </text>
<text text-anchor="start" x="2920.4502" y="-1304.9" font-family="Arial" font-size="14.00" fill="#666666">[varchar]</text>
<polygon fill="none" stroke="#000000" points="2803,-1263.5 2803,-1293.5 3129,-1293.5 3129,-1263.5 2803,-1263.5"/>
<text text-anchor="start" x="2810" y="-1274.9" font-family="Arial" font-size="14.00" fill="#000000">alive    </text>
<text text-anchor="start" x="2872.9832" y="-1274.9" font-family="Arial" font-size="14.00" fill="#666666">[boolean]</text>
<polygon fill="none" stroke="#000000" points="2803,-1233.5 2803,-1263.5 3129,-1263.5 3129,-1233.5 2803,-1233.5"/>
<text text-anchor="start" x="2810" y="-1244.9" font-family="Arial" font-size="14.00" fill="#000000">level    </text>
<text text-anchor="start" x="2872.9832" y="-1244.9" font-family="Arial" font-size="14.00" fill="#666666">[integer]</text>
<polygon fill="none" stroke="#000000" points="2803,-1203.5 2803,-1233.5 3129,-1233.5 3129,-1203.5 2803,-1203.5"/>
<text text-anchor="start" x="2810" y="-1214.9" font-family="Arial" font-size="14.00" fill="#000000">xp    </text>
<text text-anchor="start" x="2858.9874" y="-1214.9" font-family="Arial" font-size="14.00" fill="#666666">[integer]</text>
<polygon fill="none" stroke="#000000" points="2803,-1173.5 2803,-1203.5 3129,-1203.5 3129,-1173.5 2803,-1173.5"/>
<text text-anchor="start" x="2810" y="-1184.9" font-family="Arial" font-size="14.00" fill="#000000">money    </text>
<text text-anchor="start" x="2886.2132" y="-1184.9" font-family="Arial" font-size="14.00" fill="#666666">[integer]</text>
</g>
</g>
</svg>
