<?xml version="1.0" encoding="UTF-8" standalone="no"?>
<!DOCTYPE svg PUBLIC "-//W3C//DTD SVG 1.1//EN"
 "http://www.w3.org/Graphics/SVG/1.1/DTD/svg11.dtd">
<!-- Generated by graphviz version 2.40.1 (20161225.0304)
 -->
<!-- Title: public.accounts Pages: 1 -->
<svg width="658pt" height="779pt"
 viewBox="0.00 0.00 658.00 779.00" xmlns="http://www.w3.org/2000/svg" xmlns:xlink="http://www.w3.org/1999/xlink">
<g id="graph0" class="graph" transform="scale(1 1) rotate(0) translate(4 775)">
<title>public.accounts</title>
<polygon fill="#ffffff" stroke="transparent" points="-4,4 -4,-775 654,-775 654,4 -4,4"/>
<!-- public.accounts -->
<g id="node1" class="node">
<title>public.accounts</title>
<polygon fill="#efefef" stroke="transparent" points="280,-442.5 280,-477.5 545,-477.5 545,-442.5 280,-442.5"/>
<polygon fill="none" stroke="#000000" points="280,-442.5 280,-477.5 545,-477.5 545,-442.5 280,-442.5"/>
<text text-anchor="start" x="286.6979" y="-455.3" font-family="Arial Bold" font-size="18.00" fill="#000000">public.accounts</text>
<text text-anchor="start" x="410.7341" y="-455.3" font-family="Arial" font-size="14.00" fill="#000000">    </text>
<text text-anchor="start" x="444.9389" y="-455.3" font-family="Arial" font-size="14.00" fill="#666666">[BASE TABLE]</text>
<polygon fill="none" stroke="#000000" points="280,-412.5 280,-442.5 545,-442.5 545,-412.5 280,-412.5"/>
<text text-anchor="start" x="287" y="-423.9" font-family="Arial" font-size="14.00" fill="#000000">id </text>
<text text-anchor="start" x="301.7798" y="-423.9" font-family="Arial" font-size="14.00" fill="#666666">[integer]</text>
<polygon fill="none" stroke="#000000" points="280,-382.5 280,-412.5 545,-412.5 545,-382.5 280,-382.5"/>
<text text-anchor="start" x="287" y="-393.9" font-family="Arial" font-size="14.00" fill="#000000">account_number </text>
<text text-anchor="start" x="395.1458" y="-393.9" font-family="Arial" font-size="14.00" fill="#666666">[integer]</text>
<polygon fill="none" stroke="#000000" points="280,-352.5 280,-382.5 545,-382.5 545,-352.5 280,-352.5"/>
<text text-anchor="start" x="287" y="-363.9" font-family="Arial" font-size="14.00" fill="#000000">account_status </text>
<text text-anchor="start" x="385.0406" y="-363.9" font-family="Arial" font-size="14.00" fill="#666666">[integer]</text>
<polygon fill="none" stroke="#000000" points="280,-322.5 280,-352.5 545,-352.5 545,-322.5 280,-322.5"/>
<text text-anchor="start" x="287" y="-333.9" font-family="Arial" font-size="14.00" fill="#000000">user_id </text>
<text text-anchor="start" x="336.7882" y="-333.9" font-family="Arial" font-size="14.00" fill="#666666">[integer]</text>
<polygon fill="none" stroke="#000000" stroke-width="3" points="278,-321.5 278,-479.5 546,-479.5 546,-321.5 278,-321.5"/>
</g>
<!-- public.users -->
<g id="node3" class="node">
<title>public.users</title>
<polygon fill="#efefef" stroke="transparent" points="294,-162.5 294,-197.5 531,-197.5 531,-162.5 294,-162.5"/>
<polygon fill="none" stroke="#000000" points="294,-162.5 294,-197.5 531,-197.5 531,-162.5 294,-162.5"/>
<text text-anchor="start" x="300.7091" y="-175.3" font-family="Arial Bold" font-size="18.00" fill="#000000">public.users</text>
<text text-anchor="start" x="396.7229" y="-175.3" font-family="Arial" font-size="14.00" fill="#000000">    </text>
<text text-anchor="start" x="430.9277" y="-175.3" font-family="Arial" font-size="14.00" fill="#666666">[BASE TABLE]</text>
<polygon fill="none" stroke="#000000" points="294,-132.5 294,-162.5 531,-162.5 531,-132.5 294,-132.5"/>
<text text-anchor="start" x="301" y="-143.9" font-family="Arial" font-size="14.00" fill="#000000">id    </text>
<text text-anchor="start" x="346.094" y="-143.9" font-family="Arial" font-size="14.00" fill="#666666">[integer]</text>
<polygon fill="none" stroke="#000000" points="294,-102.5 294,-132.5 531,-132.5 531,-102.5 294,-102.5"/>
<text text-anchor="start" x="301" y="-113.9" font-family="Arial" font-size="14.00" fill="#000000">user_name    </text>
<text text-anchor="start" x="405.2216" y="-113.9" font-family="Arial" font-size="14.00" fill="#666666">[varchar(100)]</text>
<polygon fill="none" stroke="#000000" points="294,-72.5 294,-102.5 531,-102.5 531,-72.5 294,-72.5"/>
<text text-anchor="start" x="301" y="-83.9" font-family="Arial" font-size="14.00" fill="#000000">email    </text>
<text text-anchor="start" x="368.6438" y="-83.9" font-family="Arial" font-size="14.00" fill="#666666">[varchar(100)]</text>
<polygon fill="none" stroke="#000000" points="294,-42.5 294,-72.5 531,-72.5 531,-42.5 294,-42.5"/>
<text text-anchor="start" x="301" y="-53.9" font-family="Arial" font-size="14.00" fill="#000000">password    </text>
<text text-anchor="start" x="395.1024" y="-53.9" font-family="Arial" font-size="14.00" fill="#666666">[varchar(100)]</text>
</g>
<!-- public.accounts&#45;&gt;public.users -->
<g id="edge2" class="edge">
<title>public.accounts:user_id&#45;&gt;public.users:id</title>
<path fill="none" stroke="#000000" d="M412.1121,-312.2568C402.7612,-262.6733 322.1424,-294.3839 294,-241 274.621,-204.2397 252.4444,-147.5 294,-147.5"/>
<polygon fill="#000000" stroke="#000000" points="412.1363,-312.5374 408.5168,-322.8887 412.5682,-317.5187 413,-322.5 413,-322.5 413,-322.5 412.5682,-317.5187 417.4832,-322.1113 412.1363,-312.5374 412.1363,-312.5374"/>
<text text-anchor="start" x="420.3345" y="-332.5" font-family="Arial" font-size="10.00" fill="#000000">FOREIGN KEY (user_id) REFERENCES users(id)</text>
</g>
<!-- public.transactions -->
<g id="node2" class="node">
<title>public.transactions</title>
<polygon fill="#efefef" stroke="transparent" points="268,-692.5 268,-727.5 558,-727.5 558,-692.5 268,-692.5"/>
<polygon fill="none" stroke="#000000" points="268,-692.5 268,-727.5 558,-727.5 558,-692.5 268,-692.5"/>
<text text-anchor="start" x="274.7005" y="-705.3" font-family="Arial Bold" font-size="18.00" fill="#000000">public.transactions</text>
<text text-anchor="start" x="423.7315" y="-705.3" font-family="Arial" font-size="14.00" fill="#000000">    </text>
<text text-anchor="start" x="457.9363" y="-705.3" font-family="Arial" font-size="14.00" fill="#666666">[BASE TABLE]</text>
<polygon fill="none" stroke="#000000" points="268,-662.5 268,-692.5 558,-692.5 558,-662.5 268,-662.5"/>
<text text-anchor="start" x="275" y="-673.9" font-family="Arial" font-size="14.00" fill="#000000">id    </text>
<text text-anchor="start" x="320.094" y="-673.9" font-family="Arial" font-size="14.00" fill="#666666">[integer]</text>
<polygon fill="none" stroke="#000000" points="268,-632.5 268,-662.5 558,-662.5 558,-632.5 268,-632.5"/>
<text text-anchor="start" x="275" y="-643.9" font-family="Arial" font-size="14.00" fill="#000000">account_id    </text>
<text text-anchor="start" x="376.8976" y="-643.9" font-family="Arial" font-size="14.00" fill="#666666">[integer]</text>
<polygon fill="none" stroke="#000000" points="268,-602.5 268,-632.5 558,-632.5 558,-602.5 268,-602.5"/>
<text text-anchor="start" x="275" y="-613.9" font-family="Arial" font-size="14.00" fill="#000000">amount    </text>
<text text-anchor="start" x="355.8864" y="-613.9" font-family="Arial" font-size="14.00" fill="#666666">[integer]</text>
</g>
<!-- public.transactions&#45;&gt;public.accounts -->
<g id="edge1" class="edge">
<title>public.transactions:account_id&#45;&gt;public.accounts:id</title>
<path fill="none" stroke="#000000" d="M258.0608,-645.9139C231.8125,-636.3938 244.8409,-586.3637 268,-560 349.9329,-466.7297 463.0671,-617.2703 545,-524 573.3054,-491.7779 587.8889,-427.5 545,-427.5"/>
<polygon fill="#000000" stroke="#000000" points="258.125,-645.924 267.2908,-651.9438 263.0625,-646.712 268,-647.5 268,-647.5 268,-647.5 263.0625,-646.712 268.7092,-643.0562 258.125,-645.924 258.125,-645.924"/>
<text text-anchor="start" x="6.7665" y="-657.5" font-family="Arial" font-size="10.00" fill="#000000">FOREIGN KEY (account_id) REFERENCES accounts(id)</text>
</g>
</g>
</svg>
