<?xml version="1.0" encoding="UTF-8" standalone="no"?>
<!DOCTYPE svg PUBLIC "-//W3C//DTD SVG 1.1//EN"
 "http://www.w3.org/Graphics/SVG/1.1/DTD/svg11.dtd">
<!-- Generated by graphviz version 2.40.1 (20161225.0304)
 -->
<!-- Title: public.users Pages: 1 -->
<svg width="422pt" height="532pt"
 viewBox="0.00 0.00 421.50 532.00" xmlns="http://www.w3.org/2000/svg" xmlns:xlink="http://www.w3.org/1999/xlink">
<g id="graph0" class="graph" transform="scale(1 1) rotate(0) translate(4 528)">
<title>public.users</title>
<polygon fill="#ffffff" stroke="transparent" points="-4,4 -4,-528 417.5,-528 417.5,4 -4,4"/>
<!-- public.users -->
<g id="node1" class="node">
<title>public.users</title>
<polygon fill="#efefef" stroke="transparent" points="57.5,-165.5 57.5,-200.5 294.5,-200.5 294.5,-165.5 57.5,-165.5"/>
<polygon fill="none" stroke="#000000" points="57.5,-165.5 57.5,-200.5 294.5,-200.5 294.5,-165.5 57.5,-165.5"/>
<text text-anchor="start" x="64.2091" y="-178.3" font-family="Arial Bold" font-size="18.00" fill="#000000">public.users</text>
<text text-anchor="start" x="160.2229" y="-178.3" font-family="Arial" font-size="14.00" fill="#000000">    </text>
<text text-anchor="start" x="194.4277" y="-178.3" font-family="Arial" font-size="14.00" fill="#666666">[BASE TABLE]</text>
<polygon fill="none" stroke="#000000" points="57.5,-135.5 57.5,-165.5 294.5,-165.5 294.5,-135.5 57.5,-135.5"/>
<text text-anchor="start" x="64.5" y="-146.9" font-family="Arial" font-size="14.00" fill="#000000">id </text>
<text text-anchor="start" x="79.2798" y="-146.9" font-family="Arial" font-size="14.00" fill="#666666">[integer]</text>
<polygon fill="none" stroke="#000000" points="57.5,-105.5 57.5,-135.5 294.5,-135.5 294.5,-105.5 57.5,-105.5"/>
<text text-anchor="start" x="64.5" y="-116.9" font-family="Arial" font-size="14.00" fill="#000000">user_name </text>
<text text-anchor="start" x="138.4074" y="-116.9" font-family="Arial" font-size="14.00" fill="#666666">[varchar(100)]</text>
<polygon fill="none" stroke="#000000" points="57.5,-75.5 57.5,-105.5 294.5,-105.5 294.5,-75.5 57.5,-75.5"/>
<text text-anchor="start" x="64.5" y="-86.9" font-family="Arial" font-size="14.00" fill="#000000">email </text>
<text text-anchor="start" x="101.8296" y="-86.9" font-family="Arial" font-size="14.00" fill="#666666">[varchar(100)]</text>
<polygon fill="none" stroke="#000000" points="57.5,-45.5 57.5,-75.5 294.5,-75.5 294.5,-45.5 57.5,-45.5"/>
<text text-anchor="start" x="64.5" y="-56.9" font-family="Arial" font-size="14.00" fill="#000000">password </text>
<text text-anchor="start" x="128.2882" y="-56.9" font-family="Arial" font-size="14.00" fill="#666666">[varchar(100)]</text>
<polygon fill="none" stroke="#000000" stroke-width="3" points="55.5,-44.5 55.5,-202.5 295.5,-202.5 295.5,-44.5 55.5,-44.5"/>
</g>
<!-- public.accounts -->
<g id="node2" class="node">
<title>public.accounts</title>
<polygon fill="#efefef" stroke="transparent" points="43.5,-445.5 43.5,-480.5 308.5,-480.5 308.5,-445.5 43.5,-445.5"/>
<polygon fill="none" stroke="#000000" points="43.5,-445.5 43.5,-480.5 308.5,-480.5 308.5,-445.5 43.5,-445.5"/>
<text text-anchor="start" x="50.1979" y="-458.3" font-family="Arial Bold" font-size="18.00" fill="#000000">public.accounts</text>
<text text-anchor="start" x="174.2341" y="-458.3" font-family="Arial" font-size="14.00" fill="#000000">    </text>
<text text-anchor="start" x="208.4389" y="-458.3" font-family="Arial" font-size="14.00" fill="#666666">[BASE TABLE]</text>
<polygon fill="none" stroke="#000000" points="43.5,-415.5 43.5,-445.5 308.5,-445.5 308.5,-415.5 43.5,-415.5"/>
<text text-anchor="start" x="50.5" y="-426.9" font-family="Arial" font-size="14.00" fill="#000000">id    </text>
<text text-anchor="start" x="95.594" y="-426.9" font-family="Arial" font-size="14.00" fill="#666666">[integer]</text>
<polygon fill="none" stroke="#000000" points="43.5,-385.5 43.5,-415.5 308.5,-415.5 308.5,-385.5 43.5,-385.5"/>
<text text-anchor="start" x="50.5" y="-396.9" font-family="Arial" font-size="14.00" fill="#000000">account_number    </text>
<text text-anchor="start" x="188.96" y="-396.9" font-family="Arial" font-size="14.00" fill="#666666">[integer]</text>
<polygon fill="none" stroke="#000000" points="43.5,-355.5 43.5,-385.5 308.5,-385.5 308.5,-355.5 43.5,-355.5"/>
<text text-anchor="start" x="50.5" y="-366.9" font-family="Arial" font-size="14.00" fill="#000000">account_status    </text>
<text text-anchor="start" x="178.8548" y="-366.9" font-family="Arial" font-size="14.00" fill="#666666">[integer]</text>
<polygon fill="none" stroke="#000000" points="43.5,-325.5 43.5,-355.5 308.5,-355.5 308.5,-325.5 43.5,-325.5"/>
<text text-anchor="start" x="50.5" y="-336.9" font-family="Arial" font-size="14.00" fill="#000000">user_id    </text>
<text text-anchor="start" x="130.6024" y="-336.9" font-family="Arial" font-size="14.00" fill="#666666">[integer]</text>
</g>
<!-- public.accounts&#45;&gt;public.users -->
<g id="edge1" class="edge">
<title>public.accounts:user_id&#45;&gt;public.users:id</title>
<path fill="none" stroke="#000000" d="M175.6134,-315.3935C166.2765,-266.5727 85.7729,-299.521 57.5,-247 37.1706,-209.2353 14.6111,-150.5 57.5,-150.5"/>
<polygon fill="#000000" stroke="#000000" points="175.626,-315.5383 172.0172,-325.8933 176.063,-320.5191 176.5,-325.5 176.5,-325.5 176.5,-325.5 176.063,-320.5191 180.9828,-325.1067 175.626,-315.5383 175.626,-315.5383"/>
<text text-anchor="start" x="183.8345" y="-335.5" font-family="Arial" font-size="10.00" fill="#000000">FOREIGN KEY (user_id) REFERENCES users(id)</text>
</g>
</g>
</svg>
