<?xml version="1.0" encoding="UTF-8" standalone="no"?>
<!DOCTYPE svg PUBLIC "-//W3C//DTD SVG 1.1//EN"
 "http://www.w3.org/Graphics/SVG/1.1/DTD/svg11.dtd">
<!-- Generated by graphviz version 2.40.1 (20161225.0304)
 -->
<!-- Title: public.transactions Pages: 1 -->
<svg width="612pt" height="502pt"
 viewBox="0.00 0.00 612.00 502.00" xmlns="http://www.w3.org/2000/svg" xmlns:xlink="http://www.w3.org/1999/xlink">
<g id="graph0" class="graph" transform="scale(1 1) rotate(0) translate(4 498)">
<title>public.transactions</title>
<polygon fill="#ffffff" stroke="transparent" points="-4,4 -4,-498 608,-498 608,4 -4,4"/>
<!-- public.transactions -->
<g id="node1" class="node">
<title>public.transactions</title>
<polygon fill="#efefef" stroke="transparent" points="268,-412.5 268,-447.5 558,-447.5 558,-412.5 268,-412.5"/>
<polygon fill="none" stroke="#000000" points="268,-412.5 268,-447.5 558,-447.5 558,-412.5 268,-412.5"/>
<text text-anchor="start" x="274.7005" y="-425.3" font-family="Arial Bold" font-size="18.00" fill="#000000">public.transactions</text>
<text text-anchor="start" x="423.7315" y="-425.3" font-family="Arial" font-size="14.00" fill="#000000">    </text>
<text text-anchor="start" x="457.9363" y="-425.3" font-family="Arial" font-size="14.00" fill="#666666">[BASE TABLE]</text>
<polygon fill="none" stroke="#000000" points="268,-382.5 268,-412.5 558,-412.5 558,-382.5 268,-382.5"/>
<text text-anchor="start" x="275" y="-393.9" font-family="Arial" font-size="14.00" fill="#000000">id </text>
<text text-anchor="start" x="289.7798" y="-393.9" font-family="Arial" font-size="14.00" fill="#666666">[integer]</text>
<polygon fill="none" stroke="#000000" points="268,-352.5 268,-382.5 558,-382.5 558,-352.5 268,-352.5"/>
<text text-anchor="start" x="275" y="-363.9" font-family="Arial" font-size="14.00" fill="#000000">account_id </text>
<text text-anchor="start" x="346.5834" y="-363.9" font-family="Arial" font-size="14.00" fill="#666666">[integer]</text>
<polygon fill="none" stroke="#000000" points="268,-322.5 268,-352.5 558,-352.5 558,-322.5 268,-322.5"/>
<text text-anchor="start" x="275" y="-333.9" font-family="Arial" font-size="14.00" fill="#000000">amount </text>
<text text-anchor="start" x="325.5722" y="-333.9" font-family="Arial" font-size="14.00" fill="#666666">[integer]</text>
<polygon fill="none" stroke="#000000" stroke-width="3" points="266.5,-321.5 266.5,-449.5 559.5,-449.5 559.5,-321.5 266.5,-321.5"/>
</g>
<!-- public.accounts -->
<g id="node2" class="node">
<title>public.accounts</title>
<polygon fill="#efefef" stroke="transparent" points="280,-162.5 280,-197.5 545,-197.5 545,-162.5 280,-162.5"/>
<polygon fill="none" stroke="#000000" points="280,-162.5 280,-197.5 545,-197.5 545,-162.5 280,-162.5"/>
<text text-anchor="start" x="286.6979" y="-175.3" font-family="Arial Bold" font-size="18.00" fill="#000000">public.accounts</text>
<text text-anchor="start" x="410.7341" y="-175.3" font-family="Arial" font-size="14.00" fill="#000000">    </text>
<text text-anchor="start" x="444.9389" y="-175.3" font-family="Arial" font-size="14.00" fill="#666666">[BASE TABLE]</text>
<polygon fill="none" stroke="#000000" points="280,-132.5 280,-162.5 545,-162.5 545,-132.5 280,-132.5"/>
<text text-anchor="start" x="287" y="-143.9" font-family="Arial" font-size="14.00" fill="#000000">id    </text>
<text text-anchor="start" x="332.094" y="-143.9" font-family="Arial" font-size="14.00" fill="#666666">[integer]</text>
<polygon fill="none" stroke="#000000" points="280,-102.5 280,-132.5 545,-132.5 545,-102.5 280,-102.5"/>
<text text-anchor="start" x="287" y="-113.9" font-family="Arial" font-size="14.00" fill="#000000">account_number    </text>
<text text-anchor="start" x="425.46" y="-113.9" font-family="Arial" font-size="14.00" fill="#666666">[integer]</text>
<polygon fill="none" stroke="#000000" points="280,-72.5 280,-102.5 545,-102.5 545,-72.5 280,-72.5"/>
<text text-anchor="start" x="287" y="-83.9" font-family="Arial" font-size="14.00" fill="#000000">account_status    </text>
<text text-anchor="start" x="415.3548" y="-83.9" font-family="Arial" font-size="14.00" fill="#666666">[integer]</text>
<polygon fill="none" stroke="#000000" points="280,-42.5 280,-72.5 545,-72.5 545,-42.5 280,-42.5"/>
<text text-anchor="start" x="287" y="-53.9" font-family="Arial" font-size="14.00" fill="#000000">user_id    </text>
<text text-anchor="start" x="367.1024" y="-53.9" font-family="Arial" font-size="14.00" fill="#666666">[integer]</text>
</g>
<!-- public.transactions&#45;&gt;public.accounts -->
<g id="edge1" class="edge">
<title>public.transactions:account_id&#45;&gt;public.accounts:id</title>
<path fill="none" stroke="#000000" d="M258.0749,-365.985C230.4553,-356.4615 243.9432,-304.3856 268,-277 349.9329,-183.7297 463.0671,-334.2703 545,-241 572.4254,-209.7796 586.5556,-147.5 545,-147.5"/>
<polygon fill="#000000" stroke="#000000" points="258.1145,-365.991 267.3209,-371.9485 263.0573,-366.7455 268,-367.5 268,-367.5 268,-367.5 263.0573,-366.7455 268.6791,-363.0515 258.1145,-365.991 258.1145,-365.991"/>
<text text-anchor="start" x="6.7665" y="-377.5" font-family="Arial" font-size="10.00" fill="#000000">FOREIGN KEY (account_id) REFERENCES accounts(id)</text>
</g>
</g>
</svg>
