<?xml version="1.0" encoding="UTF-8" standalone="no"?>
<!DOCTYPE svg PUBLIC "-//W3C//DTD SVG 1.1//EN"
 "http://www.w3.org/Graphics/SVG/1.1/DTD/svg11.dtd">
<!-- Generated by graphviz version 2.40.1 (20161225.0304)
 -->
<!-- Title: testdb Pages: 1 -->
<svg width="971pt" height="773pt"
 viewBox="0.00 0.00 971.00 773.00" xmlns="http://www.w3.org/2000/svg" xmlns:xlink="http://www.w3.org/1999/xlink">
<g id="graph0" class="graph" transform="scale(1 1) rotate(0) translate(4 769)">
<title>testdb</title>
<polygon fill="#ffffff" stroke="transparent" points="-4,4 -4,-769 967,-769 967,4 -4,4"/>
<!-- public.users -->
<g id="node1" class="node">
<title>public.users</title>
<polygon fill="#efefef" stroke="transparent" points="294,-162.5 294,-197.5 531,-197.5 531,-162.5 294,-162.5"/>
<polygon fill="none" stroke="#000000" points="294,-162.5 294,-197.5 531,-197.5 531,-162.5 294,-162.5"/>
<text text-anchor="start" x="300.7091" y="-175.3" font-family="Arial Bold" font-size="18.00" fill="#000000">public.users</text>
<text text-anchor="start" x="396.7229" y="-175.3" font-family="Arial" font-size="14.00" fill="#000000">    </text>
<text text-anchor="start" x="430.9277" y="-175.3" font-family="Arial" font-size="14.00" fill="#666666">[BASE TABLE]</text>
<polygon fill="none" stroke="#000000" points="294,-132.5 294,-162.5 531,-162.5 531,-132.5 294,-132.5"/>
<text text-anchor="start" x="301" y="-143.9" font-family="Arial" font-size="14.00" fill="#000000">id    </text>
<text text-anchor="start" x="346.094" y="-143.9" font-family="Arial" font-size="14.00" fill="#666666">[integer]</text>
<polygon fill="none" stroke="#000000" points="294,-102.5 294,-132.5 531,-132.5 531,-102.5 294,-102.5"/>
<text text-anchor="start" x="301" y="-113.9" font-family="Arial" font-size="14.00" fill="#000000">user_name    </text>
<text text-anchor="start" x="405.2216" y="-113.9" font-family="Arial" font-size="14.00" fill="#666666">[varchar(100)]</text>
<polygon fill="none" stroke="#000000" points="294,-72.5 294,-102.5 531,-102.5 531,-72.5 294,-72.5"/>
<text text-anchor="start" x="301" y="-83.9" font-family="Arial" font-size="14.00" fill="#000000">email    </text>
<text text-anchor="start" x="368.6438" y="-83.9" font-family="Arial" font-size="14.00" fill="#666666">[varchar(100)]</text>
<polygon fill="none" stroke="#000000" points="294,-42.5 294,-72.5 531,-72.5 531,-42.5 294,-42.5"/>
<text text-anchor="start" x="301" y="-53.9" font-family="Arial" font-size="14.00" fill="#000000">password    </text>
<text text-anchor="start" x="395.1024" y="-53.9" font-family="Arial" font-size="14.00" fill="#666666">[varchar(100)]</text>
</g>
<!-- public.accounts -->
<g id="node2" class="node">
<title>public.accounts</title>
<polygon fill="#efefef" stroke="transparent" points="280,-439.5 280,-474.5 545,-474.5 545,-439.5 280,-439.5"/>
<polygon fill="none" stroke="#000000" points="280,-439.5 280,-474.5 545,-474.5 545,-439.5 280,-439.5"/>
<text text-anchor="start" x="286.6979" y="-452.3" font-family="Arial Bold" font-size="18.00" fill="#000000">public.accounts</text>
<text text-anchor="start" x="410.7341" y="-452.3" font-family="Arial" font-size="14.00" fill="#000000">    </text>
<text text-anchor="start" x="444.9389" y="-452.3" font-family="Arial" font-size="14.00" fill="#666666">[BASE TABLE]</text>
<polygon fill="none" stroke="#000000" points="280,-409.5 280,-439.5 545,-439.5 545,-409.5 280,-409.5"/>
<text text-anchor="start" x="287" y="-420.9" font-family="Arial" font-size="14.00" fill="#000000">id    </text>
<text text-anchor="start" x="332.094" y="-420.9" font-family="Arial" font-size="14.00" fill="#666666">[integer]</text>
<polygon fill="none" stroke="#000000" points="280,-379.5 280,-409.5 545,-409.5 545,-379.5 280,-379.5"/>
<text text-anchor="start" x="287" y="-390.9" font-family="Arial" font-size="14.00" fill="#000000">account_number    </text>
<text text-anchor="start" x="425.46" y="-390.9" font-family="Arial" font-size="14.00" fill="#666666">[integer]</text>
<polygon fill="none" stroke="#000000" points="280,-349.5 280,-379.5 545,-379.5 545,-349.5 280,-349.5"/>
<text text-anchor="start" x="287" y="-360.9" font-family="Arial" font-size="14.00" fill="#000000">account_status    </text>
<text text-anchor="start" x="415.3548" y="-360.9" font-family="Arial" font-size="14.00" fill="#666666">[integer]</text>
<polygon fill="none" stroke="#000000" points="280,-319.5 280,-349.5 545,-349.5 545,-319.5 280,-319.5"/>
<text text-anchor="start" x="287" y="-330.9" font-family="Arial" font-size="14.00" fill="#000000">user_id    </text>
<text text-anchor="start" x="367.1024" y="-330.9" font-family="Arial" font-size="14.00" fill="#666666">[integer]</text>
</g>
<!-- public.accounts&#45;&gt;public.users -->
<g id="edge1" class="edge">
<title>public.accounts:user_id&#45;&gt;public.users:id</title>
<path fill="none" stroke="#000000" d="M412.1134,-309.3935C402.7765,-260.5727 322.2729,-293.521 294,-241 274.3026,-204.4093 252.4444,-147.5 294,-147.5"/>
<polygon fill="#000000" stroke="#000000" points="412.126,-309.5383 408.5172,-319.8933 412.563,-314.5191 413,-319.5 413,-319.5 413,-319.5 412.563,-314.5191 417.4828,-319.1067 412.126,-309.5383 412.126,-309.5383"/>
<text text-anchor="start" x="420.3345" y="-329.5" font-family="Arial" font-size="10.00" fill="#000000">FOREIGN KEY (user_id) REFERENCES users(id)</text>
</g>
<!-- public.transactions -->
<g id="node3" class="node">
<title>public.transactions</title>
<polygon fill="#efefef" stroke="transparent" points="268,-686.5 268,-721.5 558,-721.5 558,-686.5 268,-686.5"/>
<polygon fill="none" stroke="#000000" points="268,-686.5 268,-721.5 558,-721.5 558,-686.5 268,-686.5"/>
<text text-anchor="start" x="274.7005" y="-699.3" font-family="Arial Bold" font-size="18.00" fill="#000000">public.transactions</text>
<text text-anchor="start" x="423.7315" y="-699.3" font-family="Arial" font-size="14.00" fill="#000000">    </text>
<text text-anchor="start" x="457.9363" y="-699.3" font-family="Arial" font-size="14.00" fill="#666666">[BASE TABLE]</text>
<polygon fill="none" stroke="#000000" points="268,-656.5 268,-686.5 558,-686.5 558,-656.5 268,-656.5"/>
<text text-anchor="start" x="275" y="-667.9" font-family="Arial" font-size="14.00" fill="#000000">id    </text>
<text text-anchor="start" x="320.094" y="-667.9" font-family="Arial" font-size="14.00" fill="#666666">[integer]</text>
<polygon fill="none" stroke="#000000" points="268,-626.5 268,-656.5 558,-656.5 558,-626.5 268,-626.5"/>
<text text-anchor="start" x="275" y="-637.9" font-family="Arial" font-size="14.00" fill="#000000">account_id    </text>
<text text-anchor="start" x="376.8976" y="-637.9" font-family="Arial" font-size="14.00" fill="#666666">[integer]</text>
<polygon fill="none" stroke="#000000" points="268,-596.5 268,-626.5 558,-626.5 558,-596.5 268,-596.5"/>
<text text-anchor="start" x="275" y="-607.9" font-family="Arial" font-size="14.00" fill="#000000">amount    </text>
<text text-anchor="start" x="355.8864" y="-607.9" font-family="Arial" font-size="14.00" fill="#666666">[integer]</text>
</g>
<!-- public.transactions&#45;&gt;public.accounts -->
<g id="edge2" class="edge">
<title>public.transactions:account_id&#45;&gt;public.accounts:id</title>
<path fill="none" stroke="#000000" d="M258.0608,-639.9139C231.8125,-630.3938 244.8409,-580.3637 268,-554 349.9329,-460.7297 463.0671,-611.2703 545,-518 572.4254,-486.7796 586.5556,-424.5 545,-424.5"/>
<polygon fill="#000000" stroke="#000000" points="258.125,-639.924 267.2908,-645.9438 263.0625,-640.712 268,-641.5 268,-641.5 268,-641.5 263.0625,-640.712 268.7092,-637.0562 258.125,-639.924 258.125,-639.924"/>
<text text-anchor="start" x="6.7665" y="-651.5" font-family="Arial" font-size="10.00" fill="#000000">FOREIGN KEY (account_id) REFERENCES accounts(id)</text>
</g>
<!-- public.tranction_view -->
<g id="node4" class="node">
<title>public.tranction_view</title>
<polygon fill="#efefef" stroke="transparent" points="662,-686.5 662,-721.5 920,-721.5 920,-686.5 662,-686.5"/>
<polygon fill="none" stroke="#000000" points="662,-686.5 662,-721.5 920,-721.5 920,-686.5 662,-686.5"/>
<text text-anchor="start" x="668.605" y="-699.3" font-family="Arial Bold" font-size="18.00" fill="#000000">public.tranction_view</text>
<text text-anchor="start" x="835.6306" y="-699.3" font-family="Arial" font-size="14.00" fill="#000000">    </text>
<text text-anchor="start" x="869.8354" y="-699.3" font-family="Arial" font-size="14.00" fill="#666666">[VIEW]</text>
<polygon fill="none" stroke="#000000" points="662,-656.5 662,-686.5 920,-686.5 920,-656.5 662,-656.5"/>
<text text-anchor="start" x="669" y="-667.9" font-family="Arial" font-size="14.00" fill="#000000">user_name    </text>
<text text-anchor="start" x="773.2216" y="-667.9" font-family="Arial" font-size="14.00" fill="#666666">[varchar(100)]</text>
<polygon fill="none" stroke="#000000" points="662,-626.5 662,-656.5 920,-656.5 920,-626.5 662,-626.5"/>
<text text-anchor="start" x="669" y="-637.9" font-family="Arial" font-size="14.00" fill="#000000">account_number    </text>
<text text-anchor="start" x="807.46" y="-637.9" font-family="Arial" font-size="14.00" fill="#666666">[integer]</text>
<polygon fill="none" stroke="#000000" points="662,-596.5 662,-626.5 920,-626.5 920,-596.5 662,-596.5"/>
<text text-anchor="start" x="669" y="-607.9" font-family="Arial" font-size="14.00" fill="#000000">amount    </text>
<text text-anchor="start" x="749.8864" y="-607.9" font-family="Arial" font-size="14.00" fill="#666666">[integer]</text>
</g>
</g>
</svg>
